<svg width="32" height="32" viewBox="0 0 32 32" fill="none" xmlns="http://www.w3.org/2000/svg">
<g clip-path="url(#clip0_1968_5286)">
<path d="M4.30006 -1.62572e-05H27.7998C28.3578 0.00649097 28.9092 0.122532 29.4224 0.341483C29.9355 0.560432 30.4003 0.878001 30.7904 1.27605C31.1804 1.67411 31.4879 2.14485 31.6954 2.6614C31.9029 3.17794 32.0063 3.73018 31.9997 4.28656V27.7132C32.0037 28.2772 31.8952 28.8365 31.6805 29.3583C31.4658 29.8802 31.1492 30.3543 30.7492 30.7532C30.3491 31.152 29.8735 31.4675 29.35 31.6816C28.8265 31.8956 28.2655 32.0038 27.6998 31.9998H4.30006C3.15218 31.9687 2.0615 31.4936 1.25892 30.6748C0.456346 29.8562 0.00487903 28.7582 0.000106142 27.6135V4.28656C-0.00388312 3.72253 0.104615 3.16333 0.319294 2.64147C0.533974 2.1196 0.850555 1.64547 1.25063 1.24663C1.65072 0.847788 2.12633 0.532192 2.64983 0.31818C3.17332 0.104167 3.73426 -0.00399313 4.30006 -1.62572e-05Z" fill="#1D1D1D"/>
<path opacity="0.05" fill-rule="evenodd" clip-rule="evenodd" d="M8.60865 16.0873C8.57879 16.0577 8.54809 16.0252 8.51655 15.9893C7.77551 15.148 2.03238 7.57615 4.71868 4.86522C6.5673 2.99966 11.0918 4.85273 15.8168 8.53561C18.1134 6.45388 24.7544 2.27563 27.2278 4.77176C29.4202 6.98424 26.5589 12.2136 23.4484 15.9893C26.559 19.765 29.4204 24.9945 27.228 27.207C24.7769 29.6805 18.2333 25.5999 15.8803 23.5001C11.1323 27.2564 6.57546 29.1098 4.71854 27.3005C2.03224 24.683 7.68273 17.0177 8.51641 16.1763C8.54851 16.1439 8.57924 16.1143 8.60865 16.0873ZM8.14567 8.32406C8.10488 9.92974 9.14216 11.8618 10.6007 13.7928C10.5776 13.7461 10.5543 13.6991 10.5543 13.6524C11.2746 12.9254 12.3683 11.8719 13.3967 10.8825C11.4341 9.35004 9.51071 8.12741 8.15541 7.9033C8.15264 8.03813 8.14938 8.17833 8.14567 8.32406ZM10.5426 18.2207C11.009 18.6908 12.3384 20.0289 13.5626 21.2463C11.4416 22.9192 9.34897 24.2536 7.95036 24.3825C7.73484 23.9097 8.28569 21.1248 10.5426 18.2207ZM24.2163 24.1436C24.4237 22.5141 22.8941 20.3007 21.3385 18.3803C20.3032 19.5181 19.2268 20.5917 18.1396 21.5802C20.9652 23.7559 23.6765 24.3298 24.2163 24.1436ZM21.4723 13.7641C23.0655 11.9006 24.6511 9.84835 24.2988 8.14848C24.1405 8.14534 23.9745 8.14149 23.8006 8.13699C22.1969 8.09549 20.2645 9.15938 18.3277 10.6498C19.3977 11.6183 20.4556 12.6637 21.4723 13.7641ZM15.7567 12.8436C17.0774 13.9997 18.3146 15.1711 19.2931 16.1295C18.3135 17.0891 17.0745 18.2621 15.7521 19.4195C14.7138 18.4122 13.5703 17.2666 12.4924 16.0677C13.4737 15.0547 14.5879 13.9252 15.7567 12.8436Z" fill="white"/>
<path fill-rule="evenodd" clip-rule="evenodd" d="M11 5V13H4V5H11ZM10 6H5V12H10V6Z" fill="white"/>
<path fill-rule="evenodd" clip-rule="evenodd" d="M20 5V13H12V5H20ZM19 6H13V12H19V6Z" fill="white"/>
<path fill-rule="evenodd" clip-rule="evenodd" d="M28 5H21V13H28V5ZM22 6H27V12H22V6Z" fill="white"/>
<path d="M12 19.25H10.25V20.75H11.4922L13.3036 25.2785C13.4175 25.5633 13.6933 25.75 14 25.75H19C19.2841 25.75 19.5438 25.5895 19.6708 25.3354L21.6708 21.3354C21.7871 21.1029 21.7746 20.8268 21.638 20.6057C21.5013 20.3846 21.2599 20.25 21 20.25H15.25V21.75H19.7865L18.5365 24.25H14.5078L12.6964 19.7215C12.5825 19.4367 12.3067 19.25 12 19.25Z" fill="white"/>
<path d="M14 27C13.4477 27 13 27.4477 13 28C13 28.5523 13.4477 29 14 29C14.5523 29 15 28.5523 15 28C15 27.4477 14.5523 27 14 27Z" fill="white"/>
<path d="M19 27C18.4477 27 18 27.4477 18 28C18 28.5523 18.4477 29 19 29C19.5523 29 20 28.5523 20 28C20 27.4477 19.5523 27 19 27Z" fill="white"/>
<path d="M4 14V22H7V21H5V15H10V17H11V14H4Z" fill="white"/>
<path d="M12 14V17H13V15H19V17H20V14H12Z" fill="white"/>
<path d="M21 14H28V22H25V21H27V15H22V17H21V14Z" fill="white"/>
</g>
<defs>
<clipPath id="clip0_1968_5286">
<rect width="32" height="32" fill="white"/>
</clipPath>
</defs>
</svg>
