<svg width="32" height="32" viewBox="0 0 32 32" fill="none" xmlns="http://www.w3.org/2000/svg">
<g clip-path="url(#clip0_1968_5282)">
<path d="M4.30006 -1.62572e-05H27.7998C28.3578 0.00649097 28.9092 0.122532 29.4224 0.341483C29.9355 0.560432 30.4003 0.878001 30.7904 1.27605C31.1804 1.67411 31.4879 2.14485 31.6954 2.6614C31.9029 3.17794 32.0063 3.73018 31.9997 4.28656V27.7132C32.0037 28.2772 31.8952 28.8365 31.6805 29.3583C31.4658 29.8802 31.1492 30.3543 30.7492 30.7532C30.3491 31.152 29.8735 31.4675 29.35 31.6816C28.8265 31.8956 28.2655 32.0038 27.6998 31.9998H4.30006C3.15218 31.9687 2.0615 31.4936 1.25892 30.6748C0.456346 29.8562 0.00487903 28.7582 0.000106142 27.6135V4.28656C-0.00388312 3.72253 0.104615 3.16333 0.319294 2.64147C0.533974 2.1196 0.850555 1.64547 1.25063 1.24663C1.65072 0.847788 2.12633 0.532192 2.64983 0.31818C3.17332 0.104167 3.73426 -0.00399313 4.30006 -1.62572e-05Z" fill="#1D1D1D"/>
<path opacity="0.05" fill-rule="evenodd" clip-rule="evenodd" d="M8.60865 16.0873C8.57879 16.0577 8.54809 16.0252 8.51655 15.9893C7.77551 15.148 2.03238 7.57615 4.71868 4.86522C6.5673 2.99966 11.0918 4.85273 15.8168 8.53561C18.1134 6.45388 24.7544 2.27563 27.2278 4.77176C29.4202 6.98424 26.5589 12.2136 23.4484 15.9893C26.559 19.765 29.4204 24.9945 27.228 27.207C24.7769 29.6805 18.2333 25.5999 15.8803 23.5001C11.1323 27.2564 6.57546 29.1098 4.71854 27.3005C2.03224 24.683 7.68273 17.0177 8.51641 16.1763C8.54851 16.1439 8.57924 16.1143 8.60865 16.0873ZM8.14567 8.32406C8.10488 9.92974 9.14216 11.8618 10.6007 13.7928C10.5776 13.7461 10.5543 13.6991 10.5543 13.6524C11.2746 12.9254 12.3683 11.8719 13.3967 10.8825C11.4341 9.35004 9.51071 8.12741 8.15541 7.9033C8.15264 8.03813 8.14938 8.17833 8.14567 8.32406ZM10.5426 18.2207C11.009 18.6908 12.3384 20.0289 13.5626 21.2463C11.4416 22.9192 9.34897 24.2536 7.95036 24.3825C7.73484 23.9097 8.28569 21.1248 10.5426 18.2207ZM24.2163 24.1436C24.4237 22.5141 22.8941 20.3007 21.3385 18.3803C20.3032 19.5181 19.2268 20.5917 18.1396 21.5802C20.9652 23.7559 23.6765 24.3298 24.2163 24.1436ZM21.4723 13.7641C23.0655 11.9006 24.6511 9.84835 24.2988 8.14848C24.1405 8.14534 23.9745 8.14149 23.8006 8.13699C22.1969 8.09549 20.2645 9.15938 18.3277 10.6498C19.3977 11.6183 20.4556 12.6637 21.4723 13.7641ZM15.7567 12.8436C17.0774 13.9997 18.3146 15.1711 19.2931 16.1295C18.3135 17.0891 17.0745 18.2621 15.7521 19.4195C14.7138 18.4122 13.5703 17.2666 12.4924 16.0677C13.4737 15.0547 14.5879 13.9252 15.7567 12.8436Z" fill="white"/>
<path d="M12.6964 16.7215C12.5825 16.4367 12.3067 16.25 12 16.25H10.25V17.75H11.4922L13.3036 22.2785C13.4175 22.5633 13.6933 22.75 14 22.75H19C19.2841 22.75 19.5438 22.5895 19.6708 22.3354L21.6708 18.3354C21.7871 18.1029 21.7746 17.8268 21.638 17.6057C21.5013 17.3846 21.2599 17.25 21 17.25H15.25V18.75H19.7865L18.5365 21.25H14.5078L12.6964 16.7215Z" fill="white"/>
<path d="M13 25C13 24.4477 13.4477 24 14 24C14.5523 24 15 24.4477 15 25C15 25.5523 14.5523 26 14 26C13.4477 26 13 25.5523 13 25Z" fill="white"/>
<path d="M18 25C18 24.4477 18.4477 24 19 24C19.5523 24 20 24.4477 20 25C20 25.5523 19.5523 26 19 26C18.4477 26 18 25.5523 18 25Z" fill="white"/>
<path d="M15.509 11.96C15.909 11.96 16.109 12.13 16.109 12.47C16.109 12.8233 15.909 13 15.509 13H12.129C11.7224 13 11.519 12.8233 11.519 12.47C11.519 12.13 11.7224 11.96 12.129 11.96H13.169V7.4L12.209 7.99C12.1157 8.04333 12.0324 8.07 11.959 8.07C11.819 8.07 11.699 8.01 11.599 7.89C11.5057 7.77 11.459 7.63667 11.459 7.49C11.459 7.29667 11.5457 7.14667 11.719 7.04L13.269 6.08C13.469 5.96 13.659 5.9 13.839 5.9C14.0257 5.9 14.1757 5.95667 14.289 6.07C14.4024 6.18333 14.459 6.34 14.459 6.54V11.96H15.509Z" fill="white"/>
<path d="M21.4751 11.96C21.8751 11.96 22.0751 12.13 22.0751 12.47C22.0751 12.8233 21.8751 13 21.4751 13H17.6751C17.5018 13 17.3651 12.95 17.2651 12.85C17.1651 12.7433 17.1151 12.6133 17.1151 12.46C17.1151 12.26 17.1918 12.08 17.3451 11.92L19.6251 9.47C19.9051 9.16333 20.1084 8.88333 20.2351 8.63C20.3685 8.37 20.4351 8.11333 20.4351 7.86C20.4351 7.54667 20.3451 7.30667 20.1651 7.14C19.9851 6.97333 19.7285 6.89 19.3951 6.89C19.1218 6.89 18.8551 6.94333 18.5951 7.05C18.3418 7.15 18.0851 7.29 17.8251 7.47C17.7585 7.51667 17.6918 7.55667 17.6251 7.59C17.5585 7.61667 17.4918 7.63 17.4251 7.63C17.3118 7.63 17.2118 7.57667 17.1251 7.47C17.0451 7.36333 17.0051 7.23667 17.0051 7.09C17.0051 6.99 17.0218 6.90333 17.0551 6.83C17.0951 6.75667 17.1551 6.68667 17.2351 6.62C17.5285 6.38667 17.8718 6.20333 18.2651 6.07C18.6585 5.93 19.0518 5.86 19.4451 5.86C20.1318 5.86 20.6785 6.03333 21.0851 6.38C21.4985 6.72667 21.7051 7.19333 21.7051 7.78C21.7051 8.18667 21.6185 8.57 21.4451 8.93C21.2718 9.28333 20.9784 9.68 20.5651 10.12L18.8351 11.96H21.4751Z" fill="white"/>
<path d="M6.02931 13.34C5.98931 13.4667 5.92597 13.56 5.83931 13.62C5.75264 13.68 5.65597 13.71 5.54931 13.71C5.41597 13.71 5.29597 13.6633 5.18931 13.57C5.08931 13.4833 5.03931 13.37 5.03931 13.23C5.03931 13.17 5.04931 13.11 5.06931 13.05L7.38931 5.78C7.42931 5.65334 7.49264 5.56 7.57931 5.5C7.66597 5.44 7.76264 5.41 7.86931 5.41C8.00264 5.41 8.11931 5.45667 8.21931 5.55C8.32597 5.63667 8.37931 5.75 8.37931 5.89C8.37931 5.95 8.36931 6.01 8.34931 6.07L6.02931 13.34Z" fill="white"/>
<path d="M25.5957 13.34C25.5557 13.4667 25.4924 13.56 25.4057 13.62C25.319 13.68 25.2224 13.71 25.1157 13.71C24.9824 13.71 24.8624 13.6633 24.7557 13.57C24.6557 13.4833 24.6057 13.37 24.6057 13.23C24.6057 13.17 24.6157 13.11 24.6357 13.05L26.9557 5.78C26.9957 5.65334 27.059 5.56 27.1457 5.5C27.2324 5.44 27.329 5.41 27.4357 5.41C27.569 5.41 27.6857 5.45667 27.7857 5.55C27.8924 5.63667 27.9457 5.75 27.9457 5.89C27.9457 5.95 27.9357 6.01 27.9157 6.07L25.5957 13.34Z" fill="white"/>
</g>
<defs>
<clipPath id="clip0_1968_5282">
<rect width="32" height="32" fill="white"/>
</clipPath>
</defs>
</svg>
