<svg width="32" height="32" viewBox="0 0 32 32" fill="none" xmlns="http://www.w3.org/2000/svg">
<g clip-path="url(#clip0_1968_5281)">
<path d="M4.30006 -1.62572e-05H27.7998C28.3578 0.00649097 28.9092 0.122532 29.4224 0.341483C29.9355 0.560432 30.4003 0.878001 30.7904 1.27605C31.1804 1.67411 31.4879 2.14485 31.6954 2.6614C31.9029 3.17794 32.0063 3.73018 31.9997 4.28656V27.7132C32.0037 28.2772 31.8952 28.8365 31.6805 29.3583C31.4658 29.8802 31.1492 30.3543 30.7492 30.7532C30.3491 31.152 29.8735 31.4675 29.35 31.6816C28.8265 31.8956 28.2655 32.0038 27.6998 31.9998H4.30006C3.15218 31.9687 2.0615 31.4936 1.25892 30.6748C0.456346 29.8562 0.00487903 28.7582 0.000106142 27.6135V4.28656C-0.00388312 3.72253 0.104615 3.16333 0.319294 2.64147C0.533974 2.1196 0.850555 1.64547 1.25063 1.24663C1.65072 0.847788 2.12633 0.532192 2.64983 0.31818C3.17332 0.104167 3.73426 -0.00399313 4.30006 -1.62572e-05Z" fill="#1D1D1D"/>
<path opacity="0.05" fill-rule="evenodd" clip-rule="evenodd" d="M8.60865 16.0873C8.57879 16.0577 8.54809 16.0252 8.51655 15.9893C7.77551 15.148 2.03238 7.57615 4.71868 4.86522C6.5673 2.99966 11.0918 4.85273 15.8168 8.53561C18.1134 6.45388 24.7544 2.27563 27.2278 4.77176C29.4202 6.98424 26.5589 12.2136 23.4484 15.9893C26.559 19.765 29.4204 24.9945 27.228 27.207C24.7769 29.6805 18.2333 25.5999 15.8803 23.5001C11.1323 27.2564 6.57546 29.1098 4.71854 27.3005C2.03224 24.683 7.68273 17.0177 8.51641 16.1763C8.54851 16.1439 8.57924 16.1143 8.60865 16.0873ZM8.14567 8.32406C8.10488 9.92974 9.14216 11.8618 10.6007 13.7928C10.5776 13.7461 10.5543 13.6991 10.5543 13.6524C11.2746 12.9254 12.3683 11.8719 13.3967 10.8825C11.4341 9.35004 9.51071 8.12741 8.15541 7.9033C8.15264 8.03813 8.14938 8.17833 8.14567 8.32406ZM10.5426 18.2207C11.009 18.6908 12.3384 20.0289 13.5626 21.2463C11.4416 22.9192 9.34897 24.2536 7.95036 24.3825C7.73484 23.9097 8.28569 21.1248 10.5426 18.2207ZM24.2163 24.1436C24.4237 22.5141 22.8941 20.3007 21.3385 18.3803C20.3032 19.5181 19.2268 20.5917 18.1396 21.5802C20.9652 23.7559 23.6765 24.3298 24.2163 24.1436ZM21.4723 13.7641C23.0655 11.9006 24.6511 9.84835 24.2988 8.14848C24.1405 8.14534 23.9745 8.14149 23.8006 8.13699C22.1969 8.09549 20.2645 9.15938 18.3277 10.6498C19.3977 11.6183 20.4556 12.6637 21.4723 13.7641ZM15.7567 12.8436C17.0774 13.9997 18.3146 15.1711 19.2931 16.1295C18.3135 17.0891 17.0745 18.2621 15.7521 19.4195C14.7138 18.4122 13.5703 17.2666 12.4924 16.0677C13.4737 15.0547 14.5879 13.9252 15.7567 12.8436Z" fill="white"/>
<path fill-rule="evenodd" clip-rule="evenodd" d="M20 23C20 21.3431 21.3431 20 23 20C24.6569 20 26 21.3431 26 23C26 23.6479 25.7946 24.2479 25.4454 24.7383L27.3537 26.6464L26.6466 27.3535L24.7383 25.4454C24.2479 25.7946 23.6479 26 23 26C21.3431 26 20 24.6569 20 23ZM23 25C21.8954 25 21 24.1046 21 23C21 21.8954 21.8954 21 23 21C24.1046 21 25 21.8954 25 23C25 24.1046 24.1046 25 23 25Z" fill="white"/>
<path d="M7 6V26H18.9996C18.7685 25.6923 18.572 25.357 18.416 25H8V7H24V18.1C24.3478 18.1706 24.6825 18.2773 25 18.416V6H7Z" fill="white"/>
<path d="M19.857 9.36839L19.1499 8.66128L15.5034 12.3077L13.857 10.6613L13.1499 11.3684L15.5034 13.7219L19.857 9.36839Z" fill="white"/>
<path d="M15.3447 19.125C15.6854 19.125 15.8557 19.2697 15.8557 19.559C15.8557 19.853 15.6854 20 15.3447 20H12.9507C12.6054 20 12.4327 19.853 12.4327 19.559C12.4327 19.2697 12.6054 19.125 12.9507 19.125H13.6017V16.262L12.9857 16.633C12.9157 16.675 12.8457 16.696 12.7757 16.696C12.6591 16.696 12.5587 16.647 12.4747 16.549C12.3954 16.451 12.3557 16.3413 12.3557 16.22C12.3557 16.0567 12.4281 15.933 12.5727 15.849L13.6787 15.184C13.8421 15.086 14.0054 15.037 14.1687 15.037C14.3227 15.037 14.4487 15.086 14.5467 15.184C14.6447 15.2773 14.6937 15.4057 14.6937 15.569V19.125H15.3447Z" fill="white"/>
<path d="M18.457 16.794C18.7463 16.794 19.003 16.8617 19.227 16.997C19.4557 17.1323 19.633 17.3213 19.759 17.564C19.8897 17.8067 19.955 18.082 19.955 18.39C19.955 18.712 19.8827 19.0013 19.738 19.258C19.5933 19.51 19.3927 19.7083 19.136 19.853C18.8793 19.993 18.59 20.063 18.268 20.063C17.6287 20.063 17.134 19.8507 16.784 19.426C16.434 19.0013 16.259 18.3947 16.259 17.606C16.259 17.0787 16.3407 16.619 16.504 16.227C16.6673 15.8303 16.9007 15.527 17.204 15.317C17.512 15.107 17.869 15.002 18.275 15.002C18.541 15.002 18.8093 15.0463 19.08 15.135C19.3507 15.2237 19.5817 15.3473 19.773 15.506C19.8383 15.5573 19.885 15.6133 19.913 15.674C19.9457 15.73 19.962 15.8 19.962 15.884C19.962 16.0053 19.927 16.1103 19.857 16.199C19.7917 16.283 19.71 16.325 19.612 16.325C19.5513 16.325 19.4977 16.318 19.451 16.304C19.409 16.2853 19.3507 16.255 19.276 16.213C19.0893 16.101 18.9213 16.0147 18.772 15.954C18.6273 15.8887 18.478 15.856 18.324 15.856C18.0347 15.856 17.8037 15.989 17.631 16.255C17.463 16.521 17.3673 16.8943 17.344 17.375C17.4513 17.1977 17.603 17.0577 17.799 16.955C17.995 16.8477 18.2143 16.794 18.457 16.794ZM18.205 19.216C18.4243 19.216 18.5993 19.1437 18.73 18.999C18.8653 18.8543 18.933 18.663 18.933 18.425C18.933 18.1917 18.8653 18.0027 18.73 17.858C18.5993 17.7133 18.4243 17.641 18.205 17.641C17.9857 17.641 17.8083 17.7133 17.673 17.858C17.5377 18.0027 17.47 18.1917 17.47 18.425C17.47 18.6583 17.5377 18.8497 17.673 18.999C17.8083 19.1437 17.9857 19.216 18.205 19.216Z" fill="white"/>
</g>
<defs>
<clipPath id="clip0_1968_5281">
<rect width="32" height="32" fill="white"/>
</clipPath>
</defs>
</svg>
