<svg width="32" height="32" viewBox="0 0 32 32" fill="none" xmlns="http://www.w3.org/2000/svg">
<g clip-path="url(#clip0_2006_5500)">
<path d="M4.30006 -1.62572e-05H27.7998C28.3578 0.00649097 28.9092 0.122532 29.4224 0.341483C29.9355 0.560432 30.4003 0.878001 30.7904 1.27605C31.1804 1.67411 31.4879 2.14485 31.6954 2.6614C31.9029 3.17794 32.0063 3.73018 31.9997 4.28656V27.7132C32.0037 28.2772 31.8952 28.8365 31.6805 29.3583C31.4658 29.8802 31.1492 30.3543 30.7492 30.7532C30.3491 31.152 29.8735 31.4675 29.35 31.6816C28.8265 31.8956 28.2655 32.0038 27.6998 31.9998H4.30006C3.15218 31.9687 2.0615 31.4936 1.25892 30.6748C0.456346 29.8562 0.00487903 28.7582 0.000106142 27.6135V4.28656C-0.00388312 3.72253 0.104615 3.16333 0.319294 2.64147C0.533974 2.1196 0.850555 1.64547 1.25063 1.24663C1.65072 0.847788 2.12633 0.532192 2.64983 0.31818C3.17332 0.104167 3.73426 -0.00399313 4.30006 -1.62572e-05Z" fill="#1D1D1D"/>
<path opacity="0.05" fill-rule="evenodd" clip-rule="evenodd" d="M8.60865 16.0873C8.57879 16.0577 8.54809 16.0252 8.51655 15.9893C7.77551 15.148 2.03238 7.57615 4.71868 4.86522C6.5673 2.99966 11.0918 4.85273 15.8168 8.53561C18.1134 6.45388 24.7544 2.27563 27.2278 4.77176C29.4202 6.98424 26.5589 12.2136 23.4484 15.9893C26.559 19.765 29.4204 24.9945 27.228 27.207C24.7769 29.6805 18.2333 25.5999 15.8803 23.5001C11.1323 27.2564 6.57546 29.1098 4.71854 27.3005C2.03224 24.683 7.68273 17.0177 8.51641 16.1763C8.54851 16.1439 8.57924 16.1143 8.60865 16.0873ZM8.14567 8.32406C8.10488 9.92974 9.14216 11.8618 10.6007 13.7928C10.5776 13.7461 10.5543 13.6991 10.5543 13.6524C11.2746 12.9254 12.3683 11.8719 13.3967 10.8825C11.4341 9.35004 9.51071 8.12741 8.15541 7.9033C8.15264 8.03813 8.14938 8.17833 8.14567 8.32406ZM10.5426 18.2207C11.009 18.6908 12.3384 20.0289 13.5626 21.2463C11.4416 22.9192 9.34897 24.2536 7.95036 24.3825C7.73484 23.9097 8.28569 21.1248 10.5426 18.2207ZM24.2163 24.1436C24.4237 22.5141 22.8941 20.3007 21.3385 18.3803C20.3032 19.5181 19.2268 20.5917 18.1396 21.5802C20.9652 23.7559 23.6765 24.3298 24.2163 24.1436ZM21.4723 13.7641C23.0655 11.9006 24.6511 9.84835 24.2988 8.14848C24.1405 8.14534 23.9745 8.14149 23.8006 8.13699C22.1969 8.09549 20.2645 9.15938 18.3277 10.6498C19.3977 11.6183 20.4556 12.6637 21.4723 13.7641ZM15.7567 12.8436C17.0774 13.9997 18.3146 15.1711 19.2931 16.1295C18.3135 17.0891 17.0745 18.2621 15.7521 19.4195C14.7138 18.4122 13.5703 17.2666 12.4924 16.0677C13.4737 15.0547 14.5879 13.9252 15.7567 12.8436Z" fill="white"/>
<path d="M9.25 17.25V18.75H10.4922L12.3036 23.2785C12.4175 23.5633 12.6933 23.75 13 23.75H18C18.2841 23.75 18.5438 23.5895 18.6708 23.3354L20.6708 19.3354C20.7871 19.1029 20.7746 18.8268 20.638 18.6057C20.5013 18.3846 20.2599 18.25 20 18.25H14.25V19.75H18.7865L17.5365 22.25H13.5078L11.6964 17.7215C11.5825 17.4367 11.3067 17.25 11 17.25H9.25Z" fill="white"/>
<path d="M13 25C12.4477 25 12 25.4477 12 26C12 26.5523 12.4477 27 13 27C13.5523 27 14 26.5523 14 26C14 25.4477 13.5523 25 13 25Z" fill="white"/>
<path d="M18 25C17.4477 25 17 25.4477 17 26C17 26.5523 17.4477 27 18 27C18.5523 27 19 26.5523 19 26C19 25.4477 18.5523 25 18 25Z" fill="white"/>
<path fill-rule="evenodd" clip-rule="evenodd" d="M11.0275 11H8.94999C8.71836 12.1411 7.70948 13 6.5 13C5.29052 13 4.28164 12.1411 4.05001 11H4V10H4.05001C4.28164 8.85888 5.29052 8 6.5 8C7.70948 8 8.71836 8.85888 8.94999 10H11.0275C11.2762 7.75002 13.1837 6 15.5 6C17.8163 6 19.7238 7.75002 19.9725 10H22.05C22.2816 8.85888 23.2905 8 24.5 8C25.7095 8 26.7184 8.85888 26.95 10H27V11H26.95C26.7184 12.1411 25.7095 13 24.5 13C23.2905 13 22.2816 12.1411 22.05 11H19.9725C19.7238 13.25 17.8163 15 15.5 15C13.1837 15 11.2762 13.25 11.0275 11ZM17.5057 11.976C17.3937 11.88 17.2203 11.832 16.9857 11.832H15.3777L16.5137 10.672C16.8283 10.3413 17.0497 10.0427 17.1777 9.776C17.311 9.504 17.3777 9.20533 17.3777 8.88C17.3777 8.56533 17.295 8.288 17.1297 8.048C16.9697 7.80267 16.7403 7.616 16.4417 7.488C16.143 7.35467 15.7963 7.288 15.4017 7.288C15.0977 7.288 14.7883 7.336 14.4737 7.432C14.1643 7.528 13.8843 7.66133 13.6337 7.832C13.5377 7.896 13.471 7.96533 13.4337 8.04C13.4017 8.11467 13.3857 8.21067 13.3857 8.328C13.3857 8.49333 13.431 8.63733 13.5217 8.76C13.6123 8.87733 13.7243 8.936 13.8577 8.936C13.911 8.936 13.9617 8.928 14.0097 8.912C14.0577 8.896 14.111 8.872 14.1697 8.84C14.2337 8.80267 14.2763 8.77867 14.2977 8.768L14.4577 8.688C14.6283 8.60267 14.7777 8.53867 14.9057 8.496C15.039 8.448 15.183 8.424 15.3377 8.424C15.5297 8.424 15.6763 8.472 15.7777 8.568C15.8843 8.664 15.9377 8.80267 15.9377 8.984C15.9377 9.29333 15.7617 9.632 15.4097 10L13.7137 11.768C13.5323 11.9547 13.4417 12.1627 13.4417 12.392C13.4417 12.568 13.4977 12.7147 13.6097 12.832C13.7217 12.944 13.8737 13 14.0657 13H16.9857C17.2203 13 17.3937 12.952 17.5057 12.856C17.623 12.76 17.6817 12.6107 17.6817 12.408C17.6817 12.2107 17.623 12.0667 17.5057 11.976Z" fill="white"/>
</g>
<defs>
<clipPath id="clip0_2006_5500">
<rect width="32" height="32" fill="white"/>
</clipPath>
</defs>
</svg>
