<svg width="32" height="32" viewBox="0 0 32 32" fill="none" xmlns="http://www.w3.org/2000/svg">
<g clip-path="url(#clip0_1968_5279)">
<path d="M4.30006 -1.62572e-05H27.7998C28.3578 0.00649097 28.9092 0.122532 29.4224 0.341483C29.9355 0.560432 30.4003 0.878001 30.7904 1.27605C31.1804 1.67411 31.4879 2.14485 31.6954 2.6614C31.9029 3.17794 32.0063 3.73018 31.9997 4.28656V27.7132C32.0037 28.2772 31.8952 28.8365 31.6805 29.3583C31.4658 29.8802 31.1492 30.3543 30.7492 30.7532C30.3491 31.152 29.8735 31.4675 29.35 31.6816C28.8265 31.8956 28.2655 32.0038 27.6998 31.9998H4.30006C3.15218 31.9687 2.0615 31.4936 1.25892 30.6748C0.456346 29.8562 0.00487903 28.7582 0.000106142 27.6135V4.28656C-0.00388312 3.72253 0.104615 3.16333 0.319294 2.64147C0.533974 2.1196 0.850555 1.64547 1.25063 1.24663C1.65072 0.847788 2.12633 0.532192 2.64983 0.31818C3.17332 0.104167 3.73426 -0.00399313 4.30006 -1.62572e-05Z" fill="#1D1D1D"/>
<path opacity="0.05" fill-rule="evenodd" clip-rule="evenodd" d="M8.60865 16.0873C8.57879 16.0577 8.54809 16.0252 8.51655 15.9893C7.77551 15.148 2.03238 7.57615 4.71868 4.86522C6.5673 2.99966 11.0918 4.85273 15.8168 8.53561C18.1134 6.45388 24.7544 2.27563 27.2278 4.77176C29.4202 6.98424 26.5589 12.2136 23.4484 15.9893C26.559 19.765 29.4204 24.9945 27.228 27.207C24.7769 29.6805 18.2333 25.5999 15.8803 23.5001C11.1323 27.2564 6.57546 29.1098 4.71854 27.3005C2.03224 24.683 7.68273 17.0177 8.51641 16.1763C8.54851 16.1439 8.57924 16.1143 8.60865 16.0873ZM8.14567 8.32406C8.10488 9.92974 9.14216 11.8618 10.6007 13.7928C10.5776 13.7461 10.5543 13.6991 10.5543 13.6524C11.2746 12.9254 12.3683 11.8719 13.3967 10.8825C11.4341 9.35004 9.51071 8.12741 8.15541 7.9033C8.15264 8.03813 8.14938 8.17833 8.14567 8.32406ZM10.5426 18.2207C11.009 18.6908 12.3384 20.0289 13.5626 21.2463C11.4416 22.9192 9.34897 24.2536 7.95036 24.3825C7.73484 23.9097 8.28569 21.1248 10.5426 18.2207ZM24.2163 24.1436C24.4237 22.5141 22.8941 20.3007 21.3385 18.3803C20.3032 19.5181 19.2268 20.5917 18.1396 21.5802C20.9652 23.7559 23.6765 24.3298 24.2163 24.1436ZM21.4723 13.7641C23.0655 11.9006 24.6511 9.84835 24.2988 8.14848C24.1405 8.14534 23.9745 8.14149 23.8006 8.13699C22.1969 8.09549 20.2645 9.15938 18.3277 10.6498C19.3977 11.6183 20.4556 12.6637 21.4723 13.7641ZM15.7567 12.8436C17.0774 13.9997 18.3146 15.1711 19.2931 16.1295C18.3135 17.0891 17.0745 18.2621 15.7521 19.4195C14.7138 18.4122 13.5703 17.2666 12.4924 16.0677C13.4737 15.0547 14.5879 13.9252 15.7567 12.8436Z" fill="white"/>
<path fill-rule="evenodd" clip-rule="evenodd" d="M3 7H29V24H3V7ZM4 8H28V23H4V8Z" fill="white"/>
<path d="M13.1094 16.81C13.2827 16.97 13.5094 17.05 13.7894 17.05C14.0694 17.05 14.2927 16.97 14.4594 16.81C14.6327 16.6433 14.7194 16.4233 14.7194 16.15V11.44H16.1294C16.4227 11.44 16.6394 11.38 16.7794 11.26C16.9261 11.1333 16.9994 10.9433 16.9994 10.69C16.9994 10.4367 16.9261 10.25 16.7794 10.13C16.6394 10.01 16.4227 9.95 16.1294 9.95H11.4494C11.1561 9.95 10.9361 10.01 10.7894 10.13C10.6494 10.25 10.5794 10.4367 10.5794 10.69C10.5794 10.9433 10.6494 11.1333 10.7894 11.26C10.9361 11.38 11.1561 11.44 11.4494 11.44H12.8594V16.15C12.8594 16.4233 12.9427 16.6433 13.1094 16.81Z" fill="white"/>
<path d="M18.6838 16.867C18.8051 16.979 18.9638 17.035 19.1598 17.035C19.3558 17.035 19.5121 16.979 19.6288 16.867C19.7501 16.7503 19.8108 16.5963 19.8108 16.405V13.108H20.7978C21.0031 13.108 21.1548 13.066 21.2528 12.982C21.3554 12.8933 21.4068 12.7603 21.4068 12.583C21.4068 12.4057 21.3554 12.275 21.2528 12.191C21.1548 12.107 21.0031 12.065 20.7978 12.065H17.5218C17.3164 12.065 17.1624 12.107 17.0598 12.191C16.9618 12.275 16.9128 12.4057 16.9128 12.583C16.9128 12.7603 16.9618 12.8933 17.0598 12.982C17.1624 13.066 17.3164 13.108 17.5218 13.108H18.5088V16.405C18.5088 16.5963 18.5671 16.7503 18.6838 16.867Z" fill="white"/>
<path d="M11 20H6V21H11V20Z" fill="white"/>
<path d="M13 20H19V21H13V20Z" fill="white"/>
<path d="M26 20H21V21H26V20Z" fill="white"/>
</g>
<defs>
<clipPath id="clip0_1968_5279">
<rect width="32" height="32" fill="white"/>
</clipPath>
</defs>
</svg>
