<svg width="32" height="32" viewBox="0 0 32 32" fill="none" xmlns="http://www.w3.org/2000/svg">
<g clip-path="url(#clip0_2032_5038)">
<path d="M4.30006 -1.62572e-05H27.7998C28.3578 0.00649097 28.9092 0.122532 29.4224 0.341483C29.9355 0.560432 30.4003 0.878001 30.7904 1.27605C31.1804 1.67411 31.4879 2.14485 31.6954 2.6614C31.9029 3.17794 32.0063 3.73018 31.9997 4.28656V27.7132C32.0037 28.2772 31.8952 28.8365 31.6805 29.3583C31.4658 29.8802 31.1492 30.3543 30.7492 30.7532C30.3491 31.152 29.8735 31.4675 29.35 31.6816C28.8265 31.8956 28.2655 32.0038 27.6998 31.9998H4.30006C3.15218 31.9687 2.0615 31.4936 1.25892 30.6748C0.456346 29.8562 0.00487903 28.7582 0.000106142 27.6135V4.28656C-0.00388312 3.72253 0.104615 3.16333 0.319294 2.64147C0.533974 2.1196 0.850555 1.64547 1.25063 1.24663C1.65072 0.847788 2.12633 0.532192 2.64983 0.31818C3.17332 0.104167 3.73426 -0.00399313 4.30006 -1.62572e-05Z" fill="#1D1D1D"/>
<path opacity="0.05" fill-rule="evenodd" clip-rule="evenodd" d="M8.60865 16.0873C8.57879 16.0577 8.54809 16.0252 8.51655 15.9893C7.77551 15.148 2.03238 7.57615 4.71868 4.86522C6.5673 2.99966 11.0918 4.85273 15.8168 8.53561C18.1134 6.45388 24.7544 2.27563 27.2278 4.77176C29.4202 6.98424 26.5589 12.2136 23.4484 15.9893C26.559 19.765 29.4204 24.9945 27.228 27.207C24.7769 29.6805 18.2333 25.5999 15.8803 23.5001C11.1323 27.2564 6.57546 29.1098 4.71854 27.3005C2.03224 24.683 7.68273 17.0177 8.51641 16.1763C8.54851 16.1439 8.57924 16.1143 8.60865 16.0873ZM8.14567 8.32406C8.10488 9.92974 9.14216 11.8618 10.6007 13.7928C10.5776 13.7461 10.5543 13.6991 10.5543 13.6524C11.2746 12.9254 12.3683 11.8719 13.3967 10.8825C11.4341 9.35004 9.51071 8.12741 8.15541 7.9033C8.15264 8.03813 8.14938 8.17833 8.14567 8.32406ZM10.5426 18.2207C11.009 18.6908 12.3384 20.0289 13.5626 21.2463C11.4416 22.9192 9.34897 24.2536 7.95036 24.3825C7.73484 23.9097 8.28569 21.1248 10.5426 18.2207ZM24.2163 24.1436C24.4237 22.5141 22.8941 20.3007 21.3385 18.3803C20.3032 19.5181 19.2268 20.5917 18.1396 21.5802C20.9652 23.7559 23.6765 24.3298 24.2163 24.1436ZM21.4723 13.7641C23.0655 11.9006 24.6511 9.84835 24.2988 8.14848C24.1405 8.14534 23.9745 8.14149 23.8006 8.13699C22.1969 8.09549 20.2645 9.15938 18.3277 10.6498C19.3977 11.6183 20.4556 12.6637 21.4723 13.7641ZM15.7567 12.8436C17.0774 13.9997 18.3146 15.1711 19.2931 16.1295C18.3135 17.0891 17.0745 18.2621 15.7521 19.4195C14.7138 18.4122 13.5703 17.2666 12.4924 16.0677C13.4737 15.0547 14.5879 13.9252 15.7567 12.8436Z" fill="white"/>
<rect x="4" y="20" width="24" height="4" fill="white" fill-opacity="0.5"/>
<path d="M4 20H20V24H4V20Z" fill="white"/>
<path d="M19 13.4974C19 14.0688 18.8028 14.5556 18.4085 14.9577C18.0211 15.3598 17.4965 15.6243 16.8345 15.7513V16.2698C16.8345 16.4885 16.7641 16.6649 16.6232 16.7989C16.4894 16.933 16.3134 17 16.0951 17C15.8768 17 15.6972 16.933 15.5563 16.7989C15.4225 16.6649 15.3556 16.4885 15.3556 16.2698V15.7937C14.5739 15.6949 13.9049 15.4656 13.3486 15.1058C13.2218 15.0282 13.1303 14.94 13.0739 14.8413C13.0246 14.7425 13 14.612 13 14.4497C13 14.2381 13.0599 14.0547 13.1796 13.8995C13.3063 13.7443 13.4542 13.6667 13.6232 13.6667C13.7077 13.6667 13.7923 13.6808 13.8768 13.709C13.9613 13.7372 14.0704 13.7901 14.2042 13.8677C14.5141 14.037 14.8028 14.157 15.0704 14.2275C15.338 14.2981 15.6232 14.3333 15.9261 14.3333C16.2993 14.3333 16.581 14.2734 16.7711 14.1534C16.9683 14.0265 17.0669 13.8395 17.0669 13.5926C17.0669 13.4444 17.007 13.3245 16.8873 13.2328C16.7746 13.134 16.6303 13.0564 16.4542 13C16.2852 12.9436 16.0352 12.873 15.7042 12.7884C15.1761 12.6543 14.743 12.5203 14.4049 12.3862C14.0669 12.2452 13.7746 12.03 13.5282 11.7407C13.2817 11.4444 13.1585 11.0494 13.1585 10.5556C13.1585 9.99118 13.3556 9.50088 13.75 9.08466C14.1444 8.66843 14.6655 8.3933 15.3134 8.25926V7.73016C15.3134 7.51852 15.3838 7.34568 15.5246 7.21164C15.6655 7.07055 15.8415 7 16.0528 7C16.2711 7 16.4472 7.06702 16.581 7.20106C16.7218 7.3351 16.7923 7.51146 16.7923 7.73016V8.22751C17.3768 8.31922 17.9472 8.54145 18.5035 8.89418C18.6303 8.97884 18.7183 9.07407 18.7676 9.17989C18.8239 9.27866 18.8521 9.40212 18.8521 9.55026C18.8521 9.7619 18.7887 9.94533 18.662 10.1005C18.5352 10.2557 18.3873 10.3333 18.2183 10.3333C18.1338 10.3333 18.0528 10.3192 17.9754 10.291C17.8979 10.2628 17.7852 10.2099 17.6373 10.1323C17.588 10.1041 17.4789 10.0476 17.3099 9.96296C17.1408 9.87125 16.9577 9.80071 16.7606 9.75132C16.5704 9.69489 16.3662 9.66667 16.1479 9.66667C15.831 9.66667 15.5739 9.73721 15.3768 9.87831C15.1796 10.0123 15.081 10.1958 15.081 10.4286C15.081 10.6543 15.1937 10.8236 15.419 10.9365C15.6444 11.0494 16 11.1623 16.4859 11.2751C17.007 11.3951 17.4331 11.522 17.7641 11.6561C18.1021 11.7901 18.3908 12.0053 18.6303 12.3016C18.8768 12.5979 19 12.9965 19 13.4974Z" fill="white"/>
</g>
<defs>
<clipPath id="clip0_2032_5038">
<rect width="32" height="32" fill="white"/>
</clipPath>
</defs>
</svg>
