<svg width="18" height="18" viewBox="0 0 18 18" fill="#F0F6FC" fill-opacity="0.6" xmlns="http://www.w3.org/2000/svg">
<path fill-rule="evenodd" clip-rule="evenodd" d="M17.4926 17.5279C16.1989 18.8234 12.7189 17.5369 9 14.6163C5.27662 17.5369 1.79665 18.8234 0.502928 17.5324C-0.790794 16.2368 0.493914 12.7475 3.41041 9.0189C0.498412 5.29031 -0.786296 1.80096 0.507425 0.505434C1.80115 -0.790094 5.28111 0.496407 9 3.41699C12.7189 0.496407 16.1989 -0.790094 17.4971 0.50092C18.7908 1.79645 17.5061 5.2858 14.5896 9.01439C17.5016 12.743 18.7863 16.2323 17.4926 17.5279ZM10.6724 13.1989C12.4511 14.4885 14.0621 15.2377 15.1035 15.2302C15.1125 14.1875 14.3687 12.5714 13.084 10.7884C12.7234 11.1856 12.3492 11.5829 11.9571 11.9756C11.5333 12.4044 11.1006 12.8107 10.6724 13.1989ZM10.6749 4.82808C12.4541 3.53842 14.0672 2.78983 15.108 2.79856C15.117 3.84131 14.3732 5.45733 13.0885 7.24037C12.7279 6.84314 12.3537 6.4459 11.9616 6.05318C11.5379 5.62886 11.1096 5.21808 10.6769 4.82988C10.6762 4.82928 10.6755 4.82868 10.6749 4.82808ZM2.80187 2.88884C2.79287 3.9287 3.53253 5.53869 4.8107 7.32484C5.19368 6.89623 5.61493 6.47276 6.03842 6.04867C6.4351 5.65595 6.83178 5.27677 7.22846 4.91565C5.45242 3.62914 3.84316 2.87982 2.80187 2.88884ZM8.90231 6.24858C8.44282 6.65011 7.97643 7.09172 7.52146 7.54733C7.03011 8.03484 6.57483 8.53139 6.15112 9.0189C6.57935 9.50642 7.03463 10.003 7.52146 10.4905C7.98027 10.9499 8.43908 11.3779 8.89341 11.7789C8.89588 11.7768 8.89836 11.7746 8.90083 11.7725C9.39216 11.3436 9.88803 10.8832 10.3794 10.3912C10.8347 9.93525 11.2674 9.47031 11.6686 9.00988C11.2674 8.54944 10.8347 8.08901 10.3794 7.62858C9.88852 7.13705 9.39315 6.67705 8.90231 6.24858ZM4.82442 10.6891L4.82134 10.6936C3.53574 12.4761 2.79253 14.0881 2.7973 15.1311C2.80032 15.131 2.80334 15.131 2.80638 15.1309C3.84316 15.1399 5.45692 14.3951 7.23298 13.1041C6.83178 12.743 6.4351 12.3683 6.04292 11.9711C5.6192 11.5468 5.21209 11.1179 4.82442 10.6891Z"/>
</svg>