<svg width="32" height="32" viewBox="0 0 32 32" fill="none" xmlns="http://www.w3.org/2000/svg">
<g clip-path="url(#clip0)">
<path d="M4.30006 -1.62572e-05H27.7998C28.3578 0.00649097 28.9092 0.122532 29.4224 0.341483C29.9355 0.560432 30.4003 0.878001 30.7904 1.27605C31.1804 1.67411 31.4879 2.14485 31.6954 2.6614C31.9029 3.17794 32.0063 3.73018 31.9997 4.28656V27.7132C32.0037 28.2772 31.8952 28.8365 31.6805 29.3583C31.4658 29.8802 31.1492 30.3543 30.7492 30.7532C30.3491 31.152 29.8735 31.4675 29.35 31.6816C28.8265 31.8956 28.2655 32.0038 27.6998 31.9998H4.30006C3.15218 31.9687 2.0615 31.4936 1.25892 30.6748C0.456346 29.8562 0.00487903 28.7582 0.000106142 27.6135V4.28656C-0.00388312 3.72253 0.104615 3.16333 0.319294 2.64147C0.533974 2.1196 0.850555 1.64547 1.25063 1.24663C1.65072 0.847788 2.12633 0.532192 2.64983 0.31818C3.17332 0.104167 3.73426 -0.00399313 4.30006 -1.62572e-05Z" fill="#1D1D1D"/>
<path opacity="0.05" fill-rule="evenodd" clip-rule="evenodd" d="M8.60865 16.0873C8.57879 16.0577 8.54809 16.0252 8.51655 15.9893C7.77551 15.148 2.03238 7.57615 4.71868 4.86522C6.5673 2.99966 11.0918 4.85273 15.8168 8.53561C18.1134 6.45388 24.7544 2.27563 27.2278 4.77176C29.4202 6.98424 26.5589 12.2136 23.4484 15.9893C26.559 19.765 29.4204 24.9945 27.228 27.207C24.7769 29.6805 18.2333 25.5999 15.8803 23.5001C11.1323 27.2564 6.57546 29.1098 4.71854 27.3005C2.03224 24.683 7.68273 17.0177 8.51641 16.1763C8.54851 16.1439 8.57924 16.1143 8.60865 16.0873ZM8.14567 8.32406C8.10488 9.92974 9.14216 11.8618 10.6007 13.7928C10.5776 13.7461 10.5543 13.6991 10.5543 13.6524C11.2746 12.9254 12.3683 11.8719 13.3967 10.8825C11.4341 9.35004 9.51071 8.12741 8.15541 7.9033C8.15264 8.03813 8.14938 8.17833 8.14567 8.32406ZM10.5426 18.2207C11.009 18.6908 12.3384 20.0289 13.5626 21.2463C11.4416 22.9192 9.34897 24.2536 7.95036 24.3825C7.73484 23.9097 8.28569 21.1248 10.5426 18.2207ZM24.2163 24.1436C24.4237 22.5141 22.8941 20.3007 21.3385 18.3803C20.3032 19.5181 19.2268 20.5917 18.1396 21.5802C20.9652 23.7559 23.6765 24.3298 24.2163 24.1436ZM21.4723 13.7641C23.0655 11.9006 24.6511 9.84835 24.2988 8.14848C24.1405 8.14534 23.9745 8.14149 23.8006 8.13699C22.1969 8.09549 20.2645 9.15938 18.3277 10.6498C19.3977 11.6183 20.4556 12.6637 21.4723 13.7641ZM15.7567 12.8436C17.0774 13.9997 18.3146 15.1711 19.2931 16.1295C18.3135 17.0891 17.0745 18.2621 15.7521 19.4195C14.7138 18.4122 13.5703 17.2666 12.4924 16.0677C13.4737 15.0547 14.5879 13.9252 15.7567 12.8436Z" fill="white"/>
<path d="M11.3622 17.392C11.1382 17.1093 10.7969 16.968 10.3382 16.968C10.0715 16.968 9.83152 17.016 9.61819 17.112C9.40485 17.208 9.22619 17.3493 9.08219 17.536V15.936C9.08219 15.7493 9.01819 15.6 8.89019 15.488C8.76219 15.376 8.59419 15.32 8.38619 15.32C8.16752 15.32 7.99152 15.3813 7.85819 15.504C7.72485 15.6213 7.65819 15.7733 7.65819 15.96V20.392C7.65819 20.5947 7.72219 20.7547 7.85019 20.872C7.97819 20.9893 8.15152 21.048 8.37019 21.048C8.58885 21.048 8.76219 20.9893 8.89019 20.872C9.01819 20.7547 9.08219 20.5947 9.08219 20.392V18.808C9.08219 18.5787 9.14352 18.3973 9.26619 18.264C9.39419 18.1253 9.56485 18.056 9.77819 18.056C10.1089 18.056 10.2742 18.248 10.2742 18.632V20.392C10.2742 20.5947 10.3382 20.7547 10.4662 20.872C10.5942 20.9893 10.7675 21.048 10.9862 21.048C11.2049 21.048 11.3782 20.9893 11.5062 20.872C11.6342 20.7547 11.6982 20.5947 11.6982 20.392V18.664C11.6982 18.0933 11.5862 17.6693 11.3622 17.392Z" fill="white"/>
<path d="M15.3659 20.512C15.3659 20.2133 15.1873 20.0533 14.8299 20.032L14.5979 20.016C14.5019 20.0107 14.4219 19.9733 14.3579 19.904C14.2993 19.8347 14.2699 19.7493 14.2699 19.648V18.112H14.7099C15.1366 18.112 15.3499 17.936 15.3499 17.584C15.3499 17.2373 15.1366 17.064 14.7099 17.064H14.2699V16.544C14.2699 16.3413 14.2059 16.1813 14.0779 16.064C13.9499 15.9413 13.7766 15.88 13.5579 15.88C13.3393 15.88 13.1659 15.9413 13.0379 16.064C12.9099 16.1813 12.8459 16.3413 12.8459 16.544V17.064H12.6139C12.1873 17.064 11.9739 17.2373 11.9739 17.584C11.9739 17.936 12.1873 18.112 12.6139 18.112H12.8459V19.528C12.8459 19.9813 12.9686 20.336 13.2139 20.592C13.4646 20.8427 13.8299 20.9867 14.3099 21.024L14.5339 21.04C14.8006 21.056 15.0059 21.0187 15.1499 20.928C15.2939 20.8373 15.3659 20.6987 15.3659 20.512Z" fill="white"/>
<path d="M21.7681 17.36C21.5335 17.0987 21.2001 16.968 20.7681 16.968C20.4855 16.968 20.2321 17.032 20.0081 17.16C19.7841 17.2827 19.6055 17.4507 19.4721 17.664C19.2801 17.2 18.8988 16.968 18.3281 16.968C17.7895 16.968 17.3895 17.1653 17.1281 17.56C17.1228 17.3733 17.0561 17.232 16.9281 17.136C16.8055 17.0347 16.6508 16.984 16.4641 16.984C16.2668 16.984 16.0961 17.04 15.9521 17.152C15.8135 17.2587 15.7441 17.416 15.7441 17.624V20.392C15.7441 20.6107 15.8108 20.776 15.9441 20.888C16.0828 20.9947 16.2535 21.048 16.4561 21.048C16.6588 21.048 16.8268 20.9947 16.9601 20.888C17.0988 20.776 17.1681 20.6107 17.1681 20.392V18.808C17.1681 18.5733 17.2215 18.3893 17.3281 18.256C17.4401 18.1227 17.5895 18.056 17.7761 18.056C17.9201 18.056 18.0295 18.0987 18.1041 18.184C18.1788 18.2693 18.2161 18.4187 18.2161 18.632V20.392C18.2161 20.6107 18.2828 20.776 18.4161 20.888C18.5548 20.9947 18.7255 21.048 18.9281 21.048C19.1361 21.048 19.3068 20.9947 19.4401 20.888C19.5735 20.776 19.6401 20.6107 19.6401 20.392V18.808C19.6401 18.5733 19.6961 18.3893 19.8081 18.256C19.9201 18.1227 20.0695 18.056 20.2561 18.056C20.4001 18.056 20.5095 18.0987 20.5841 18.184C20.6588 18.2693 20.6961 18.4187 20.6961 18.632V20.392C20.6961 20.6107 20.7628 20.776 20.8961 20.888C21.0348 20.9947 21.2055 21.048 21.4081 21.048C21.6108 21.048 21.7788 20.9947 21.9121 20.888C22.0508 20.776 22.1201 20.6107 22.1201 20.392V18.664C22.1201 18.0507 22.0028 17.616 21.7681 17.36Z" fill="white"/>
<path d="M23.1238 20.888C23.2625 20.9947 23.4331 21.048 23.6358 21.048C23.8385 21.048 24.0065 20.9947 24.1398 20.888C24.2785 20.776 24.3478 20.6107 24.3478 20.392V15.984C24.3478 15.7653 24.2785 15.6 24.1398 15.488C24.0065 15.376 23.8385 15.32 23.6358 15.32C23.4331 15.32 23.2625 15.376 23.1238 15.488C22.9905 15.6 22.9238 15.7653 22.9238 15.984V20.392C22.9238 20.6107 22.9905 20.776 23.1238 20.888Z" fill="white"/>
<path fill-rule="evenodd" clip-rule="evenodd" d="M4 11H28V25H4V11ZM5 12H27V24H5V12Z" fill="white"/>
<rect x="4" y="7" width="24" height="2" fill="white" fill-opacity="0.5"/>
</g>
<defs>
<clipPath id="clip0">
<rect width="32" height="32" fill="white"/>
</clipPath>
</defs>
</svg>
