<svg width="32" height="32" viewBox="0 0 32 32" fill="none" xmlns="http://www.w3.org/2000/svg">
<g clip-path="url(#clip0)">
<path d="M4.30006 -1.62572e-05H27.7998C28.3578 0.00649097 28.9092 0.122532 29.4224 0.341483C29.9355 0.560432 30.4003 0.878001 30.7904 1.27605C31.1804 1.67411 31.4879 2.14485 31.6954 2.6614C31.9029 3.17794 32.0063 3.73018 31.9997 4.28656V27.7132C32.0037 28.2772 31.8952 28.8365 31.6805 29.3583C31.4658 29.8802 31.1492 30.3543 30.7492 30.7532C30.3491 31.152 29.8735 31.4675 29.35 31.6816C28.8265 31.8956 28.2655 32.0038 27.6998 31.9998H4.30006C3.15218 31.9687 2.0615 31.4936 1.25892 30.6748C0.456346 29.8562 0.00487903 28.7582 0.000106142 27.6135V4.28656C-0.00388312 3.72253 0.104615 3.16333 0.319294 2.64147C0.533974 2.1196 0.850555 1.64547 1.25063 1.24663C1.65072 0.847788 2.12633 0.532192 2.64983 0.31818C3.17332 0.104167 3.73426 -0.00399313 4.30006 -1.62572e-05Z" fill="#1D1D1D"/>
<path opacity="0.05" fill-rule="evenodd" clip-rule="evenodd" d="M8.60865 16.0873C8.57879 16.0577 8.54809 16.0252 8.51655 15.9893C7.77551 15.148 2.03238 7.57615 4.71868 4.86522C6.5673 2.99966 11.0918 4.85273 15.8168 8.53561C18.1134 6.45388 24.7544 2.27563 27.2278 4.77176C29.4202 6.98424 26.5589 12.2136 23.4484 15.9893C26.559 19.765 29.4204 24.9945 27.228 27.207C24.7769 29.6805 18.2333 25.5999 15.8803 23.5001C11.1323 27.2564 6.57546 29.1098 4.71854 27.3005C2.03224 24.683 7.68273 17.0177 8.51641 16.1763C8.54851 16.1439 8.57924 16.1143 8.60865 16.0873ZM8.14567 8.32406C8.10488 9.92974 9.14216 11.8618 10.6007 13.7928C10.5776 13.7461 10.5543 13.6991 10.5543 13.6524C11.2746 12.9254 12.3683 11.8719 13.3967 10.8825C11.4341 9.35004 9.51071 8.12741 8.15541 7.9033C8.15264 8.03813 8.14938 8.17833 8.14567 8.32406ZM10.5426 18.2207C11.009 18.6908 12.3384 20.0289 13.5626 21.2463C11.4416 22.9192 9.34897 24.2536 7.95036 24.3825C7.73484 23.9097 8.28569 21.1248 10.5426 18.2207ZM24.2163 24.1436C24.4237 22.5141 22.8941 20.3007 21.3385 18.3803C20.3032 19.5181 19.2268 20.5917 18.1396 21.5802C20.9652 23.7559 23.6765 24.3298 24.2163 24.1436ZM21.4723 13.7641C23.0655 11.9006 24.6511 9.84835 24.2988 8.14848C24.1405 8.14534 23.9745 8.14149 23.8006 8.13699C22.1969 8.09549 20.2645 9.15938 18.3277 10.6498C19.3977 11.6183 20.4556 12.6637 21.4723 13.7641ZM15.7567 12.8436C17.0774 13.9997 18.3146 15.1711 19.2931 16.1295C18.3135 17.0891 17.0745 18.2621 15.7521 19.4195C14.7138 18.4122 13.5703 17.2666 12.4924 16.0677C13.4737 15.0547 14.5879 13.9252 15.7567 12.8436Z" fill="white"/>
<path d="M9.81603 20.848C9.9547 20.976 10.136 21.04 10.36 21.04C10.584 21.04 10.7627 20.976 10.896 20.848C11.0347 20.7147 11.104 20.5387 11.104 20.32V16.552H12.232C12.4667 16.552 12.64 16.504 12.752 16.408C12.8694 16.3067 12.928 16.1547 12.928 15.952C12.928 15.7493 12.8694 15.6 12.752 15.504C12.64 15.408 12.4667 15.36 12.232 15.36H8.48803C8.25336 15.36 8.07736 15.408 7.96003 15.504C7.84803 15.6 7.79203 15.7493 7.79203 15.952C7.79203 16.1547 7.84803 16.3067 7.96003 16.408C8.07736 16.504 8.25336 16.552 8.48803 16.552H9.61603V20.32C9.61603 20.5387 9.6827 20.7147 9.81603 20.848Z" fill="white"/>
<path fill-rule="evenodd" clip-rule="evenodd" d="M16.1503 19.88C16.0756 19.784 15.9769 19.736 15.8543 19.736C15.7903 19.736 15.7183 19.7493 15.6383 19.776C15.5636 19.7973 15.4863 19.824 15.4063 19.856C15.2676 19.9093 15.1423 19.952 15.0303 19.984C14.9183 20.0107 14.7956 20.024 14.6623 20.024C14.4116 20.024 14.2223 19.968 14.0943 19.856C13.9663 19.744 13.8836 19.56 13.8463 19.304H15.9583C16.0649 19.304 16.1449 19.272 16.1983 19.208C16.2569 19.1387 16.2863 19.0427 16.2863 18.92C16.2863 18.5253 16.2089 18.1813 16.0543 17.888C15.9049 17.5947 15.6916 17.368 15.4143 17.208C15.1369 17.048 14.8143 16.968 14.4463 16.968C14.0676 16.968 13.7263 17.056 13.4223 17.232C13.1236 17.4027 12.8889 17.6453 12.7183 17.96C12.5529 18.2693 12.4703 18.6213 12.4703 19.016C12.4703 19.432 12.5583 19.7947 12.7343 20.104C12.9103 20.4133 13.1609 20.6507 13.4863 20.816C13.8116 20.9813 14.1929 21.064 14.6303 21.064C14.8383 21.064 15.0649 21.0347 15.3103 20.976C15.5609 20.912 15.7769 20.8347 15.9583 20.744C16.1663 20.632 16.2703 20.4693 16.2703 20.256C16.2703 20.1013 16.2303 19.976 16.1503 19.88ZM14.0383 18.112C14.1503 17.9893 14.2996 17.928 14.4863 17.928C14.8596 17.928 15.0623 18.1627 15.0943 18.632H13.8383C13.8596 18.4027 13.9263 18.2293 14.0383 18.112Z" fill="white"/>
<path d="M20.7752 20.424C20.7752 20.2533 20.7085 20.1013 20.5752 19.968L19.5832 18.976L20.4952 18.08C20.6285 17.9413 20.6952 17.7867 20.6952 17.616C20.6952 17.4507 20.6312 17.3067 20.5032 17.184C20.3805 17.056 20.2338 16.992 20.0632 16.992C19.8872 16.992 19.7298 17.064 19.5912 17.208L18.7272 18.08L17.8712 17.208C17.7378 17.0587 17.5805 16.984 17.3992 16.984C17.2285 16.984 17.0792 17.048 16.9512 17.176C16.8285 17.304 16.7672 17.4533 16.7672 17.624C16.7672 17.7947 16.8338 17.9467 16.9672 18.08L17.8792 18.976L16.8872 19.968C16.7538 20.1013 16.6872 20.2533 16.6872 20.424C16.6872 20.5893 16.7512 20.736 16.8792 20.864C17.0072 20.992 17.1565 21.056 17.3272 21.056C17.5032 21.056 17.6605 20.984 17.7992 20.84L18.7272 19.864L19.6632 20.84C19.8018 20.984 19.9592 21.056 20.1352 21.056C20.3058 21.056 20.4552 20.992 20.5832 20.864C20.7112 20.736 20.7752 20.5893 20.7752 20.424Z" fill="white"/>
<path d="M24.2058 20.512C24.2058 20.2133 24.0271 20.0533 23.6698 20.032L23.4378 20.016C23.3418 20.0107 23.2618 19.9733 23.1978 19.904C23.1391 19.8347 23.1098 19.7493 23.1098 19.648V18.112H23.5498C23.9764 18.112 24.1898 17.936 24.1898 17.584C24.1898 17.2373 23.9764 17.064 23.5498 17.064H23.1098V16.544C23.1098 16.3413 23.0458 16.1813 22.9178 16.064C22.7898 15.9413 22.6164 15.88 22.3978 15.88C22.1791 15.88 22.0058 15.9413 21.8778 16.064C21.7498 16.1813 21.6858 16.3413 21.6858 16.544V17.064H21.4538C21.0271 17.064 20.8138 17.2373 20.8138 17.584C20.8138 17.936 21.0271 18.112 21.4538 18.112H21.6858V19.528C21.6858 19.9813 21.8084 20.336 22.0538 20.592C22.3044 20.8427 22.6698 20.9867 23.1498 21.024L23.3738 21.04C23.6404 21.056 23.8458 21.0187 23.9898 20.928C24.1338 20.8373 24.2058 20.6987 24.2058 20.512Z" fill="white"/>
<path fill-rule="evenodd" clip-rule="evenodd" d="M4 11H28V25H4V11ZM5 12H27V24H5V12Z" fill="white"/>
<rect x="4" y="7" width="24" height="2" fill="white" fill-opacity="0.5"/>
</g>
<defs>
<clipPath id="clip0">
<rect width="32" height="32" fill="white"/>
</clipPath>
</defs>
</svg>
