<svg width="32" height="32" viewBox="0 0 32 32" fill="none" xmlns="http://www.w3.org/2000/svg">
<g clip-path="url(#clip0_1968_5297)">
<path d="M4.30006 -1.62572e-05H27.7998C28.3578 0.00649097 28.9092 0.122532 29.4224 0.341483C29.9355 0.560432 30.4003 0.878001 30.7904 1.27605C31.1804 1.67411 31.4879 2.14485 31.6954 2.6614C31.9029 3.17794 32.0063 3.73018 31.9997 4.28656V27.7132C32.0037 28.2772 31.8952 28.8365 31.6805 29.3583C31.4658 29.8802 31.1492 30.3543 30.7492 30.7532C30.3491 31.152 29.8735 31.4675 29.35 31.6816C28.8265 31.8956 28.2655 32.0038 27.6998 31.9998H4.30006C3.15218 31.9687 2.0615 31.4936 1.25892 30.6748C0.456346 29.8562 0.00487903 28.7582 0.000106142 27.6135V4.28656C-0.00388312 3.72253 0.104615 3.16333 0.319294 2.64147C0.533974 2.1196 0.850555 1.64547 1.25063 1.24663C1.65072 0.847788 2.12633 0.532192 2.64983 0.31818C3.17332 0.104167 3.73426 -0.00399313 4.30006 -1.62572e-05Z" fill="#1D1D1D"/>
<path opacity="0.05" fill-rule="evenodd" clip-rule="evenodd" d="M8.60865 16.0873C8.57879 16.0577 8.54809 16.0252 8.51655 15.9893C7.77551 15.148 2.03238 7.57615 4.71868 4.86522C6.5673 2.99966 11.0918 4.85273 15.8168 8.53561C18.1134 6.45388 24.7544 2.27563 27.2278 4.77176C29.4202 6.98424 26.5589 12.2136 23.4484 15.9893C26.559 19.765 29.4204 24.9945 27.228 27.207C24.7769 29.6805 18.2333 25.5999 15.8803 23.5001C11.1323 27.2564 6.57546 29.1098 4.71854 27.3005C2.03224 24.683 7.68273 17.0177 8.51641 16.1763C8.54851 16.1439 8.57924 16.1143 8.60865 16.0873ZM8.14567 8.32406C8.10488 9.92974 9.14216 11.8618 10.6007 13.7928C10.5776 13.7461 10.5543 13.6991 10.5543 13.6524C11.2746 12.9254 12.3683 11.8719 13.3967 10.8825C11.4341 9.35004 9.51071 8.12741 8.15541 7.9033C8.15264 8.03813 8.14938 8.17833 8.14567 8.32406ZM10.5426 18.2207C11.009 18.6908 12.3384 20.0289 13.5626 21.2463C11.4416 22.9192 9.34897 24.2536 7.95036 24.3825C7.73484 23.9097 8.28569 21.1248 10.5426 18.2207ZM24.2163 24.1436C24.4237 22.5141 22.8941 20.3007 21.3385 18.3803C20.3032 19.5181 19.2268 20.5917 18.1396 21.5802C20.9652 23.7559 23.6765 24.3298 24.2163 24.1436ZM21.4723 13.7641C23.0655 11.9006 24.6511 9.84835 24.2988 8.14848C24.1405 8.14534 23.9745 8.14149 23.8006 8.13699C22.1969 8.09549 20.2645 9.15938 18.3277 10.6498C19.3977 11.6183 20.4556 12.6637 21.4723 13.7641ZM15.7567 12.8436C17.0774 13.9997 18.3146 15.1711 19.2931 16.1295C18.3135 17.0891 17.0745 18.2621 15.7521 19.4195C14.7138 18.4122 13.5703 17.2666 12.4924 16.0677C13.4737 15.0547 14.5879 13.9252 15.7567 12.8436Z" fill="white"/>
<path fill-rule="evenodd" clip-rule="evenodd" d="M16.0001 7.39996C13.4596 7.39996 11.4001 9.45945 11.4001 12C11.4001 14.5405 13.4596 16.6 16.0001 16.6C18.5406 16.6 20.6001 14.5405 20.6001 12C20.6001 9.45945 18.5406 7.39996 16.0001 7.39996ZM12.6001 12C12.6001 10.1222 14.1223 8.59996 16.0001 8.59996C17.8779 8.59996 19.4001 10.1222 19.4001 12C19.4001 13.8777 17.8779 15.4 16.0001 15.4C14.1223 15.4 12.6001 13.8777 12.6001 12Z" fill="white"/>
<path d="M8.00011 24C8.5671 24.1963 8.56701 24.1965 8.56692 24.1968L8.56926 24.1903C8.57178 24.1834 8.57612 24.1717 8.58235 24.1555C8.59481 24.1231 8.61482 24.0728 8.64294 24.0072C8.69923 23.8758 8.78775 23.6837 8.913 23.4511C9.16407 22.9849 9.55937 22.362 10.1333 21.7403C11.2727 20.5059 13.1208 19.2667 16.0001 19.2667C18.8794 19.2667 20.7275 20.5059 21.8669 21.7403C22.4408 22.362 22.8361 22.9849 23.0872 23.4511C23.2125 23.6837 23.301 23.8758 23.3573 24.0072C23.3854 24.0728 23.4054 24.1231 23.4179 24.1555C23.4241 24.1717 23.4284 24.1834 23.431 24.1903L23.4333 24.1968C23.4332 24.1965 23.4331 24.1963 24.0001 24C24.5671 23.8037 24.567 23.8034 24.5669 23.8031L24.566 23.8005L24.5641 23.7952L24.5583 23.7791C24.5535 23.7658 24.5467 23.7476 24.5379 23.7247C24.5203 23.679 24.4946 23.6147 24.4602 23.5345C24.3915 23.3741 24.2877 23.1496 24.1438 22.8822C23.8564 22.3484 23.4055 21.6379 22.7487 20.9263C21.4265 19.494 19.2747 18.0667 16.0001 18.0667C12.7256 18.0667 10.5737 19.494 9.25153 20.9263C8.59469 21.6379 8.14384 22.3484 7.85644 22.8822C7.71247 23.1496 7.60868 23.3741 7.53997 23.5345C7.50559 23.6147 7.47992 23.679 7.46233 23.7247C7.45354 23.7476 7.44676 23.7658 7.44192 23.7791L7.4361 23.7952L7.43425 23.8005L7.4336 23.8023C7.43348 23.8027 7.43312 23.8037 8.00011 24Z" fill="white"/>
</g>
<defs>
<clipPath id="clip0_1968_5297">
<rect width="32" height="32" fill="white"/>
</clipPath>
</defs>
</svg>
