<svg width="32" height="32" viewBox="0 0 32 32" fill="none" xmlns="http://www.w3.org/2000/svg">
<g clip-path="url(#clip0_1968_5294)">
<path d="M4.30006 -1.62572e-05H27.7998C28.3578 0.00649097 28.9092 0.122532 29.4224 0.341483C29.9355 0.560432 30.4003 0.878001 30.7904 1.27605C31.1804 1.67411 31.4879 2.14485 31.6954 2.6614C31.9029 3.17794 32.0063 3.73018 31.9997 4.28656V27.7132C32.0037 28.2772 31.8952 28.8365 31.6805 29.3583C31.4658 29.8802 31.1492 30.3543 30.7492 30.7532C30.3491 31.152 29.8735 31.4675 29.35 31.6816C28.8265 31.8956 28.2655 32.0038 27.6998 31.9998H4.30006C3.15218 31.9687 2.0615 31.4936 1.25892 30.6748C0.456346 29.8562 0.00487903 28.7582 0.000106142 27.6135V4.28656C-0.00388312 3.72253 0.104615 3.16333 0.319294 2.64147C0.533974 2.1196 0.850555 1.64547 1.25063 1.24663C1.65072 0.847788 2.12633 0.532192 2.64983 0.31818C3.17332 0.104167 3.73426 -0.00399313 4.30006 -1.62572e-05Z" fill="#1D1D1D"/>
<path opacity="0.05" fill-rule="evenodd" clip-rule="evenodd" d="M8.60865 16.0873C8.57879 16.0577 8.54809 16.0252 8.51655 15.9893C7.77551 15.148 2.03238 7.57615 4.71868 4.86522C6.5673 2.99966 11.0918 4.85273 15.8168 8.53561C18.1134 6.45388 24.7544 2.27563 27.2278 4.77176C29.4202 6.98424 26.5589 12.2136 23.4484 15.9893C26.559 19.765 29.4204 24.9945 27.228 27.207C24.7769 29.6805 18.2333 25.5999 15.8803 23.5001C11.1323 27.2564 6.57546 29.1098 4.71854 27.3005C2.03224 24.683 7.68273 17.0177 8.51641 16.1763C8.54851 16.1439 8.57924 16.1143 8.60865 16.0873ZM8.14567 8.32406C8.10488 9.92974 9.14216 11.8618 10.6007 13.7928C10.5776 13.7461 10.5543 13.6991 10.5543 13.6524C11.2746 12.9254 12.3683 11.8719 13.3967 10.8825C11.4341 9.35004 9.51071 8.12741 8.15541 7.9033C8.15264 8.03813 8.14938 8.17833 8.14567 8.32406ZM10.5426 18.2207C11.009 18.6908 12.3384 20.0289 13.5626 21.2463C11.4416 22.9192 9.34897 24.2536 7.95036 24.3825C7.73484 23.9097 8.28569 21.1248 10.5426 18.2207ZM24.2163 24.1436C24.4237 22.5141 22.8941 20.3007 21.3385 18.3803C20.3032 19.5181 19.2268 20.5917 18.1396 21.5802C20.9652 23.7559 23.6765 24.3298 24.2163 24.1436ZM21.4723 13.7641C23.0655 11.9006 24.6511 9.84835 24.2988 8.14848C24.1405 8.14534 23.9745 8.14149 23.8006 8.13699C22.1969 8.09549 20.2645 9.15938 18.3277 10.6498C19.3977 11.6183 20.4556 12.6637 21.4723 13.7641ZM15.7567 12.8436C17.0774 13.9997 18.3146 15.1711 19.2931 16.1295C18.3135 17.0891 17.0745 18.2621 15.7521 19.4195C14.7138 18.4122 13.5703 17.2666 12.4924 16.0677C13.4737 15.0547 14.5879 13.9252 15.7567 12.8436Z" fill="white"/>
<path d="M5 6H27V21H22V20H26V7H6V20H10V21H5V6Z" fill="white"/>
<path d="M8 10H20V9H8V10Z" fill="white"/>
<path d="M8 13H20V12H8V13Z" fill="white"/>
<path d="M20 16H8V15H20V16Z" fill="white"/>
<path d="M22 10H24V9H22V10Z" fill="white"/>
<path d="M24 13H22V12H24V13Z" fill="white"/>
<path d="M22 16H24V15H22V16Z" fill="white"/>
<path d="M18.4085 25.9577C18.8028 25.5556 19 25.0688 19 24.4974C19 23.9965 18.8768 23.5979 18.6303 23.3016C18.3908 23.0053 18.1021 22.7901 17.7641 22.6561C17.4331 22.522 17.007 22.3951 16.4859 22.2751C16 22.1623 15.6444 22.0494 15.419 21.9365C15.1937 21.8236 15.081 21.6543 15.081 21.4286C15.081 21.1958 15.1796 21.0123 15.3768 20.8783C15.5739 20.7372 15.831 20.6667 16.1479 20.6667C16.3662 20.6667 16.5704 20.6949 16.7606 20.7513C16.9577 20.8007 17.1408 20.8713 17.3099 20.963C17.4789 21.0476 17.588 21.1041 17.6373 21.1323C17.7852 21.2099 17.8979 21.2628 17.9754 21.291C18.0528 21.3192 18.1338 21.3333 18.2183 21.3333C18.3873 21.3333 18.5352 21.2557 18.662 21.1005C18.7887 20.9453 18.8521 20.7619 18.8521 20.5503C18.8521 20.4021 18.8239 20.2787 18.7676 20.1799C18.7183 20.0741 18.6303 19.9788 18.5035 19.8942C17.9472 19.5414 17.3768 19.3192 16.7923 19.2275V18.7302C16.7923 18.5115 16.7218 18.3351 16.581 18.2011C16.4472 18.067 16.2711 18 16.0528 18C15.8415 18 15.6655 18.0705 15.5246 18.2116C15.3838 18.3457 15.3134 18.5185 15.3134 18.7302V19.2593C14.6655 19.3933 14.1444 19.6684 13.75 20.0847C13.3556 20.5009 13.1585 20.9912 13.1585 21.5556C13.1585 22.0494 13.2817 22.4444 13.5282 22.7407C13.7746 23.03 14.0669 23.2451 14.4049 23.3862C14.743 23.5203 15.1761 23.6543 15.7042 23.7884C16.0352 23.873 16.2852 23.9436 16.4542 24C16.6303 24.0564 16.7746 24.134 16.8873 24.2328C17.007 24.3245 17.0669 24.4444 17.0669 24.5926C17.0669 24.8395 16.9683 25.0265 16.7711 25.1534C16.581 25.2734 16.2993 25.3333 15.9261 25.3333C15.6232 25.3333 15.338 25.2981 15.0704 25.2275C14.8028 25.157 14.5141 25.037 14.2042 24.8677C14.0704 24.7901 13.9613 24.7372 13.8768 24.709C13.7923 24.6808 13.7077 24.6667 13.6232 24.6667C13.4542 24.6667 13.3063 24.7443 13.1796 24.8995C13.0599 25.0547 13 25.2381 13 25.4497C13 25.612 13.0246 25.7425 13.0739 25.8413C13.1303 25.94 13.2218 26.0282 13.3486 26.1058C13.9049 26.4656 14.5739 26.6949 15.3556 26.7937V27.2698C15.3556 27.4885 15.4225 27.6649 15.5563 27.7989C15.6972 27.933 15.8768 28 16.0951 28C16.3134 28 16.4894 27.933 16.6232 27.7989C16.7641 27.6649 16.8345 27.4885 16.8345 27.2698V26.7513C17.4965 26.6243 18.0211 26.3598 18.4085 25.9577Z" fill="white"/>
</g>
<defs>
<clipPath id="clip0_1968_5294">
<rect width="32" height="32" fill="white"/>
</clipPath>
</defs>
</svg>
