<svg width="32" height="32" viewBox="0 0 32 32" fill="none" xmlns="http://www.w3.org/2000/svg">
<g clip-path="url(#clip0_1968_5295)">
<path d="M4.30006 -1.62572e-05H27.7998C28.3578 0.00649097 28.9092 0.122532 29.4224 0.341483C29.9355 0.560432 30.4003 0.878001 30.7904 1.27605C31.1804 1.67411 31.4879 2.14485 31.6954 2.6614C31.9029 3.17794 32.0063 3.73018 31.9997 4.28656V27.7132C32.0037 28.2772 31.8952 28.8365 31.6805 29.3583C31.4658 29.8802 31.1492 30.3543 30.7492 30.7532C30.3491 31.152 29.8735 31.4675 29.35 31.6816C28.8265 31.8956 28.2655 32.0038 27.6998 31.9998H4.30006C3.15218 31.9687 2.0615 31.4936 1.25892 30.6748C0.456346 29.8562 0.00487903 28.7582 0.000106142 27.6135V4.28656C-0.00388312 3.72253 0.104615 3.16333 0.319294 2.64147C0.533974 2.1196 0.850555 1.64547 1.25063 1.24663C1.65072 0.847788 2.12633 0.532192 2.64983 0.31818C3.17332 0.104167 3.73426 -0.00399313 4.30006 -1.62572e-05Z" fill="#1D1D1D"/>
<path opacity="0.05" fill-rule="evenodd" clip-rule="evenodd" d="M8.60865 16.0873C8.57879 16.0577 8.54809 16.0252 8.51655 15.9893C7.77551 15.148 2.03238 7.57615 4.71868 4.86522C6.5673 2.99966 11.0918 4.85273 15.8168 8.53561C18.1134 6.45388 24.7544 2.27563 27.2278 4.77176C29.4202 6.98424 26.5589 12.2136 23.4484 15.9893C26.559 19.765 29.4204 24.9945 27.228 27.207C24.7769 29.6805 18.2333 25.5999 15.8803 23.5001C11.1323 27.2564 6.57546 29.1098 4.71854 27.3005C2.03224 24.683 7.68273 17.0177 8.51641 16.1763C8.54851 16.1439 8.57924 16.1143 8.60865 16.0873ZM8.14567 8.32406C8.10488 9.92974 9.14216 11.8618 10.6007 13.7928C10.5776 13.7461 10.5543 13.6991 10.5543 13.6524C11.2746 12.9254 12.3683 11.8719 13.3967 10.8825C11.4341 9.35004 9.51071 8.12741 8.15541 7.9033C8.15264 8.03813 8.14938 8.17833 8.14567 8.32406ZM10.5426 18.2207C11.009 18.6908 12.3384 20.0289 13.5626 21.2463C11.4416 22.9192 9.34897 24.2536 7.95036 24.3825C7.73484 23.9097 8.28569 21.1248 10.5426 18.2207ZM24.2163 24.1436C24.4237 22.5141 22.8941 20.3007 21.3385 18.3803C20.3032 19.5181 19.2268 20.5917 18.1396 21.5802C20.9652 23.7559 23.6765 24.3298 24.2163 24.1436ZM21.4723 13.7641C23.0655 11.9006 24.6511 9.84835 24.2988 8.14848C24.1405 8.14534 23.9745 8.14149 23.8006 8.13699C22.1969 8.09549 20.2645 9.15938 18.3277 10.6498C19.3977 11.6183 20.4556 12.6637 21.4723 13.7641ZM15.7567 12.8436C17.0774 13.9997 18.3146 15.1711 19.2931 16.1295C18.3135 17.0891 17.0745 18.2621 15.7521 19.4195C14.7138 18.4122 13.5703 17.2666 12.4924 16.0677C13.4737 15.0547 14.5879 13.9252 15.7567 12.8436Z" fill="white"/>
<path d="M5 8V22H15V21H6V9H26V21H25V22H27V8H5Z" fill="white"/>
<path d="M19 12H8V11H19V12Z" fill="white"/>
<path d="M8 15H10V14H8V15Z" fill="white"/>
<path d="M11 15H15V14H11V15Z" fill="white"/>
<path d="M8 17V18H12V17H8Z" fill="white"/>
<path d="M22.4085 24.9577C22.8028 24.5556 23 24.0688 23 23.4974C23 22.9965 22.8768 22.5979 22.6303 22.3016C22.3908 22.0053 22.1021 21.7901 21.7641 21.6561C21.4331 21.522 21.007 21.3951 20.4859 21.2751C20 21.1623 19.6444 21.0494 19.419 20.9365C19.1937 20.8236 19.081 20.6543 19.081 20.4286C19.081 20.1958 19.1796 20.0123 19.3768 19.8783C19.5739 19.7372 19.831 19.6667 20.1479 19.6667C20.3662 19.6667 20.5704 19.6949 20.7606 19.7513C20.9577 19.8007 21.1408 19.8713 21.3099 19.963C21.4789 20.0476 21.588 20.1041 21.6373 20.1323C21.7852 20.2099 21.8979 20.2628 21.9754 20.291C22.0528 20.3192 22.1338 20.3333 22.2183 20.3333C22.3873 20.3333 22.5352 20.2557 22.662 20.1005C22.7887 19.9453 22.8521 19.7619 22.8521 19.5503C22.8521 19.4021 22.8239 19.2787 22.7676 19.1799C22.7183 19.0741 22.6303 18.9788 22.5035 18.8942C21.9472 18.5414 21.3768 18.3192 20.7923 18.2275V17.7302C20.7923 17.5115 20.7218 17.3351 20.581 17.2011C20.4472 17.067 20.2711 17 20.0528 17C19.8415 17 19.6655 17.0705 19.5246 17.2116C19.3838 17.3457 19.3134 17.5185 19.3134 17.7302V18.2593C18.6655 18.3933 18.1444 18.6684 17.75 19.0847C17.3556 19.5009 17.1585 19.9912 17.1585 20.5556C17.1585 21.0494 17.2817 21.4444 17.5282 21.7407C17.7746 22.03 18.0669 22.2452 18.4049 22.3862C18.743 22.5203 19.1761 22.6543 19.7042 22.7884C20.0352 22.873 20.2852 22.9436 20.4542 23C20.6303 23.0564 20.7746 23.134 20.8873 23.2328C21.007 23.3245 21.0669 23.4444 21.0669 23.5926C21.0669 23.8395 20.9683 24.0265 20.7711 24.1534C20.581 24.2734 20.2993 24.3333 19.9261 24.3333C19.6232 24.3333 19.338 24.2981 19.0704 24.2275C18.8028 24.157 18.5141 24.037 18.2042 23.8677C18.0704 23.7901 17.9613 23.7372 17.8768 23.709C17.7923 23.6808 17.7077 23.6667 17.6232 23.6667C17.4542 23.6667 17.3063 23.7443 17.1796 23.8995C17.0599 24.0547 17 24.2381 17 24.4497C17 24.612 17.0246 24.7425 17.0739 24.8413C17.1303 24.94 17.2218 25.0282 17.3486 25.1058C17.9049 25.4656 18.5739 25.6949 19.3556 25.7937V26.2698C19.3556 26.4885 19.4225 26.6649 19.5563 26.7989C19.6972 26.933 19.8768 27 20.0951 27C20.3134 27 20.4894 26.933 20.6232 26.7989C20.7641 26.6649 20.8345 26.4885 20.8345 26.2698V25.7513C21.4965 25.6243 22.0211 25.3598 22.4085 24.9577Z" fill="white"/>
</g>
<defs>
<clipPath id="clip0_1968_5295">
<rect width="32" height="32" fill="white"/>
</clipPath>
</defs>
</svg>
