<?xml version="1.0" encoding="UTF-8"?> <svg xmlns="http://www.w3.org/2000/svg" width="64.03" height="59.97" viewBox="0 0 64.03 59.97" fill="#3bb5e8" fill-rule="#3bb5e8"><metadata><?xpacket begin="﻿" id="W5M0MpCehiHzreSzNTczkc9d"?><?xpacket end="w"?></metadata><defs> </defs><path id="Shape-2" class="cls-1" d="M1272.75,1315.36c-0.02-.13-0.06-0.26-0.09-0.39-0.35-4.39-4.24-8.17-7.83-10.28-1.85-1.08-3.62-1.58-5.61-.67-1.6.74-2.64,3.07-3.57,4.9-6.19.1-11.92-10.58-6.41-14.77a10.4,10.4,0,0,0,1.79-1.68,6.222,6.222,0,0,0,1.35-1.37c1.72-2.37.36-6.19-1.22-8.22a19.852,19.852,0,0,0-8.24-5.96c-2.71-1.06-4.66.56-6.4,2.36-2.12,1.49-3.75,4.74-4.48,6.72-1.52,4.12-1.31,9.97.15,14.9a32.462,32.462,0,0,0,.26,3.28c0.27,1.25.56,2.48,0.87,3.68,0.14,0.4.28,0.8,0.45,1.19a39.7,39.7,0,0,0,7.99,11.06,20.186,20.186,0,0,0,3.48,2.84c0.07,0.01.15,0.01,0.23,0.02,0.23,0.04.45,0.07,0.68,0.11,5.32,3.3,15.26,4.3,21.01.42,0.17-.02.33-0.03,0.5-0.05,0.16-.14.33-0.28,0.5-0.44a14.368,14.368,0,0,0,2.71-2.42A7,7,0,0,0,1272.75,1315.36Zm-3.27,1.56a5.811,5.811,0,0,1-.82,1.34c-0.74-.17-1.57-0.22-2.15-0.35-1.47-.33-2.64-0.75-3.23-2.17h-0.01a0.427,0.427,0,0,0-.76-0.1c-1.09,1.54.7,3.34,2.08,3.85a12.576,12.576,0,0,0,2.27.63c-0.07.07-.15,0.14-0.22,0.21a7.957,7.957,0,0,1-.69.53c-0.97.28-1.92,0.6-2.89,0.91-0.87.09-1.75,0.1-2.65,0.15a0.826,0.826,0,0,0-.78.67c-0.41.05-.82,0.1-1.24,0.11a1.763,1.763,0,0,1-.23,0c0.01-.01.01-0.03,0.02-0.04a0.839,0.839,0,0,0-1.14-1.14,4.6,4.6,0,0,0-1.03,1.08c-0.75-.08-1.5-0.19-2.25-0.32a0.916,0.916,0,0,0-1.38-1.19,7.988,7.988,0,0,0-.66.76c-0.71-.22-1.39-0.47-2.03-0.73a3.563,3.563,0,0,1,.8-0.65,0.8,0.8,0,0,0-.81-1.38,6.711,6.711,0,0,0-1.74,1.21c-0.21-.11-0.43-0.22-0.61-0.33a5.6,5.6,0,0,1-.48-0.3c0.08-.12.16-0.24,0.25-0.35,0.33-.41.68-0.81,0.99-1.23a0.544,0.544,0,0,0-.74-0.74c-0.52.36-1.06,0.63-1.56,1.03a3.415,3.415,0,0,0-.33.33c-0.58-.45-1.14-0.93-1.67-1.43,0.08-.09.15-0.18,0.23-0.26a19.779,19.779,0,0,0,1.55-1.75c0.38-.46-0.14-1.31-0.69-0.89-0.71.54-1.61,0.83-2.35,1.35a0.755,0.755,0,0,0-.14.11c-0.3-.34-0.61-0.67-0.89-1.02a5.026,5.026,0,0,1,2.41-2.09c1.03-.35.59-1.98-0.44-1.63a11.219,11.219,0,0,0-2.5,1.05,3.9,3.9,0,0,0-.85.78c-0.31-.48-0.62-0.96-0.9-1.46,0.15-.2.31-0.41,0.48-0.61a4.953,4.953,0,0,1,1.66-1.4c0.59-.24.38-1.17-0.26-0.98a6.858,6.858,0,0,0-2.26.96c-0.16.12-.33,0.26-0.49,0.4-0.38-.78-0.74-1.58-1.05-2.39a10.1,10.1,0,0,1,.84-1.17,3.835,3.835,0,0,1,1.72-1.33c0.49-.09.33-0.79-0.11-0.82a3.842,3.842,0,0,0-2.71.73c-0.16.11-.32,0.24-0.48,0.37-0.09-.33-0.18-0.66-0.26-0.99-0.07-.08-0.15-0.15-0.21-0.23a2.529,2.529,0,0,1-.13-0.22,1.846,1.846,0,0,1,.92-0.91,0.312,0.312,0,0,0,0-.6,1.792,1.792,0,0,0-.83.02,2.313,2.313,0,0,0-.45.21c-0.13-.94-0.29-1.87-0.47-2.8a13.152,13.152,0,0,1,1.66-.98,8.625,8.625,0,0,1,1.63-1.04,0.536,0.536,0,0,0-.14-1.05c-0.72.07-1.29,0.78-1.97,0.82a4.6,4.6,0,0,0-1.52.6c-0.2-.96-0.41-1.92-0.6-2.86-0.05-.26-0.09-0.52-0.13-0.79,0.02-.28.05-0.57,0.08-0.85,0.96-.5,1.67-1.47,2.79-1.82a0.481,0.481,0,0,0,0-.92,3.761,3.761,0,0,0-2.52.51c0.02-.17.04-0.34,0.07-0.51,0.29-1.8,1.01-5.72,2.68-7.91,0-.01,0-0.02-0.01-0.02a3,3,0,0,1,.16-1.06,6.5,6.5,0,0,0,1.43-1.04c1.95-1.87,3.25-1.46,5.42-.08,3.27,2.1,7.5,5.85,4.74,9.57a2.291,2.291,0,0,1-.28-0.07c-1.25-.34-2.56-0.22-3.83-0.52-0.63-.15-2.41-0.86-2.64-1.47a0.474,0.474,0,0,0-.15-0.21,3.762,3.762,0,0,1-.67.12,0.394,0.394,0,0,0-.05.2c-0.04,1.41,1.47,1.76,2.37,2.51a5.392,5.392,0,0,0,3.55.74c-0.15.11-.3,0.21-0.47,0.33-0.3.17-.6,0.37-0.89,0.57a16.648,16.648,0,0,1-1.5.91c-0.49.27-1.06,0.34-1.54,0.64a0.805,0.805,0,0,0,0,1.38,2.924,2.924,0,0,0,.89.36,7.78,7.78,0,0,0,.29,3.71c0.11,3.79,2,7.13,4.54,9.98a7.782,7.782,0,0,0,3.82,2.51,1.517,1.517,0,0,0,.34.15,16.907,16.907,0,0,0,1.99.25,0.037,0.037,0,0,0,.03.01c0.01,0.05.01,0.1,0.02,0.15,0.29,1.16,2.25,1.26,2.46,0a4.432,4.432,0,0,1,.66-1.67c0.16-.2.32-0.4,0.48-0.61a1.659,1.659,0,0,1,.06-0.16,21.289,21.289,0,0,0,2.17-2.83,2,2,0,0,1,.69-0.33c0.11-.03.22-0.03,0.32-0.05,0.05,0,.09-0.01.13-0.01a2.452,2.452,0,0,1,.27-0.02,2.607,2.607,0,0,1,.48.05,0.637,0.637,0,0,1,.07.02,2.594,2.594,0,0,1,1.23.69,1.71,1.71,0,0,1,.11.14c0.07,0.04.14,0.08,0.2,0.12a11.019,11.019,0,0,1,3.95,3.93C1268.57,1313.55,1270.28,1315.08,1269.48,1316.92Zm-25.22-27.74a12.23,12.23,0,0,1-2.4-1.97,0.2,0.2,0,0,0-.28.28,8.284,8.284,0,0,0,2.52,1.96A0.157,0.157,0,0,0,1244.26,1289.18Zm44.36-13.64c-4.66-7-11.94-9.19-19.96-9.46-4.22-.14-13.26-0.27-17.47,3.34-0.04.01-.08,0.01-0.13,0.02a6.518,6.518,0,0,0-3.55,2.73c-1.16,1.65,1.1,3.34,2.54,2.51a2.02,2.02,0,0,0,.33-0.03c0.15-.04.3-0.07,0.46-0.11a0.9,0.9,0,0,0,.67-0.72c4.73-3.79,11.42-3.63,17.15-3.49,7.61,0.19,13.55,3.06,17.26,9.86,2.94,5.42,4.96,13.7,3.61,19.78-1.11,5-4.35,8.44-7.78,11.77-0.72.57-1.4,1.17-2.03,1.65-1.24.94-2.88,1.72-3.03,3.44a1.228,1.228,0,0,0,.26.9,2.45,2.45,0,0,0,3.22,1.41c7.32-3.12,12.81-11.87,14.42-19.4S1292.78,1281.79,1288.62,1275.54Zm-21.32,21.13c-1.2.01-2.41,0.08-3.62,0.09,2.95-2.91,5.27-6.56,3.77-10.72-1.93-5.31-9.09-4.6-11.63-.34-0.92,1.52,1.4,2.61,2.21,1.55,2.12-1.43,6.03-2.71,6.02,1.24,0,3.36-3.76,6.13-6.14,7.91a2.068,2.068,0,0,0,.49,3.73c2.89,0.98,5.91.58,8.9,0.5C1269.85,1300.57,1269.86,1296.66,1267.3,1296.67Zm14.27-3.99q-0.96-.06-1.92-0.06c-0.03-.6-0.07-1.2-0.08-1.81-0.05-3.2.12-6.58-.72-9.69a1.083,1.083,0,0,0-1.07-.88,0.935,0.935,0,0,0-.9-0.22c-1.69.5-2.91,2.41-3.9,3.78a13.752,13.752,0,0,0-2.15,4.01l-0.06.09c-0.97,1.55-2.71,3.91-1.93,5.88,0.82,2.05,2.52,2.7,4.66,2.89,0.79,0.07,1.6.12,2.41,0.15,0.08,1.29.15,2.56,0.19,3.8,0.06,2.61,4.12,2.62,4.05,0-0.03-1.26-.12-2.52-0.21-3.78,0.55-.02,1.09-0.04,1.63-0.07A2.046,2.046,0,0,0,1281.57,1292.68Zm-8.78.12c-0.1-.77,1.01-2.26,1.37-2.92,0.48-.89.92-1.82,1.4-2.72-0.07,1.81-.01,3.64.09,5.47C1274.67,1292.57,1272.74,1292.44,1272.79,1292.8Z" transform="translate(-1230.97 -1266.03)"></path></svg> 