<?xml version="1.0" encoding="UTF-8"?> <!-- Generator: Adobe Illustrator 18.0.0, SVG Export Plug-In . SVG Version: 6.00 Build 0) --> <svg xmlns="http://www.w3.org/2000/svg" xmlns:xlink="http://www.w3.org/1999/xlink" version="1.1" id="Capa_1" x="0px" y="0px" viewBox="0 0 86.009 86.009" style="enable-background:new 0 0 86.009 86.009;" xml:space="preserve" width="512px" height="512px"> <g> <path d="M76.957,31.394c-1.236-3.764-10.846-3.481-13.584-3.76c-1.548-0.158-3.095-0.302-4.647-0.436 c3.089-1.288,6.059-2.774,8.691-4.005c6.188-2.887,8.17-8.57,4.333-14.075c-2.569-3.684-10.327-8.817-14.575-5.143 c-2.999,2.594-4.961,6.151-7.194,9.39c-1.064,1.544-2.137,3.092-3.196,4.652c-0.257,0.29-0.473,0.61-0.639,0.963 c-0.558,0.831-1.121,1.655-1.656,2.499c-2.459-7.563-6.84-15.81-12.787-20.091c-4.971-3.58-10.78,0.346-14.471,5.14 c-4.262,2.79-9.201,9.65-6.104,13.351c3.727,4.454,7.718,5.039,13.278,6.157c1.38,0.279,2.746,0.552,4.112,0.832 c-5.621,0.465-11.216,1.274-16.764,2.561c-0.048,0.009-0.086-0.001-0.136,0.013c-0.024,0.007-0.043,0.025-0.067,0.034 c-0.326,0.077-0.657,0.142-0.981,0.222c-0.465,0.115-0.541,0.546-0.379,0.874c-0.977,1.43-1.264,3.771-1.523,5.092 c-0.711,3.637-1.024,7.75-0.662,11.408c0.126,1.28,1.178,1.856,2.129,1.747c0.552,1.178,1.612,1.959,2.948,2.492 c-1.314,4.46-0.334,10.329,0.331,14.479c0.685,4.271,1.108,8.641,1.419,12.947c0.113,1.556,0.698,2.456,1.97,3.014 c2.05,5.741,17.169,3.472,21.075,3.514c9.591,0.102,23.373,2.403,32.367-1.639c0.929-0.417,1.197-1.312,1.04-2.167 c2.106-3.869,1.578-9.615,1.945-13.765c0.479-5.464,1.744-11.782,0.21-17.239c0.329-0.063,0.663-0.116,0.991-0.184 c1.152,0.607,2.706,0.342,2.972-1.279C78.29,43.61,78.667,36.593,76.957,31.394z M68.96,13.202 c0.207,0.656,0.205,1.273,0.063,1.866c-2.729,1.77-5.345,3.799-8.011,5.674c-0.36,0.253-0.887,0.598-1.399,0.997 c-3.246,1.263-6.787,2.396-9.714,3.515c1.059-0.615,2.098-1.261,3.087-1.938c0.068-0.048,0.136-0.111,0.206-0.164 c0.176,0.337,0.564,0.531,1.001,0.285c1.473-0.827,2.623-2.123,3.881-3.246c3.007-2.683,6.711-5.57,10.555-6.802 C68.763,13.348,68.859,13.274,68.96,13.202z M56.933,10.938c-0.709,0.55-1.449,1.054-2.18,1.57 c0.219-0.312,0.437-0.625,0.656-0.935c1.472-2.068,2.767-3.643,4.287-4.242c-0.623,0.379-1.167,0.855-1.546,1.438 c-0.186,0.284,0.176,0.624,0.457,0.457c0.747-0.449,1.391-1.029,2.15-1.471c0.369-0.215,0.759-0.411,1.152-0.598 c0.655,0.136,1.364,0.421,2.148,0.896c-2.109,1.045-4.14,2.883-5.943,4.032c-1.14,0.729-2.328,1.413-3.503,2.123 c1.012-0.78,2.009-1.582,2.974-2.422C58.047,11.386,57.419,10.563,56.933,10.938z M50.051,19.1c2.807-1.339,5.304-3.3,7.767-5.174 c1.914-1.459,4.523-4.196,7.031-5.35c1.28,0.917,2.226,1.777,2.913,2.593c-3.129,1.367-5.525,3.981-8.329,5.921 c0.154-0.532-0.121-1.171-0.684-1.351c2.643-1.682,4.525-4.198,7.569-5.321c0.308-0.113,0.18-0.606-0.137-0.495 c-3.096,1.076-5.262,3.481-7.927,5.282c-2.799,1.892-6.109,3.311-8.007,6.259c-0.025,0.038-0.01,0.07-0.023,0.107 c-1.061,0.568-2.17,1.054-3.201,1.63C48.081,21.875,49.058,20.468,50.051,19.1z M41.332,24.344c-0.04,0.05-0.081,0.099-0.12,0.149 c-1.103-0.777-2.229-1.524-3.326-2.247c0.471-0.659,0.85-1.354,0.815-2.207c-0.019-0.459-0.679-0.565-0.807-0.109 c-0.183,0.639-0.697,1.056-1.157,1.502c-0.01,0.01-0.019,0.021-0.028,0.031c-0.333-0.222-0.669-0.447-0.989-0.667 c-0.419-0.288-0.826-0.623-1.235-0.945c1.1-0.867,2.254-1.675,3.334-2.5c0.696-0.531,0.027-1.733-0.7-1.199 c-1.252,0.92-2.6,1.789-3.861,2.729c-0.504-0.421-1.008-0.845-1.515-1.269c1.635-1.572,3.356-3.026,5.24-4.141 C38.734,16.942,40.278,20.804,41.332,24.344z M38.361,30.096c-0.07,0.03-0.143,0.039-0.217,0.091 c-1.463,1.008-2.961,1.972-4.366,3.051c-0.459,0.353-0.88,0.697-1.254,1.067c-0.011-1.479-0.076-2.942-0.385-4.345 C34.214,29.929,36.291,29.98,38.361,30.096z M31.8,23.198c-0.059-0.157-0.205-0.279-0.387-0.326 c0.217-0.287,0.438-0.566,0.678-0.831c0.677,0.543,1.361,1.077,2.056,1.6C33.365,23.47,32.58,23.329,31.8,23.198z M24.482,4.427 c-2.011,1.656-3.964,3.377-5.927,5.099c-0.733,0.643-1.537,1.276-2.344,1.927C18.354,8.389,21.343,5.544,24.482,4.427z M16.943,17.935c-0.063,0.142-0.088,0.302-0.089,0.459c-0.455,0.273-0.901,0.559-1.305,0.909c-0.255-0.18-0.51-0.345-0.762-0.553 c0.364-0.462,0.67-1.017,0.956-1.42c0.679-0.954,1.549-2.068,2.809-2.174c0.587-0.048,0.604-0.936,0-0.925 c-1.244,0.024-2.202,0.75-3.106,1.537c-0.526,0.458-1.001,0.978-1.481,1.487c-0.06,0.063-0.127,0.126-0.193,0.189 c-0.07-0.252-0.102-0.531-0.104-0.825c1.885-1.611,3.574-3.585,5.406-5.215c2.689-2.395,5.264-4.898,8.118-7.103 c0.137-0.106,0.213-0.233,0.268-0.369c1.258,0.046,2.503,0.458,3.695,1.296c-0.718,0.517-1.305,1.147-1.927,1.851 c-1.311,1.488-2.978,2.694-4.409,4.076c-1.678,1.618-3.304,3.248-5.172,4.653C18.552,16.634,17.539,16.587,16.943,17.935z M18.447,20.772c-0.296-0.106-0.599-0.191-0.889-0.322c0.583-0.392,1.123-0.883,1.877-1.01c0.267-0.045,0.191-0.448-0.06-0.455 c-0.216-0.005-0.48,0.052-0.755,0.119c0.053-0.084,0.082-0.18,0.085-0.288c2.109-1.491,4.037-2.761,5.931-4.682 c1.232-1.248,2.453-2.5,3.744-3.686c1.277-1.173,2.874-2.9,4.427-3.724c0.345,0.392,0.688,0.813,1.018,1.3 c0.308,0.449,0.61,0.936,0.915,1.427c-0.131-0.069-0.284-0.091-0.421,0.034c-0.37,0.337-0.83,0.523-1.199,0.86 c-0.324,0.297,0.145,0.734,0.473,0.473c0.395-0.314,0.873-0.472,1.27-0.786c0.079-0.064,0.1-0.143,0.109-0.22 c0.472,0.781,0.934,1.616,1.39,2.472c-2.002,1.159-3.648,2.764-5.361,4.309c-0.081,0.073-0.167,0.14-0.247,0.21 c-1.512-1.201-3.092-2.284-4.883-2.889c-1.508-0.509-2.211,2.028-0.655,2.38c0.142,0.032,0.278,0.099,0.416,0.151 c-0.407,0.342-0.809,0.69-1.202,1.056c-0.219,0.205-0.456,0.397-0.688,0.593c0.047-0.167,0.076-0.34,0.056-0.523 c-0.037-0.34-0.49-0.426-0.605-0.082c-0.194,0.577-1.098,0.654-1.603,0.767c-0.577,0.128-0.806,0.42-1.259,0.748 C19.667,19.489,18.804,20.027,18.447,20.772z M26.112,20.291c-1.154-0.323-2.408,0.523-3.057,1.583 c-0.682-0.114-1.351-0.228-2.002-0.363c-0.021-0.059-0.052-0.104-0.093-0.147c0.031-0.042,0.059-0.086,0.093-0.126 c0.373-0.452,0.864-0.852,1.102-1.398c0.101-0.267,0.121-0.3,0.059-0.099c0.057-0.042,0.109-0.084,0.165-0.125 c-0.124,0.25-0.214,0.523-0.244,0.835c-0.043,0.437,0.473,0.612,0.797,0.458c0.137-0.064,0.271-0.117,0.381-0.222 c0.082-0.077,0.093-0.191,0.071-0.3c0.136-0.218,0.256-0.446,0.396-0.685c0.333-0.575,0.968-0.942,1.423-1.423 c0.442-0.468,0.896-0.919,1.37-1.35c0.688,0.458,1.344,1.099,1.971,1.751c-0.733,0.622-1.441,1.267-2.065,1.992 C26.412,20.499,26.295,20.343,26.112,20.291z M26.91,22.486c0.883-0.873,1.771-1.787,2.67-2.712 c0.383,0.409,0.753,0.795,1.097,1.095c0.019,0.016,0.036,0.028,0.055,0.044c-0.661,0.544-1.26,1.144-1.683,1.87 C28.307,22.681,27.584,22.582,26.91,22.486z M11.721,46.292c0.003-0.098-0.001-0.198,0.001-0.296 c0.08,0.022,0.155,0.052,0.253,0.052h2.856c0.958,0,1.911,0.037,2.773-0.437c0.368-0.203,0.368-0.774,0-0.976 c-0.752-0.414-1.562-0.437-2.404-0.437h-3.226c-0.096,0-0.17,0.028-0.249,0.051c-0.018-1.073-0.042-2.145-0.052-3.217 c0.094,0.03,0.186,0.059,0.301,0.056c0.855-0.019,1.713-0.038,2.569-0.056c0.758-0.016,1.549,0.022,2.2-0.423 c0.313-0.213,0.313-0.627,0-0.841c-0.651-0.445-1.442-0.407-2.2-0.422c-0.856-0.019-1.714-0.038-2.569-0.056 c-0.104-0.004-0.186,0.025-0.271,0.05c0.009-0.299-0.002-0.6,0.014-0.898c0.017-0.303,0.063-1.065,0.125-1.96 c0.128,0.378,0.445,0.678,0.953,0.649c0.769-0.045,1.539-0.091,2.309-0.135c0.748-0.043,1.578-0.031,2.148-0.574 c0.19-0.18,0.19-0.511,0-0.69c-0.569-0.543-1.399-0.531-2.148-0.574c-0.771-0.045-1.54-0.09-2.309-0.135 c-0.448-0.025-0.734,0.214-0.887,0.53c0.035-0.487,0.073-0.976,0.115-1.436c0.568,0.294,1.322,0.254,1.88-0.222 c-0.036,0.033,0.784-0.035,0.79-0.035c0.379-0.033,0.758-0.065,1.139-0.097c0.762-0.064,1.466-0.21,2.171-0.511 c0.354-0.151,0.354-0.78,0-0.931c-0.574-0.246-1.167-0.428-1.792-0.479c-0.379-0.033-0.76-0.065-1.139-0.096 c-0.179-0.015-1.073,0.014-1.169-0.067c-0.241-0.205-0.521-0.328-0.805-0.381c0-0.003,0.003-0.005,0.005-0.007 c0.182,0.07,0.354,0.124,0.477,0.121c3.905-0.027,7.712-0.579,11.588-1.021c1.58-0.18,3.168-0.293,4.756-0.364 c-1.404,2.828-0.988,7.466-0.812,10.161c0.15,2.273,0.387,5.564,1.927,7.564c-1.149,0.02-2.3,0.037-3.447,0.076 C24.094,47.946,13.942,50.245,11.721,46.292z M31.711,80.705c-0.817,0.008-1.938,0.1-3.171,0.191 c-0.012-0.184-0.109-0.363-0.257-0.466c-1.052-0.729-2.417-0.274-3.499,0.138c-0.392,0.15-0.758,0.316-1.12,0.483 c-1.54-0.051-2.989-0.239-4.07-0.726c0.036-0.194,0.029-0.391,0.013-0.584c0.063,0.004,0.112,0.035,0.18,0.026 c0.571-0.066,1.194-0.069,1.729-0.285c0.463-0.188,0.833-0.384,1.301-0.51c0.539-0.144,0.539-0.944,0-1.089 c-0.468-0.126-0.838-0.322-1.301-0.509c-0.17-0.069-0.359-0.093-0.545-0.128c-0.418-0.601-1.399-0.71-2.033-0.323 c-0.091-0.936-0.128-1.903-0.214-2.481c-0.011-0.063-0.018-0.125-0.027-0.187c0.727-0.039,1.448-0.131,2.177-0.149 c0.625-0.014,1.366,0.213,1.963,0.008c0.201-0.071,0.404-0.225,0.448-0.449c0.444-2.297-3.489-1.751-4.731-1.764 c-0.074,0-0.127,0.029-0.194,0.038c-0.069-0.488-0.142-0.977-0.212-1.464c0.268-0.026,0.535-0.052,0.804-0.074 c0.442-0.033,0.786,0.104,1.21,0.2c0.761,0.176,1.714-0.718,1.132-1.47c-0.915-1.186-2.192-0.914-3.509-0.881 c-0.166-1.032-0.322-2.065-0.527-3.09c0.077,0.053,0.156,0.099,0.247,0.117c0.065,0.02,0.081,0.02,0.107,0.024 c0.067,0.099,0.135,0.198,0.211,0.289c0.3,0.297,0.715,0.321,1.11,0.345c0.735,0.046,1.714,0.08,2.204-0.549 c0.274-0.352,0.274-0.703,0-1.054c-0.482-0.621-1.508-0.64-2.336-0.539c-0.113-0.254-0.342-0.466-0.659-0.501 c-0.507-0.059-0.872,0.244-1.099,0.643c-0.372-2.005-0.629-4.042-0.789-6.091c0.711,0.073,1.421,0.157,2.136,0.22 c0.493,0.044,0.974,0.065,1.46-0.043c0.391-0.087,0.66-0.239,1.063-0.165c0.2,0.036,0.469-0.053,0.505-0.288 c0.16-1.016-0.642-1.592-1.607-1.583c-1.244,0.011-2.47-0.171-3.703-0.301c-0.066-1.219-0.118-2.437-0.156-3.651 c4.92,0.689,11.379-0.434,14.116-0.485c1.059-0.019,2.135-0.012,3.204-0.01c-1.232,9.27-1.152,20.086,0.708,29.156 C33.224,80.7,32.468,80.698,31.711,80.705z M35.938,51.547c0.778,0.01,1.568,0.038,2.351,0.053 c-0.443,0.338-0.857,0.762-1.327,1.084c-0.234,0.163-0.519,0.344-0.814,0.539C36.074,52.665,36.021,52.1,35.938,51.547z M36.444,55.64c0.422-0.39,0.82-0.79,1.196-1.073c0.482-0.367,1.083-0.668,1.471-1.138c0.367-0.443,0.598-0.917,1.136-1.195 c0.227-0.117,0.312-0.354,0.29-0.583c0.773,0.02,1.542,0.031,2.316,0.052c-0.642,0.643-1.22,1.308-1.673,1.758 c-1.201,1.195-3.126,2.239-4.569,3.543C36.56,56.547,36.496,56.098,36.444,55.64z M36.964,60.388 c0.188-0.179,0.356-0.379,0.536-0.613c0.098-0.125,0.086-0.262,0.041-0.393c1.312-1.6,2.91-2.869,4.329-4.403 c0.309-0.331,1.828-2.209,2.891-3.231c1.804,0.048,3.607,0.085,5.416,0.119c-1.849,2.257-5.328,3.475-7.515,5.469 c-1.068,0.977-2.516,1.604-3.525,2.613c-0.71,0.712-1.362,1.569-2.013,2.396C37.069,61.692,37.024,61.038,36.964,60.388z M49.183,47.773c0.066-0.066,0.134-0.133,0.197-0.2c0.647-0.657,1.281-1.434,1.954-2.165c-0.084,0.267-0.152,0.531-0.257,0.804 c-0.224,0.584-0.297,1.099-0.253,1.577C50.27,47.781,49.733,47.779,49.183,47.773z M50.062,77.816 c-0.273,0.166-0.548,0.326-0.806,0.5c-0.862,0.58-1.651,1.45-2.278,2.269c-0.015,0.018-0.017,0.037-0.028,0.054 c-0.048,0-0.101-0.002-0.149-0.002c0.027-0.039,0.061-0.06,0.083-0.105c0.691-1.108,1.821-1.832,2.612-2.86 c0.236-0.307,0.454-0.625,0.675-0.94C50.132,77.091,50.098,77.455,50.062,77.816z M51.545,63.63 c-0.048,3.679-0.628,7.299-1.106,10.931c-0.36,0.37-0.798,0.715-1.076,1.036c-0.436,0.503-0.847,1.01-1.328,1.473 c-0.896,0.864-2.083,1.433-2.713,2.546c-0.222,0.389-0.123,0.762,0.109,1.021c-2.438,0.008-4.878,0.024-7.314,0.036 c-0.017-0.529-0.045-1.071-0.062-1.605c0.123-0.018,0.244-0.056,0.362-0.128c0.98-0.61,1.872-1.242,2.393-2.292 c0.028-0.055,0.042-0.113,0.048-0.168c3.379-3.471,6.749-6.959,10.131-10.434c0.463-0.476-0.251-1.189-0.726-0.727 c-2.274,2.212-4.535,4.436-6.826,6.63c-1.724,1.65-3.836,2.707-5.486,4.377c-0.015-0.32-0.022-0.637-0.037-0.958 c0.905-0.831,1.425-1.999,2.254-2.927c0.895-0.998,1.957-1.861,2.975-2.73c2.901-2.477,5.472-5.272,8.431-7.673 C51.562,62.57,51.553,63.099,51.545,63.63z M51.604,60.344c-3.558,2.539-6.633,5.679-10.29,8.097 c-1.015,0.671-2.474,1.569-3.614,2.653c-0.014-0.244-0.022-0.486-0.036-0.731c0.41,0.056,0.86-0.122,1.086-0.477 c0.01,0.008,0.018,0.015,0.027,0.023c1.228-2.847,4.116-5.178,6.246-7.361c1.087-1.115,2.338-2.095,3.433-3.216 c1.021-1.046,1.841-2.241,2.835-3.264c0.289-0.295-0.077-0.763-0.437-0.563c-0.994,0.549-1.794,1.426-2.62,2.205 c-1.627,1.537-3.419,2.862-5.064,4.369c-1.499,1.375-2.991,2.845-4.546,4.141c-0.467,0.389-0.839,0.755-1.141,1.15 c-0.051-0.791-0.083-1.578-0.142-2.368c0.076-0.026,0.15-0.04,0.228-0.086c1.31-0.639,2.045-1.674,2.859-2.852 c0.882-1.277,2.565-2.219,3.708-3.253c2.352-2.131,5.797-3.66,7.61-6.284c0.154-0.224,0.18-0.44,0.124-0.623 c0.082,0,0.163,0.002,0.245,0.005C51.793,54.706,51.67,57.522,51.604,60.344z M52.433,40.078c-0.122,0.661-0.224,1.291-0.325,1.909 c-1.582,0.611-2.865,1.698-4.079,2.893c-0.851,0.837-1.925,1.763-2.532,2.863c-1.008-0.002-2.02-0.007-3.03-0.012 c0.088-0.077,0.173-0.156,0.263-0.225c0.164-0.127,0.161-0.324,0.085-0.492c2.939-2.835,6.813-4.689,9.091-8.204 c0.205-0.317-0.058-0.834-0.456-0.796c-0.137,0.014-0.273,0.028-0.411,0.041c-0.356,0.035-0.487,0.32-0.439,0.575 c-1.885,1.866-3.939,3.516-6.185,4.938c-1.592,1.011-3.922,2.19-4.459,4.155c-2.006-0.009-4.012-0.015-6.017-0.004 c0.108-0.666,0.061-1.433-0.058-2.22c0.306,0.082,0.633,0.048,0.939-0.12c0.002,0.009,0.005,0.02,0.007,0.028 c2.249-1.311,4.144-3.534,6.14-5.216c2.25-1.896,4.609-3.716,6.348-6.115c0.541-0.749-0.521-1.782-1.266-1.266 c-2.192,1.512-4.213,3.279-6.311,4.918c-2.09,1.632-4.784,3.27-6.351,5.475c-0.118-0.457-0.237-0.899-0.339-1.302 c0.267,0.084,0.57,0.076,0.787-0.069c0.813-0.537,1.656-1.001,2.296-1.747c0.316-0.364-0.081-0.946-0.528-0.686 c-0.074,0.043-0.151,0.056-0.227,0.095c1.065-1.066,2.615-2.032,3.439-2.62c1.76-1.258,4.288-2.777,5.131-4.826 c0.097-0.23-0.179-0.46-0.394-0.395c-0.376,0.133-0.761,0.23-1.154,0.286c-0.024,0.005-0.024,0.044,0,0.048 c0.15,0.021,0.294,0.076,0.44,0.109c-2.302,1.472-4.614,2.979-6.841,4.563c-0.953,0.676-2.659,1.758-3.33,3.034 c-0.069-0.684-0.113-1.377-0.127-2.075c0.204,0.003,0.404-0.038,0.577-0.133c0.715-0.392,0.939-0.892,0.697-1.354 c0.342-0.618,1.313-1.184,1.749-1.568c1.092-0.962,2.476-1.678,3.697-2.466c0.811-0.522,0.542-1.563-0.075-1.944 c1.619,0.104,3.237,0.239,4.849,0.418c0.092,0.011,0.182,0.027,0.272,0.034c1.109,0.125,2.217,0.258,3.32,0.414 c1.821,0.257,3.666,0.413,5.523,0.537C52.43,34.136,52.893,37.563,52.433,40.078z M69.583,61.037 c-0.481,5.961-0.783,12.999-2.14,18.873c-3.975,1.203-8.782,1.166-13.382,0.981c0.366-4.947,1.024-9.854,1.435-14.798 c0.09-1.084-0.251-11.118-0.898-14.173c5.365,0.003,10.7-0.202,15.886-0.963C69.724,54.207,69.847,57.767,69.583,61.037z M73.341,46.615c-5.825,1.197-12.067,1.295-18.207,1.23c1.008-2.341,0.911-5.481,1.24-7.789c0.346-2.417,0.575-5.852-0.508-8.342 c3.337,0.176,6.686,0.313,9.975,0.731c2.771,0.352,7.501,0.36,7.301,4.042C72.951,39.927,73.666,43.159,73.341,46.615z" fill="#5ab4e2"></path> <path d="M19.535,59.651c-0.625,0.08-0.976,0.137-1.6-0.057c-0.879-0.275-1.279,0.933-0.594,1.408 c0.414,0.289,0.871,0.558,1.363,0.681c0.521,0.131,1.065-0.129,1.575,0.032c0.565,0.18,1.122-0.402,0.959-0.958 C20.999,59.945,20.379,59.544,19.535,59.651z" fill="#5ab4e2"></path> <path d="M51.448,32.684c-2.839,0.378-4.812,3.491-6.941,5.167c-2.387,1.876-6.143,3.863-7.146,6.902 c-0.424,1.285,1.426,2.422,2.324,1.352c0.01-0.013,0.02-0.022,0.03-0.036c1.893-1.468,3.666-3.318,5.438-4.939 c1.104-1.012,2.313-1.958,3.315-3.069c1.095-1.216,2.148-2.65,3.446-3.654C52.533,33.931,52.485,32.546,51.448,32.684z" fill="#5ab4e2"></path> <path d="M50.484,69.961c-2.036,1.022-3.721,2.584-5.466,4.021c-1.681,1.384-3.969,2.61-4.982,4.608 c-0.537,1.062,0.649,2.637,1.795,1.794c0.076-0.058,0.174-0.136,0.264-0.207c0,0,0,0,0,0.002c0.001-0.002,0.004-0.004,0.007-0.006 c0.523-0.416,1.21-1.007,1.684-1.199c0.465-0.186,0.499-0.753,0.153-0.991c0.776-0.896,1.572-1.772,2.45-2.631 c1.543-1.506,3.443-3.098,4.48-5.004C51.01,70.091,50.735,69.836,50.484,69.961z" fill="#5ab4e2"></path> </g> <g> </g> <g> </g> <g> </g> <g> </g> <g> </g> <g> </g> <g> </g> <g> </g> <g> </g> <g> </g> <g> </g> <g> </g> <g> </g> <g> </g> <g> </g> </svg> 