<?xml version="1.0" encoding="UTF-8"?> <svg xmlns="http://www.w3.org/2000/svg" width="73" height="55" viewBox="0 0 73 55" fill="#3bb5e8" fill-rule="#3bb5e8"><metadata><?xpacket begin="﻿" id="W5M0MpCehiHzreSzNTczkc9d"?><?xpacket end="w"?></metadata><defs> </defs><path id="Shape-1" d="M1090.85,1293.32a6.731,6.731,0,0,0-4.17-5.63,10.071,10.071,0,0,0-5.92-.41,0.672,0.672,0,0,0-.99.02c-0.99,1.08-.97,2.57-0.96,3.96,0.01,2.3.35,4.54,0.42,6.83a1.044,1.044,0,0,0,1.57.88,28.965,28.965,0,0,0,4.47.12,22.154,22.154,0,0,0,4.07-.17C1092.32,1298.38,1090.9,1295.22,1090.85,1293.32Zm-3.96,2.9a29.428,29.428,0,0,0-5.63.02c-0.12-1.25-.34-2.51-0.42-3.78a17.786,17.786,0,0,1-.23-3.24,11.7,11.7,0,0,1,5.03.43c1.94,0.59,2.77,2.69,2.72,4.52a6.645,6.645,0,0,0,.38,2.07A16.655,16.655,0,0,1,1086.89,1296.22Zm-5.95,15.58a3.4,3.4,0,0,0-2.13-1.95,2.3,2.3,0,0,0-2.35.97,0.467,0.467,0,0,0-.17-0.03c-2.59.05-3.08,2.97-1.98,4.9a3.935,3.935,0,0,0,5.26,1.35C1081.58,1316.01,1081.74,1313.66,1080.94,1311.8Zm-2.65,3.15a1.437,1.437,0,0,1-1.8-.54,2.034,2.034,0,0,1,.19-2.34,0.6,0.6,0,0,0,.5-0.15c1.06-1,1.66.13,1.92,1.18A1.578,1.578,0,0,1,1078.29,1314.95Zm18.71-5.31v-0.06q-0.075-2.655-.24-5.31c-0.05-.82-0.1-1.63-0.16-2.45,0.78-6.29-1.12-11.5-3.87-17.46-3.08-6.67-9.9-6.39-16.27-5.24,0-5.47-.01-8.54-6-10.01-3.19-.78-7.03-0.31-10.29-0.26-4,.05-7.99.14-12-0.03-7.11-.3-14.89-1.78-21.87.29a0.907,0.907,0,0,0-.6,1.12,0.727,0.727,0,0,0-.09.08c-0.98,1.34-.87,3.01-0.84,4.61,0.06,3.22-.05,6.44-0.09,9.66-0.06,5.11-.21,10.44.24,15.61-0.18,1.2-.25,2.42-0.35,3.61-0.23,2.98-.55,6.03-0.58,9.02a1.653,1.653,0,0,0,3.04.86,41.772,41.772,0,0,0,4.47.12c0.75,0.01,1.52.09,2.27,0.1a8.483,8.483,0,0,0,3.59,6.4,1.647,1.647,0,0,0,.16.82c1.03,2.22,4.11,2.04,6.13,1.7a8.133,8.133,0,0,0,5.73-4.79,10.569,10.569,0,0,0,.71-4.31c2.49,0.22,5.06.16,7.54,0.18,2.77,0.02,5.36.93,8.13,0.95a14.2,14.2,0,0,0,3.76-.07,20.877,20.877,0,0,0,1.07,2.5,6.778,6.778,0,0,0,2.01,2.86,1.714,1.714,0,0,0,1.42.14,8.577,8.577,0,0,0,7.24.47,7.045,7.045,0,0,0,4.58-5.79h0c0.01,0,.02.01,0.03,0.01a0.615,0.615,0,0,0,.14.01c1.56,0.25,3.16.17,4.73,0.39,1.16,0.16,2.77.7,3.94,0.26,1.21-.46,1.65-2.08,1.47-3.5a1.376,1.376,0,0,0,.51-1.45,1.554,1.554,0,0,0,.34-0.99v-0.05Zm-3.21-1.84v1.85c-1.19.06-2.38,0.19-3.57,0.16-0.88-.03-0.94-0.79-1-1.6,0.55-.06,1.1-0.19,1.59-0.27,0.64-.11,1.29-0.22,1.94-0.29,0.23-.03.47-0.04,0.7-0.05a0.816,0.816,0,0,1,.18.01A1,1,0,0,0,1093.79,1307.8Zm-59.63,3.04c-0.87-.03-1.78.09-2.66,0.1-1.35.02-2.76-.05-4.13,0.08,0.03-.5.06-1.01,0.09-1.51a8.53,8.53,0,0,1,1.01.01,11.6,11.6,0,0,0,1.17.12,0.4,0.4,0,0,0,.34-0.59,2.04,2.04,0,0,0-.81-0.67c0.62,0.05,1.26.17,1.8,0.21,1.44,0.1,2.93.08,4.39,0.04A6.055,6.055,0,0,0,1034.16,1310.84Zm12.64,5.23c-0.92,3.67-4.36,3.79-7.31,3.18a7.169,7.169,0,0,1-2.74-5.76c-0.07-3.96,3.74-5.1,7.09-4.32C1046.95,1309.89,1047.46,1313.44,1046.8,1316.07Zm22.28-4.29a18.275,18.275,0,0,0-4.32-.1c-5.03.04-10.09-1.82-14.97-.13a8.04,8.04,0,0,0-.88-2.16c4.16,0.52,8.34-.35,12.51.9a20.1,20.1,0,0,0,7.87.39A5.463,5.463,0,0,0,1069.08,1311.78Zm1.68-3.6c-3.71-.08-7.44.25-11.03-1-3.17-1.1-8.92-.44-12.4.39a5.962,5.962,0,0,0-1.61-.89,10.939,10.939,0,0,0-8.38.4,1.066,1.066,0,0,0-1.04-.76c-2-.08-4,0.08-6-0.01a7.406,7.406,0,0,0-2.72.23c0.02-.42.03-0.84,0.04-1.26a9.9,9.9,0,0,0,1.86.31,2.817,2.817,0,0,0,1.7,0,0.423,0.423,0,0,0,.19-0.47,1.568,1.568,0,0,0-1.45-.96,5.724,5.724,0,0,0-2.26.11c0.02-.64.06-1.29,0.11-1.95,0.26,0.07.51,0.14,0.77,0.23a1.276,1.276,0,0,0,1.38-.16,0.4,0.4,0,0,0,0-.57,2.335,2.335,0,0,0-1.16-.53,3.892,3.892,0,0,0-.91-0.19c0.01-.23.02-0.47,0.02-0.7,0.08-.07.15-0.15,0.23-0.22-0.05-.47-0.08-0.95-0.13-1.42a7.157,7.157,0,0,0,.75.23c0.5,0.1,1.32.34,1.69-.13a0.471,0.471,0,0,0,.07-0.56,2.448,2.448,0,0,0-1.58-.58,6.73,6.73,0,0,0-1.03-.14c-0.07-.98-0.13-1.97-0.17-2.95a9.925,9.925,0,0,0,2.18.06,0.6,0.6,0,0,0,.53-0.31,0.643,0.643,0,0,0,0-.63,0.635,0.635,0,0,0-.53-0.31,10.385,10.385,0,0,0-2.23.07c-0.04-.93-0.06-1.85-0.08-2.77,0.34,0.08.69,0.15,1.03,0.25a3.764,3.764,0,0,0,1.57.45,0.582,0.582,0,0,0,.4-0.71c-0.1-.67-1.09-0.87-1.62-1.02a5.669,5.669,0,0,0-1.4-.22c-0.01-.52-0.02-1.05-0.02-1.56-0.01-.42-0.01-0.84-0.02-1.27a7.59,7.59,0,0,0,.95.07,4.107,4.107,0,0,0,2.31-.29,0.486,0.486,0,0,0,0-.82,4.107,4.107,0,0,0-2.31-.29c-0.32.01-.64,0.04-0.96,0.07-0.02-1-.03-2-0.04-3a6.385,6.385,0,0,0,1.29.45,0.37,0.37,0,0,0,.34-0.19,1.233,1.233,0,0,0-.87-1.55,4.039,4.039,0,0,0-.78-0.19l-0.03-2.64a10.839,10.839,0,0,0,1.62-.05,0.68,0.68,0,0,0,0-1.36,11.855,11.855,0,0,0-1.69-.04c-0.07-.75-0.17-1.56-0.21-2.37a0.925,0.925,0,0,0,.1-0.05,2.2,2.2,0,0,1,1.13-.22c0.43-.03.91,0.15,1.32,0.09a1.169,1.169,0,0,1,.2.06,0.42,0.42,0,0,0,.57-0.57,1.481,1.481,0,0,0-.69-0.79,3.313,3.313,0,0,0-1.24-.22,2.79,2.79,0,0,0-1.41.45,5.349,5.349,0,0,1,.34-1.81,1.3,1.3,0,0,0,.11-0.56c11.45-.14,22.85,1.01,34.33.9,3.01-.02,6.18-0.17,9.12.56,3.66,0.92,2.45,7.8,2.44,10.42-0.01,6.11-.35,12.23-0.13,18.34,0.04-.05.08-0.09,0.12-0.14a44.416,44.416,0,0,0,.03,5.16A9.4,9.4,0,0,0,1070.76,1308.18Zm8.4,10.07c-1.86.5-4.78-.62-5.48-2.52a4.8,4.8,0,0,0-1.85-2.76h0a4.018,4.018,0,0,1,.84-2.8,0.8,0.8,0,0,0,.6-0.65,7.964,7.964,0,0,1,4.84-1.68c2.06-.06,3.38,1.34,4.29,3.02A4.951,4.951,0,0,1,1079.16,1318.25Zm14.68-4.74c-0.22,0-.44.01-0.67,0.01-2.42.02-4.71-.57-7.16-0.19-0.03,0-.06-0.01-0.09-0.01a9.862,9.862,0,0,0-1.86-5.32,7.661,7.661,0,0,0-7.58-2.9c0.05-1.78-.04-3.58-0.08-5.36a43.438,43.438,0,0,0-.06-5.93v-0.01c0-4.16.1-8.33,0.12-12.49a46.867,46.867,0,0,0,6.5.34c1.44,0.02,2.75-.29,4.14.31,1.31,0.56,2.24,2.74,2.97,3.96a24.5,24.5,0,0,1,3.15,15.28,2.976,2.976,0,0,1,.3.18c-0.02.42-.02,0.84-0.01,1.26,0.01,0.73-.03,1.77.05,2.79a10.9,10.9,0,0,0-1.62.17,18.325,18.325,0,0,0-3.35.86,0.62,0.62,0,0,0-.76.1,3.212,3.212,0,0,0-.21.3c-0.03.02-.07,0.03-0.1,0.05a0.528,0.528,0,0,0-.28.68,3.694,3.694,0,0,0,.81,4.09,4.94,4.94,0,0,0,3.32.78c0.82-.01,1.65,0,2.47-0.01C1093.84,1312.8,1093.86,1313.16,1093.84,1313.51Zm-49.52-1.67a2.5,2.5,0,0,0-1.84-.73c-0.7-.8-1.86-0.34-2.71.05a4.647,4.647,0,0,0-2.4,2.81c-0.64,2.23,1.46,4.18,3.51,4.41a3.854,3.854,0,0,0,4.56-3.74A4.353,4.353,0,0,0,1044.32,1311.84Zm-0.94,2.78a1.8,1.8,0,0,1-2.48,1.52,1.48,1.48,0,0,1-1.21-1.95,5.531,5.531,0,0,1,1.36-1.37,1.839,1.839,0,0,1,.22-0.17,0.8,0.8,0,0,0,.36.1,2.853,2.853,0,0,1,1.33.18A1.923,1.923,0,0,1,1043.38,1314.62Zm23.77-35.08c-4.89-1.68-11.07-1.06-16.18-1.05-5.45,0-10.78-.17-16.19.58-0.93.13-.55,1.58,0.39,1.43,5.19-.88,10.56-0.36,15.8-0.31a133.336,133.336,0,0,1,15.99.75C1067.79,1281.05,1067.86,1279.79,1067.15,1279.54Zm-2.85,6.19c-5.05-.62-10.01.2-15.05,0.16a80.469,80.469,0,0,0-13.98.96c-0.57.09-.45,0.87,0.01,1.02a0.02,0.02,0,0,1-.01.02c4.01,0.54,8.19-.21,12.27-0.04a104.29,104.29,0,0,0,16.76-.62A0.751,0.751,0,0,0,1064.3,1285.73Zm2.62,6.76a1.383,1.383,0,0,0-.54-0.74,0.624,0.624,0,0,0-.62,0c-0.98.66,0.13,0.1-1.23-.34-2.22-.72-5.71-0.02-8.01.13-7.03.46-14.06,0.93-21.1,1.35-0.95.05-.93,1.56,0,1.46a103.966,103.966,0,0,0,14.66-.22c5.19-.43,10.57-1.58,15.76-0.55A0.891,0.891,0,0,0,1066.92,1292.49Zm-0.18,7.45c-4.49-1.14-9.36-1.16-13.97-1.17-5.68-.02-11.72-0.1-17.33.89a0.075,0.075,0,0,0-.05.01c-0.05.01-.1,0.01-0.15,0.02h0.01c-0.53.18-.7,1.14-0.01,1.25,5.28,0.88,10.84.06,16.17,0.03,5-.02,10.43,1.29,15.33.61C1067.6,1301.47,1067.5,1300.14,1066.74,1299.94Z" transform="translate(-1024 -1268.03)"></path></svg> 