<?xml version="1.0" encoding="UTF-8"?> <svg xmlns="http://www.w3.org/2000/svg" width="55.97" height="60.03" viewBox="0 0 55.97 60.03" fill="#3bb5e8" fill-rule="#3bb5e8"><metadata><?xpacket begin="﻿" id="W5M0MpCehiHzreSzNTczkc9d"?><?xpacket end="w"?></metadata><defs> </defs><path id="Shape-3" class="cls-1" d="M1480.57,1304.16a0.491,0.491,0,0,0-.73-0.36,16.661,16.661,0,0,0-1.99.98,3.439,3.439,0,0,0-1.03,2.76,3.329,3.329,0,0,0,3.42,2.98,3.492,3.492,0,0,0,3.64-3.47C1483.86,1305.25,1482.16,1304.38,1480.57,1304.16Zm1.35,3.12a1.666,1.666,0,0,1-2.15.94c-0.78-.23-0.7-0.92-0.53-1.56a3.185,3.185,0,0,1,.73-0.91h0.01C1480.86,1305.84,1482.18,1306.21,1481.92,1307.28Zm8.63-9.56c0.17-3.26.44-6.91-2.19-9.11a5.488,5.488,0,0,0-3.11-1.08c0.73-1.03,1.3-2.26,2.06-3.23,0.91-1.16,2.87-3.31,1.61-5.02-0.51-.69-1.46-0.81-2.02-1.48a31.87,31.87,0,0,0-3.69-3.38,46.866,46.866,0,0,0-9.44-6.85c-1.95-1.02-4.41-2.46-6.43-.82-2.56,2.07-4.17,5.24-6.01,8a124.728,124.728,0,0,1-7.65,10.54c-0.64.78-1.51,1.74-2.32,2.77-0.91.06-1.82,0.09-2.75,0.07-0.21-.01-1.39.05-2.65,0.16a7.45,7.45,0,0,0-5.29.02c-3.81,1.93-2.42,9.13-2.46,12.36-0.04,4.95-.39,9.98.12,14.92-0.05.09-.09,0.17-0.13,0.26a0.718,0.718,0,0,0,.28.95c0.05,0.37.09,0.74,0.15,1.11,0.09,0.58.17,1.16,0.25,1.73a4.621,4.621,0,0,0-.57,1.7,0.838,0.838,0,0,0,1.05.81,5.477,5.477,0,0,0,1.05,2.15,0.783,0.783,0,0,0,1.04.82,5.158,5.158,0,0,0,2.2.53c1.86,0.08,3.74-.52,5.61-0.53,3.29,0,6.58-.01,9.87-0.01,0.68,0,1.35-.01,2.03-0.03a0.732,0.732,0,0,0,.66-0.01c3.86-.09,7.79-0.31,11.63-0.14a0.826,0.826,0,0,0,1,.06c0.93,0.05,1.84.12,2.76,0.23,3.8,0.47,10.51,1.86,13.93-.79,2.89-2.24,1.98-7.39,1.17-10.47a0.606,0.606,0,0,0-.17-0.29,9.507,9.507,0,0,0,1.68-4.52C1494.04,1307.33,1494.65,1295.65,1490.55,1297.72Zm-16.3-25.69c0.23-.25.46-0.48,0.7-0.7,0.08,0.05.17,0.11,0.26,0.16a10.864,10.864,0,0,0-1.08.78C1474.18,1272.19,1474.21,1272.11,1474.25,1272.03Zm3.3,4.3a12.685,12.685,0,0,0,1.6-2.12,38.809,38.809,0,0,1,6.12,5.84,4.955,4.955,0,0,0,1.33.92c-0.2-.12-1.27,1.45-1.4,1.6-1,1.2-1.69,3.25-2.88,4.19a1.15,1.15,0,0,0-.43.67c-0.39.01-.78,0.01-1.17,0.02,0.09-.09.18-0.19,0.27-0.28a1.5,1.5,0,0,0,.38-1.56,0.305,0.305,0,0,0-.53,0,3.368,3.368,0,0,1-.97,1.02,2.7,2.7,0,0,0-.8.85c-0.57.01-1.13,0.02-1.7,0.04,0-.02.01-0.03,0.01-0.05,0.38-.41.74-0.85,1.11-1.27,0.39-.47,1.05-0.83.88-1.55l-0.01.02a0.3,0.3,0,0,0-.55-0.09,3.044,3.044,0,0,1-.71.4,6.344,6.344,0,0,0-.76.61,19.238,19.238,0,0,0-1.5,1.35,0.722,0.722,0,0,0-.2.61h-1.72a5.356,5.356,0,0,1,1.32-1.74c0.44-.34.04-1.1-0.45-0.78a6.021,6.021,0,0,0-1.4,1.36c-0.28.36-.57,0.75-0.83,1.16-1.19-.01-2.38-0.02-3.57-0.04,1.44-1.68,2.69-3.58,3.95-5.31C1474.41,1280.18,1475.96,1278.25,1477.55,1276.33Zm-17.03,4.28c1.38-2.17,2.95-4.21,4.36-6.36,1.67-2.55,3.27-6.24,6.73-4.68,0.62,0.27,1.24.59,1.88,0.92-1.95,1.48-3.65,4.24-4.82,5.83-0.01.02-.03,0.05-0.04,0.07-3.06,3.63-6.07,7.3-8.91,11.13l-0.78.03c0.31-.44.74-0.8,1.07-1.22,0.2-.26-0.08-0.74-0.39-0.5a12.946,12.946,0,0,0-1.25.96,3.366,3.366,0,0,0-.58.79c-0.21.01-.43,0.02-0.64,0.02l-0.38.03c0.68-.73,1.24-1.56,1.99-2.22a0.47,0.47,0,0,0-.56-0.74,10.5,10.5,0,0,0-2.58,2.35,0.682,0.682,0,0,0-.13.69l-1.05.09C1456.53,1285.41,1458.9,1283.15,1460.52,1280.61Zm28.36,41.87c-0.21.06-.42,0.11-0.64,0.16a1.821,1.821,0,0,0,.04-0.62c-0.06-.42-0.68-0.59-0.79-0.1a2.268,2.268,0,0,1-.68,1,18.627,18.627,0,0,1-2.89.19,2.761,2.761,0,0,0,.65-1.77c-0.01-.46-0.76-0.61-0.83-0.11a3.286,3.286,0,0,1-1.45,1.83c-0.69-.04-1.38-0.1-2.06-0.17,0.24-.22.41-0.59,0.64-0.82,0.33-.33.7-0.62,1.02-0.96a0.64,0.64,0,0,0-.9-0.91c-0.34.32-.72,0.6-1.08,0.89a7.275,7.275,0,0,1-.7.75,4.226,4.226,0,0,0-.98.82l-1.02-.12c-0.45-.06-0.9-0.09-1.35-0.13a2.37,2.37,0,0,0-.01-0.53,0.522,0.522,0,0,0-1,0,1.306,1.306,0,0,1-.22.42c-0.68-.05-1.37-0.1-2.06-0.13,0.12-.18.24-0.36,0.37-0.53a0.424,0.424,0,0,0-.6-0.6,6.6,6.6,0,0,0-.86.81c-0.06.08-.13,0.16-0.19,0.24a0.077,0.077,0,0,1-.02.03q-1.41-.045-2.82-0.06c0.19-.26.38-0.53,0.56-0.81a0.5,0.5,0,0,0-.68-0.69,6.893,6.893,0,0,0-1.74,1.5c-0.9.01-1.81,0.02-2.71,0.04a0.022,0.022,0,0,1,.02-0.02c0.47-.53-0.3-1.32-0.78-0.79a4.05,4.05,0,0,0-.42.6c-0.04.07-.08,0.15-0.13,0.24l-3.24.09c0.05-.13.1-0.25,0.15-0.37a10.056,10.056,0,0,1,.99-1.67c0.28-.4-0.31-0.78-0.63-0.49a6.41,6.41,0,0,0-1.33,1.6c-0.17.3-.38,0.63-0.55,0.96-1.06.03-2.11,0.06-3.16,0.08a2.961,2.961,0,0,0,.36-0.86,0.471,0.471,0,0,0-.78-0.46c-0.47.47-.98,0.86-1.4,1.34h-1.19c-0.18,0-.53.03-0.97,0.06,0.08-.1.17-0.2,0.26-0.3a2.058,2.058,0,0,0,.65-1.45c-0.03-.43-0.71-0.59-0.79-0.11a2.306,2.306,0,0,1-1.11,1.09,2.685,2.685,0,0,0-.73.92c-0.56.04-1.15,0.09-1.76,0.12a8.2,8.2,0,0,0,.5-0.98,3.6,3.6,0,0,1,.6-0.55,1.031,1.031,0,0,0,.29-0.83,0.454,0.454,0,0,0-.84-0.24,1.822,1.822,0,0,1-.58.4,1.836,1.836,0,0,0-.62.52,10.174,10.174,0,0,1-1.21,1.76,14.316,14.316,0,0,1-2.2-.11,11.726,11.726,0,0,1,.84-1.24,3.743,3.743,0,0,0,1.1-2.46,0.326,0.326,0,0,0-.64-0.09,4.352,4.352,0,0,1-.99,1.07c-0.4.42-.79,0.87-1.15,1.33-0.13.17-.26,0.34-0.39,0.5a18.362,18.362,0,0,1-.74-3.07c0.21-.34.41-0.67,0.57-0.98a15.651,15.651,0,0,1,1.4-2.45,3.1,3.1,0,0,0,.73-1.31,0.489,0.489,0,0,0-.94-0.27c-0.25.67-1.05,1.06-1.45,1.64-0.21.3-.41,0.62-0.6,0.93-0.05-.66-0.09-1.33-0.12-1.99,0.16-.28.31-0.55,0.44-0.83,0.29-.6.64-1.16,0.9-1.78a10.364,10.364,0,0,1,.59-1.42c0.21-.33-0.31-0.75-0.55-0.43-0.52.68-.96,1.47-1.43,2.21-0.01-.46-0.01-0.9-0.01-1.33v-1.02a7.328,7.328,0,0,1,.54-0.74c0.69-.81,1.05-1.87,1.75-2.71a0.375,0.375,0,0,0-.53-0.53,17.186,17.186,0,0,0-1.77,2.14c-0.01-1-.02-1.99-0.03-2.99,0.32-.51.61-1.04,0.93-1.49,0.18-.26-0.19-0.47-0.4-0.31-0.19.15-.37,0.31-0.54,0.47-0.01-.32-0.01-0.64-0.01-0.96,0.98-.91,1.52-2.11,2.41-3.1a0.47,0.47,0,0,0-.66-0.67,22.446,22.446,0,0,0-1.75,2.04,0.078,0.078,0,0,1-.04.04c-0.01-.87-0.02-1.73-0.05-2.6,0-.15-0.01-0.29-0.02-0.44a0.257,0.257,0,0,0,.05-0.02,2.662,2.662,0,0,0,.97-1.05,19.142,19.142,0,0,1,1.47-1.23,0.6,0.6,0,0,0-.6-1.03,4.349,4.349,0,0,0-.87.68c-0.13.13-.26,0.26-0.39,0.38-0.17.16-.39,0.24-0.55,0.4a1.554,1.554,0,0,0-.18.33,13.214,13.214,0,0,1,.24-4.53,2.571,2.571,0,0,1,1.27-1.54,0.355,0.355,0,0,0,.1.02c7.69,0.86,15.61-.1,23.38-0.13a0.993,0.993,0,0,0,.7,0c0.39,0,.77,0,1.16.01,4.61,0.07,9.24.1,13.85,0.02,2.27-.04,5.71-0.65,6.56,2.2,0.54,1.8.17,4.23,0.13,6.19a60.46,60.46,0,0,0-10.24-.19,5.269,5.269,0,0,0-4.94,3.59c-1.48,3.62-.71,6.81-0.08,10.52,0.53,3.21,3.68,3.63,6.21,4.22,4.23,0.99,8.74.86,11.7-1.41a23.491,23.491,0,0,0-.28,4.05C1490.32,1320.82,1490.62,1321.95,1488.88,1322.48Zm2.48-14.2a5.761,5.761,0,0,1-2.25,4.98c0.26-.44.51-0.88,0.77-1.31a0.37,0.37,0,0,0-.5-0.51,7.3,7.3,0,0,0-1.66,1.84c-0.23.32-.44,0.64-0.67,0.95a10.2,10.2,0,0,1-1.4.3c0.12-.1.24-0.21,0.34-0.31a5.208,5.208,0,0,0,1.08-1.31,0.246,0.246,0,0,0-.34-0.33v-0.01a11.641,11.641,0,0,0-1.02.71,3.494,3.494,0,0,1-1.22.67,0.6,0.6,0,0,0-.51.7,17.153,17.153,0,0,1-1.75-.06c0.27-.31.51-0.63,0.75-0.93a0.265,0.265,0,0,0-.37-0.38c-0.34.28-.68,0.56-1.04,0.82-0.18.13-.36,0.24-0.55,0.36-0.11-.01-0.21-0.03-0.32-0.05a8.147,8.147,0,0,0,.95-1.16,0.241,0.241,0,0,0-.33-0.33c-0.61.4-1.35,0.78-1.97,1.26-0.33-.06-0.66-0.12-0.97-0.19a1.163,1.163,0,0,0-.18-0.04,5.465,5.465,0,0,1,.78-0.74c0.4-.31.19-1.08-0.38-0.9a3.623,3.623,0,0,0-1.77,1.33,2.432,2.432,0,0,1-1.45-1.13c0.03,0.05-.75-3.39-0.93-3.98-0.57-1.88-.22-6.06,1.66-7.41,1.62-1.17,5.14-.52,7.02-0.55a50.49,50.49,0,0,0,5.64-.3,1.317,1.317,0,0,0,1.34-.27C1492.89,1301.33,1491.38,1305.66,1491.36,1308.28Z" transform="translate(-1438 -1266)"></path></svg> 