<svg width="32" height="32" viewBox="0 0 32 32" fill="none" xmlns="http://www.w3.org/2000/svg">
<circle cx="16" cy="16" r="16" fill="#33C6F4"/>
<path d="M30.649 22.4451C28.1698 28.0719 22.5436 32 16.0001 32C9.3023 32 3.56574 27.8845 1.18118 22.0444L16.0001 10.6667L30.649 22.4451Z" fill="#1B447E"/>
<path d="M10.8088 15.5022C10.2399 14.9333 9.45767 15.7156 9.45767 15.7156L14.5066 9.81333H16.9954L23.6799 17.2089C23.6799 17.2089 22.5421 16.7111 22.1866 17.0667C21.831 17.4222 23.4666 19.3422 23.3243 19.4844C22.8266 19.9822 19.1999 14.72 18.2043 14.9333C17.2088 15.1467 17.8488 17.3511 17.8488 18.2756C17.8488 19.2 17.9199 20.7644 16.8532 20.7644C15.7866 20.7644 15.3599 18.6311 14.2932 18.6311C13.2266 18.6311 12.6577 21.12 12.0888 21.0489C11.613 20.9894 12.3021 19.4844 12.0888 19.2C12.0177 19.1052 12.0035 19.1276 11.8754 19.0578C11.0932 18.6311 9.671 20.3378 9.24434 19.9822C8.81767 19.6267 11.3777 16.0711 10.8088 15.5022Z" fill="white"/>
<path fill-rule="evenodd" clip-rule="evenodd" d="M16 32C24.8366 32 32 24.8366 32 16C32 7.16344 24.8366 0 16 0C7.16344 0 0 7.16344 0 16C0 24.8366 7.16344 32 16 32ZM30.1251 21.4795C30.7848 19.7802 31.1467 17.9324 31.1467 16C31.1467 7.63473 24.3653 0.853333 16 0.853333C7.63473 0.853333 0.853333 7.63473 0.853333 16C0.853333 17.8008 1.16759 19.5282 1.74425 21.1303C1.77908 21.1068 1.81524 21.0823 1.85267 21.0569C2.31909 20.7405 2.98378 20.279 3.77469 19.7001C5.35748 18.5418 7.44115 16.917 9.45169 15.0475C11.4542 13.1856 12.5376 11.786 13.1988 10.8552C13.3245 10.6782 13.44 10.5105 13.5457 10.3572C13.7089 10.1203 13.8487 9.91744 13.966 9.7673C14.1427 9.54119 14.4016 9.24444 14.7911 9.24444C15.1623 9.24444 15.4324 9.32465 15.6252 9.43759C15.6383 9.43176 15.6517 9.42592 15.6655 9.4201C15.8793 9.33011 16.1844 9.24444 16.5689 9.24444C16.7189 9.24444 16.8473 9.30493 16.9271 9.34913C17.0174 9.39917 17.1091 9.46522 17.1985 9.537C17.378 9.68113 17.5885 9.88144 17.8194 10.1163C18.249 10.5532 18.7849 11.1468 19.3809 11.8069L19.3812 11.8072L19.5215 11.9626C20.8364 13.4184 22.4349 15.1738 23.9551 16.4561C25.2333 17.5343 26.9368 18.9184 28.3226 20.0344C29.0151 20.5921 29.6275 21.0822 30.0668 21.433C30.0866 21.4488 30.1061 21.4643 30.1251 21.4795ZM29.7802 22.2959C27.3903 27.5184 22.1189 31.1467 16 31.1467C9.74446 31.1467 4.37463 27.3545 2.06396 21.9436C2.14427 21.8898 2.23376 21.8296 2.33178 21.7631C2.80536 21.4418 3.47844 20.9744 4.27865 20.3888C5.87808 19.2182 7.98996 17.5719 10.0328 15.6725C12.0836 13.7655 13.2046 12.3206 13.8945 11.3493C14.0438 11.1391 14.1671 10.9599 14.2732 10.8055C14.4199 10.5922 14.5339 10.4264 14.6384 10.2927C14.7429 10.159 14.799 10.1124 14.8184 10.098C15.0547 10.1018 15.1629 10.1547 15.1986 10.1767C15.2037 10.1798 15.2078 10.1826 15.211 10.185L15.4277 10.6184L15.8357 10.2921L15.8366 10.2914C15.8405 10.2887 15.8491 10.2827 15.8625 10.2745C15.8893 10.258 15.9344 10.2328 15.9967 10.2066C16.1125 10.1578 16.2881 10.1053 16.5187 10.0985C16.55 10.1165 16.5978 10.1491 16.6642 10.2024C16.8041 10.3147 16.9867 10.4865 17.2109 10.7146C17.6272 11.138 18.1511 11.7182 18.7531 12.385L18.8882 12.5346C20.1958 13.9823 21.8328 15.7823 23.4049 17.1084C24.691 18.1932 26.4008 19.5824 27.7873 20.699C28.481 21.2576 29.0944 21.7485 29.5344 22.0998C29.6237 22.1712 29.7059 22.2367 29.7802 22.2959ZM16.4938 10.0858C16.4937 10.0858 16.4951 10.0862 16.4979 10.0875C16.4952 10.0866 16.4938 10.0859 16.4938 10.0858Z" fill="#221E1F"/>
</svg>
