<svg width="32" height="32" viewBox="0 0 32 32" fill="none" xmlns="http://www.w3.org/2000/svg">
<path d="M10.3116 24.9926C10.1384 25.2575 10.3116 26.6701 11.7841 27.2881C13.2565 27.9062 14.5557 26.8467 17.5005 26.8467C20.4453 26.8467 22.3508 28.2594 22.6973 28.0828C23.0437 27.9062 24.3429 22.5205 24.3429 22.5205C24.3429 22.5205 31.4452 22.3439 31.9648 15.8987C32.4845 9.45345 27.1145 7.68764 24.3429 7.68764C21.5713 7.68764 21.2249 8.39396 21.2249 8.39396C21.2249 8.39396 21.6579 9.18858 25.1224 9.27687C21.8311 10.2481 19.3194 9.01201 17.3273 6.89304L17.3125 6.87727C15.3277 4.76608 13.8211 3.16355 10.225 3.00825C4.44042 2.75845 -0.168498 8.21738 0.00472775 14.2211C0.177953 20.2249 5.8944 23.4034 8.83924 23.6682C11.7841 23.9331 13.5163 23.4034 15.3352 22.1673C14.5557 23.6682 10.4849 24.7277 10.3116 24.9926Z" fill="#0373AA"/>
</svg>
