<svg width="32" height="32" viewBox="0 0 32 32" fill="none" xmlns="http://www.w3.org/2000/svg">
<path d="M22.6812 15.2187C22.875 15.1937 23.0687 15.1937 23.2625 15.2187C23.3687 14.9812 23.3875 14.5625 23.2937 14.1187C23.1562 13.45 22.9625 13.0437 22.575 13.1062C22.1875 13.1687 22.1687 13.6562 22.3125 14.325C22.3812 14.6937 22.525 15.0187 22.6812 15.2187ZM19.325 15.75C19.6062 15.875 19.775 15.9562 19.8437 15.8812C19.9625 15.7625 19.625 15.2937 19.0875 15.0625C18.45 14.8 17.725 14.8875 17.1687 15.2937C16.9812 15.4312 16.8062 15.6187 16.8312 15.7375C16.8875 15.9687 17.4562 15.5687 18.25 15.5187C18.6812 15.4875 19.0437 15.625 19.325 15.75ZM18.7625 16.0687C18.1937 16.1562 17.825 16.475 17.9187 16.7C17.975 16.7187 17.9937 16.75 18.2437 16.65C18.6187 16.5062 19.0187 16.4687 19.4187 16.525C19.6 16.5437 19.6875 16.5562 19.7312 16.4937C19.8125 16.3625 19.3687 16 18.7625 16.0687ZM22.15 17.1437C22.3625 16.7125 21.4687 16.2687 21.2562 16.7062C21.0437 17.1375 21.9437 17.575 22.15 17.1437ZM23.1312 15.8625C22.65 15.8562 22.6312 16.85 23.1125 16.8625C23.6 16.8625 23.6187 15.8687 23.1312 15.8625ZM9.43121 20.8C9.34996 20.8187 9.05621 20.8937 8.89996 20.65C8.57496 20.15 9.59371 19.375 9.08746 18.4062C8.51871 17.3125 7.34371 17.5562 6.89371 18.0562C6.34996 18.6562 6.34996 19.5312 6.58121 19.5625C6.84996 19.6 6.83746 19.1562 7.04371 18.8312C7.28746 18.4562 7.78121 18.35 8.15621 18.5937C8.15621 18.5937 8.16246 18.5937 8.16246 18.6C8.88746 19.075 8.24996 19.7125 8.30621 20.3937C8.39371 21.4375 9.46246 21.4187 9.65621 20.9562C9.68121 20.9125 9.67496 20.85 9.64371 20.8125C9.64371 20.8812 9.68121 20.7437 9.43121 20.8ZM28.2062 19.7312C27.9937 18.9937 28.0437 19.1562 27.7812 18.4437C27.9375 18.2125 28.7375 16.9375 27.5875 15.7375C26.9375 15.0562 25.4625 14.7 25.0125 14.575C24.9187 13.8625 25.3062 10.9 23.6625 9.37496C24.9625 8.02496 25.775 6.53746 25.775 5.26246C25.7687 2.81246 22.7562 2.06871 19.0437 3.60621L18.2562 3.93746C18.25 3.93121 16.8312 2.54371 16.8125 2.52496C12.5875 -1.16254 -0.650036 13.5437 3.58121 17.1187L4.50621 17.9C4.25621 18.5687 4.16871 19.2875 4.24996 20C4.46246 22.0937 6.50621 23.7875 8.48121 23.7812C12.1 32.1187 25.2625 32.1312 28.6687 23.9687C28.775 23.6875 29.2375 22.425 29.2375 21.3125C29.2375 20.2 28.6062 19.7312 28.2062 19.7312ZM8.40621 22.75C6.97496 22.7125 5.43121 21.425 5.28121 19.9C4.89371 16.0625 9.93121 15.1875 10.5437 19.125C10.8312 20.9812 10.25 22.7875 8.40621 22.75ZM7.24996 15.5937C6.29996 15.7812 5.46246 16.3187 4.94996 17.0625C4.64371 16.8062 4.07496 16.3125 3.97496 16.125C3.16246 14.5687 4.86871 11.55 6.06246 9.84996C9.01246 5.63746 13.6312 2.44996 15.775 3.02496C16.125 3.12496 17.275 4.45621 17.275 4.45621C17.275 4.45621 15.1375 5.64371 13.1562 7.29996C10.475 9.36246 8.45621 12.35 7.24996 15.5937ZM22.2125 21.9312C22.2125 21.9312 19.975 22.2625 17.8562 21.4875C18.2437 20.225 19.55 21.8687 23.8937 20.625C24.85 20.35 26.1062 19.8125 27.0875 19.0375C27.3 19.525 27.45 20.0375 27.5312 20.5562C27.7625 20.5125 28.425 20.525 28.25 21.6875C28.0437 22.9312 27.5125 23.9437 26.625 24.875C26.0687 25.475 25.4062 25.975 24.675 26.3375C24.2687 26.55 23.8375 26.7312 23.4 26.875C20.05 27.9687 16.6187 26.7687 15.5062 24.1812C15.4187 23.9812 15.3437 23.7812 15.2812 23.5687C14.8125 21.8625 15.2125 19.8187 16.4625 18.5312C16.5375 18.45 16.6187 18.35 16.6187 18.2312C16.6062 18.125 16.5687 18.025 16.5 17.9437C16.0625 17.3062 14.5437 16.225 14.85 14.1312C15.0687 12.625 16.3812 11.5687 17.6125 11.6312L17.925 11.65C18.4562 11.6812 18.9187 11.75 19.3562 11.7687C20.0875 11.8 20.75 11.6937 21.525 11.0437C21.7875 10.825 22 10.6312 22.3562 10.575C22.65 10.5 22.9562 10.5562 23.2062 10.7125C23.8312 11.1312 23.9187 12.1375 23.95 12.875C23.9687 13.2937 24.0187 14.3187 24.0375 14.6062C24.075 15.275 24.25 15.3687 24.6062 15.4812C24.8062 15.55 24.9937 15.5937 25.2625 15.675C26.0875 15.9062 26.575 16.1437 26.8937 16.4437C27.0562 16.6 27.1562 16.8062 27.1937 17.025C27.2937 17.7375 26.6437 18.6187 24.9187 19.4125C21.9937 20.7687 19.05 20.3187 18.625 20.2687C17.3625 20.1 16.6437 21.7312 17.4 22.8437C18.8187 24.9375 25.0687 24.0937 26.8812 21.5062C26.925 21.4437 26.8875 21.4062 26.8375 21.4437C24.2187 23.2312 20.7562 23.8375 18.7875 23.075C18.4875 22.9562 17.8625 22.6687 17.7875 22.0312C20.5187 22.875 22.2375 22.075 22.2375 22.075C22.2375 22.075 22.375 21.9125 22.2125 21.9312ZM12.7 9.83121C13.75 8.61871 15.0375 7.56246 16.2 6.97496C16.2187 6.96246 16.25 6.96871 16.2625 6.99371C16.2687 7.00621 16.2687 7.02496 16.2625 7.03746C16.1687 7.20621 15.9937 7.56246 15.9375 7.83121C15.9312 7.85621 15.95 7.88121 15.975 7.88746C15.9875 7.89371 16 7.88746 16.0125 7.88121C16.7312 7.39371 17.9875 6.86246 19.0812 6.79996C19.1062 6.79996 19.1312 6.81871 19.1312 6.84371C19.1312 6.86246 19.125 6.87496 19.1125 6.88746C18.9312 7.02496 18.7687 7.18746 18.6312 7.37496C18.6187 7.39371 18.6187 7.42496 18.6437 7.43746C18.65 7.44371 18.6625 7.44371 18.6687 7.44371C19.4375 7.44996 20.525 7.71871 21.2375 8.11871C21.2875 8.14371 21.25 8.23746 21.2 8.22496C16.8437 7.22496 13.4875 9.38746 12.775 9.90621C12.75 9.91871 12.725 9.91246 12.7062 9.89371C12.6875 9.86871 12.6875 9.84371 12.7 9.83121Z" fill="black"/>
</svg>
