<svg width="32" height="32" viewBox="0 0 32 32" fill="none" xmlns="http://www.w3.org/2000/svg">
<path d="M0 3.3C0 1.47746 1.47746 0 3.3 0H28.7C30.5225 0 32 1.47746 32 3.3V28.7C32 30.5225 30.5225 32 28.7 32H3.3C1.47746 32 0 30.5225 0 28.7V3.3Z" fill="#5E35B1"/>
<path fill-rule="evenodd" clip-rule="evenodd" d="M16.2001 7.5853V9.4909L16.5751 9.5515C16.7814 9.5848 17.1751 9.6589 17.4501 9.7163C17.7251 9.7736 18.3291 10.0009 18.7924 10.2215C19.4574 10.5381 19.7943 10.7832 20.3934 11.3862C20.8291 11.8249 21.2876 12.4069 21.4705 12.7535C21.6456 13.0854 21.8861 13.7111 22.0048 14.144C22.1839 14.7968 22.2133 15.1199 22.1771 16.0404C22.1451 16.8569 22.0711 17.333 21.897 17.8425C21.7669 18.2234 21.4407 18.8717 21.1721 19.2832L20.6837 20.0312L19.1419 18.4918L17.6001 16.9524V21.3262V25.7H21.9001C24.2651 25.7 26.2001 25.6656 26.2001 25.6237C26.2001 25.5817 25.5701 24.9185 24.8001 24.15C24.0301 23.3815 23.4001 22.7028 23.4001 22.6418C23.4001 22.5809 23.4946 22.4454 23.6102 22.3409C23.7257 22.2363 24.0768 21.7673 24.3902 21.2986C24.7037 20.83 25.0871 20.1323 25.2421 19.7483C25.3972 19.3642 25.607 18.7635 25.7083 18.4134C25.8097 18.0633 25.9417 17.3311 26.0016 16.7863C26.0781 16.0914 26.0799 15.5203 26.0077 14.8729C25.9511 14.3653 25.8133 13.59 25.7016 13.15C25.5898 12.71 25.2752 11.9 25.0023 11.35C24.7295 10.8 24.2145 9.9815 23.8578 9.5312C23.5012 9.0808 22.881 8.4413 22.4797 8.1099C22.0784 7.7786 21.4229 7.3202 21.0231 7.0913C20.6232 6.8624 20.0266 6.5663 19.6973 6.4333C19.368 6.3002 18.7726 6.1086 18.3743 6.0073C17.976 5.9061 17.3239 5.7909 16.9251 5.7515L16.2001 5.6797V7.5853ZM7.14222 7.3921L8.63192 8.8843L8.20572 9.3933C7.97132 9.6733 7.56332 10.2621 7.29902 10.7018C7.03482 11.1414 6.67872 11.8879 6.50762 12.3606C6.33662 12.8333 6.12472 13.6318 6.03682 14.135C5.92142 14.7953 5.89222 15.3841 5.93172 16.25C5.96602 17 6.06702 17.75 6.20102 18.25C6.31902 18.69 6.54682 19.365 6.70732 19.75C6.86772 20.135 7.21922 20.7933 7.48842 21.213C7.75762 21.6326 8.29902 22.314 8.69142 22.7272C9.08392 23.1404 9.73022 23.7026 10.1276 23.9765C10.525 24.2505 11.1651 24.6325 11.5501 24.8255C11.9351 25.0185 12.6178 25.2923 13.0673 25.4341C13.5168 25.5758 14.2581 25.7387 14.7147 25.7959C15.1713 25.8532 15.6033 25.9 15.6746 25.9C15.7775 25.9 15.7988 25.5001 15.7773 23.975L15.7501 22.05L15.2001 21.9883C14.8976 21.9543 14.449 21.8712 14.2033 21.8036C13.9575 21.7359 13.4518 21.5271 13.0794 21.3396C12.6895 21.1432 12.1025 20.7157 11.6951 20.3314C11.3017 19.9603 10.8164 19.3724 10.6019 19.007C10.3898 18.6457 10.1204 18.035 10.0034 17.65C9.88632 17.265 9.76422 16.6105 9.73212 16.1956C9.69182 15.6754 9.72622 15.1787 9.84302 14.5956C9.93612 14.1305 10.1678 13.4331 10.3578 13.0458C10.5479 12.6585 10.8443 12.1707 11.0165 11.9617L11.3296 11.5819L12.8649 13.1147L14.4001 14.6476V10.2738V5.9H10.0264H5.65262L7.14222 7.3921Z" fill="white"/>
</svg>
