<svg width="556" height="333" viewBox="0 0 556 333" fill="none" xmlns="http://www.w3.org/2000/svg">
<path d="M316.922 76.4467C304.782 83.1333 293.837 89.1213 282.493 95.4087C281.398 90.8179 283.588 88.4227 286.473 86.8259C295.23 81.8359 304.086 76.8459 313.041 72.2551C316.126 70.6583 317.519 68.7621 318.215 65.2691C319.807 57.6843 322.195 50.1993 324.484 42.8142C324.982 41.1176 326.574 39.7204 327.668 38.2234C328.066 38.423 328.564 38.6226 328.962 38.8222C326.773 47.9039 324.583 56.9857 321.996 67.4647C382.396 41.1176 440.506 13.972 503.294 0C503.592 0.598799 503.791 1.0978 504.09 1.6966C502.498 2.495 501.005 3.5928 499.314 4.0918C440.108 22.0558 383.59 46.7063 327.27 71.8559C323.489 73.5525 321.797 75.7481 321.598 80.0395C320.902 97.8039 318.514 115.668 323.887 133.033C325.877 139.62 328.763 146.207 332.444 151.895C339.31 162.474 351.35 164.171 361.5 156.786C368.565 151.696 373.54 144.909 376.923 137.025C377.52 135.628 377.42 133.732 377.42 132.135C376.525 108.582 383.49 87.2251 394.635 66.9657C395.132 66.0675 395.63 65.0695 396.326 64.5705C397.918 63.3729 400.306 61.2771 401.401 61.7761C403.093 62.5745 404.983 65.0695 405.083 66.8659C405.381 73.6523 405.779 80.5385 404.585 87.1253C401.7 103.393 394.436 117.963 386.077 132.035C383.291 136.826 383.689 140.718 387.769 144.41C391.351 147.604 395.63 147.205 398.714 144.41C403.391 140.119 407.769 135.229 411.351 130.039C419.909 117.664 422.596 104.091 417.62 89.4207C416.128 85.0295 415.133 80.4387 414.337 75.8479C413.939 73.6523 414.237 71.2571 415.133 68.8619C420.506 75.8479 421.401 84.2311 424.486 92.2151C424.785 90.8179 425.083 89.5205 425.382 88.1233C427.073 79.1413 428.566 70.1593 430.655 61.2771C431.252 58.9817 433.74 57.0855 435.332 55.0895C436.725 57.2851 439.014 59.3809 439.312 61.6763C440.506 72.3549 441.203 83.2331 442.098 93.9117C442.198 95.5085 442.297 97.1053 443.193 98.8019C443.591 96.9057 443.989 95.1093 444.288 93.2131C446.278 83.1333 448.168 72.9537 450.158 62.8739C450.457 61.5765 450.556 60.0795 451.352 59.0815C452.745 57.2851 454.735 54.1913 456.129 54.3909C458.218 54.5905 461.104 56.8859 461.8 58.8819C464.487 67.2651 466.577 75.8479 468.567 84.3309C470.457 92.4147 471.95 100.598 473.442 108.782C473.84 110.977 473.542 113.173 473.542 115.468C472.945 115.668 472.447 115.868 471.85 116.067C470.656 113.971 468.766 112.075 468.268 109.78C465.781 98.9017 463.691 88.0235 461.303 77.1453C460.208 72.1553 458.815 67.2651 457.522 62.2751C457.024 62.2751 456.626 62.1753 456.129 62.1753C455.432 64.3709 454.437 66.5665 454.039 68.7621C451.054 86.1273 448.168 103.492 445.283 120.858C444.885 122.953 444.586 125.149 443.69 127.145C443.193 128.243 441.402 129.939 440.705 129.64C439.412 129.141 438.118 127.744 437.621 126.446C437.024 124.75 437.322 122.854 437.223 121.057C436.626 103.293 436.029 85.6283 435.432 67.8639C435.034 67.7641 434.536 67.7641 434.138 67.6643C433.74 68.7621 433.243 69.8599 433.044 71.0575C429.66 88.7221 428.068 106.586 428.566 124.65C428.665 128.442 428.367 132.335 427.869 136.027C427.67 137.125 426.178 138.123 425.282 139.121C424.287 138.023 422.596 137.025 422.496 135.828C421.899 131.636 421.799 127.345 421.6 123.452C417.222 130.239 413.242 137.025 408.565 143.412C406.476 146.207 403.292 148.502 400.207 150.199C392.744 154.291 387.57 152.394 380.306 144.011C375.928 149.001 371.848 154.49 366.972 159.181C355.231 170.358 338.216 168.961 328.763 155.788C324.782 150.199 321.797 143.612 319.708 137.125C314.534 120.858 315.529 103.991 316.325 87.1253C316.424 84.0315 316.623 81.0375 316.922 76.4467ZM382.694 125.947C394.038 110.878 404.983 79.5405 399.311 68.6623C388.863 86.6263 383.391 105.688 382.694 125.947Z" fill="black"/>
<path d="M132.043 242.713C133.138 241.017 133.735 240.418 134.033 239.719C137.715 227.743 139.904 215.568 139.506 202.993C139.207 190.917 139.705 178.742 139.904 166.666C139.904 165.668 140.003 164.57 140.501 163.772C141.595 162.175 142.989 160.778 144.282 159.281C145.476 160.977 147.665 162.774 147.665 164.47C147.367 176.047 146.869 187.723 145.974 199.3C145.078 210.079 148.362 219.36 155.526 227.144C160.601 232.733 163.387 232.833 169.656 228.641C170.352 228.242 171.049 227.843 171.745 227.544C173.934 231.536 171.646 235.827 166.671 236.925C161.795 238.122 157.317 236.825 153.735 233.432C150.252 230.039 147.267 226.047 143.785 221.955C143.088 225.448 142.59 228.941 141.695 232.334C140.799 236.027 139.904 239.819 138.411 243.312C135.924 249.2 129.555 249.599 126.073 244.21C124.481 241.715 123.386 238.821 122.69 236.027C119.605 223.751 116.819 211.476 113.834 199.2C113.137 196.406 112.242 193.711 111.346 190.917C110.948 190.917 110.451 191.017 110.052 191.017C109.356 195.208 108.361 199.3 108.162 203.492C107.167 221.456 107.664 239.32 111.744 257.084C112.043 258.581 110.849 260.478 110.351 262.174C108.759 261.076 106.172 260.178 105.774 258.781C102.689 247.104 100.003 235.228 97.2164 223.452C96.9179 222.254 96.6194 221.057 95.5248 219.859C94.4303 226.246 93.5347 232.733 92.0422 239.12C90.9476 243.611 89.455 248.102 87.2659 252.094C83.7833 258.182 77.216 259.38 72.1412 254.49C68.2606 250.797 64.8774 246.206 62.6883 241.316C51.9418 217.564 46.27 192.214 40.3993 166.965C39.7027 163.871 39.0062 160.877 38.1107 156.786C36.4191 158.881 35.225 160.179 34.23 161.676C24.6775 175.648 15.1251 189.72 5.57266 203.691C4.97563 204.49 4.67712 205.588 3.88108 206.186C2.88603 207.085 1.59247 207.683 0.398419 208.382C0.298914 206.885 -0.298114 205.089 0.298914 204.091C6.86622 193.312 13.533 182.534 20.3988 172.055C24.578 165.668 29.5533 159.78 33.7325 153.392C35.225 150.997 36.1206 147.604 35.8221 144.81C35.1255 136.227 33.5335 127.644 32.6379 119.061C32.3394 116.466 33.2349 113.772 33.5335 111.077C34.23 111.077 34.827 110.977 35.5235 110.977C37.3146 121.556 39.0062 132.235 40.9963 143.911C42.8869 141.816 43.9814 140.518 45.1755 139.221C55.0264 129.141 64.9769 119.061 74.8279 109.081C76.2209 107.684 77.813 106.287 79.6041 105.488C80.9971 104.89 82.7882 105.189 84.4798 105.189C83.7833 106.486 83.3853 108.083 82.3902 109.181C69.9521 122.055 57.3151 134.83 44.9765 147.804C43.5834 149.301 42.5884 152.394 42.9864 154.39C48.4591 181.236 54.6284 207.983 64.7779 233.631C66.8675 238.921 69.9521 244.11 73.4348 248.601C77.3155 253.691 81.0966 253.192 83.4848 247.204C86.1714 240.418 88.261 233.432 89.7535 226.246C93.4352 207.584 92.5397 189.021 88.659 170.358C86.1714 158.682 85.0768 146.706 83.8828 134.83C83.5843 131.935 84.6788 126.846 86.4699 126.247C90.6491 124.65 92.6392 129.041 94.3308 132.235C99.4055 141.915 100.401 152.694 100.6 163.273C100.699 174.35 99.4055 185.428 99.2065 196.606C99.107 202.194 100.202 207.683 101.495 213.172C102.192 206.685 102.888 200.099 103.784 193.612C103.983 191.616 104.182 189.42 105.177 187.823C106.57 185.428 108.659 183.532 110.451 181.436C112.441 183.432 114.829 185.129 116.222 187.524C117.714 190.218 118.311 193.512 119.107 196.506C122.391 209.18 125.575 221.955 128.958 234.629C129.356 236.925 130.65 239.32 132.043 242.713ZM90.2511 133.931C89.5545 134.031 88.9575 134.131 88.261 134.231C90.4501 147.903 92.6392 161.676 94.8283 175.348C96.0223 161.077 96.3208 147.005 90.2511 133.931Z" fill="black"/>
<path d="M420.606 290.018C419.412 292.014 418.417 294.31 416.825 296.006C410.556 302.194 403.491 306.286 394.138 304.789C392.944 304.589 391.153 305.687 390.357 306.785C386.476 311.775 383.192 317.164 379.113 322.054C368.565 334.729 352.446 338.222 339.709 322.653C328.365 308.881 324.584 292.114 321.898 275.148C319.908 262.573 319.609 249.699 318.514 236.925C318.415 235.627 318.315 234.33 318.216 231.735C312.047 235.628 306.574 239.121 301.101 242.614C299.012 244.011 297.22 245.707 295.031 246.905C294.036 247.404 292.643 247.204 291.449 247.304C291.648 246.007 291.35 244.11 292.146 243.412C296.424 239.719 300.504 235.328 305.479 233.133C316.425 228.342 320.206 220.857 319.51 209.081C319.012 201.296 320.903 193.213 322.196 185.428C322.495 183.332 324.485 181.536 325.679 179.64C326.077 179.939 326.375 180.139 326.773 180.438C325.579 193.911 324.385 207.384 323.092 222.254C357.321 204.49 391.75 191.217 428.268 184.43C428.567 185.129 428.766 185.728 429.064 186.426C427.472 187.324 425.979 188.422 424.288 189.021C406.676 194.909 388.765 200.099 371.451 206.785C356.326 212.574 341.799 220.059 327.072 226.945C325.48 227.644 323.689 230.039 323.689 231.636C323.689 256.386 325.778 280.837 334.833 304.19C337.818 311.875 341.998 318.861 348.565 324.05C355.232 329.24 364.187 329.739 370.058 323.851C376.327 317.563 381.302 310.078 386.576 302.893C387.272 301.895 387.272 300.098 386.974 298.701C384.088 282.334 390.854 269.26 401.302 257.583C402.297 256.486 405.681 255.987 406.477 256.785C407.671 257.983 408.566 260.777 408.069 262.474C404.884 272.553 401.402 282.633 397.82 292.613C397.123 294.609 396.029 296.505 394.834 299C400.108 300.497 404.188 298.302 408.069 296.006C411.85 293.711 415.432 291.116 419.014 288.721C419.611 289.02 420.109 289.519 420.606 290.018ZM391.053 291.515C391.65 291.715 392.347 291.915 392.944 292.114C396.327 283.132 399.71 274.15 402.994 265.168C402.496 264.969 401.899 264.769 401.402 264.569C395.929 272.753 391.849 281.535 391.053 291.515Z" fill="black"/>
<path d="M227.368 221.955C227.468 220.258 227.468 218.562 227.766 216.865C233.836 191.815 240.005 166.865 245.976 141.816C246.374 140.219 246.075 137.624 245.08 136.526C221.995 112.574 198.91 88.8219 175.626 65.1693C172.442 61.8759 168.163 59.5805 164.68 56.5865C163.586 55.5885 163.188 53.7921 162.491 52.3949C164.083 52.1953 165.775 51.6963 167.367 51.7961C168.362 51.8959 169.258 52.9937 170.153 53.6923C190.85 69.2611 207.666 88.8219 225.478 107.385C233.04 115.269 240.503 123.253 248.662 131.736C251.846 121.756 254.632 112.574 257.817 103.592C265.379 81.9357 273.24 60.3789 281.001 38.8221C281.3 38.0237 281.499 37.1255 281.996 36.5267C282.892 35.6285 284.086 34.8301 285.18 34.0317C285.578 35.3291 286.573 36.7263 286.275 37.8241C285.081 42.1155 283.489 46.3071 281.996 50.5985C272.742 77.6443 263.588 104.69 254.334 131.736C253.14 135.229 253.936 137.524 256.523 140.019C267.966 151.097 279.21 162.374 290.554 173.652C292.345 175.448 293.937 177.544 295.628 179.44C295.23 180.039 294.733 180.638 294.335 181.137C291.549 179.54 288.464 178.243 286.175 176.147C276.424 167.165 266.872 157.983 257.319 148.702C255.429 146.905 254.135 144.51 252.642 142.414C251.946 142.714 251.349 143.113 250.652 143.412C243.687 169.859 236.622 196.207 229.657 222.654C228.861 222.254 228.164 222.155 227.368 221.955Z" fill="black"/>
<path d="M482.299 232.434C481.801 239.719 480.707 247.105 480.906 254.39C481.204 262.673 482.796 270.857 483.792 279.14C483.991 280.737 484.289 282.534 483.991 284.13C483.792 285.428 482.697 286.426 482 287.623C480.906 286.625 479.015 285.827 478.816 284.629C477.622 278.442 476.826 272.154 475.931 265.867C474.339 254.989 472.747 244.21 471.353 233.332C470.955 230.438 471.254 227.444 471.254 224.55C471.95 224.45 472.647 224.35 473.344 224.25C474.637 227.444 475.831 230.737 477.324 234.53C478.418 231.336 479.015 228.442 480.408 225.947C481.204 224.45 483.194 222.354 484.488 222.554C485.881 222.654 487.374 224.849 488.369 226.346C489.264 227.743 489.563 229.64 490.359 231.935C492.349 226.845 493.742 222.454 495.832 218.362C496.628 216.666 498.817 215.668 500.309 214.37C501.603 215.867 503.593 217.264 504.09 219.061C508.568 238.123 510.558 257.384 507.772 276.945C507.673 277.643 507.673 278.442 507.374 278.841C506.18 280.338 504.787 281.835 503.493 283.232C503.095 281.635 502.2 279.839 502.399 278.342C504.389 261.476 503.593 244.809 500.309 228.242C500.11 227.444 500.011 226.646 498.916 225.448C498.319 226.945 497.324 228.342 497.125 229.839C495.434 241.017 494.04 252.194 492.349 263.272C491.851 266.166 493.443 271.356 488.767 271.057C484.289 270.757 486.777 266.067 486.677 263.172C486.279 254.19 485.981 245.308 485.483 236.326C485.384 234.929 484.787 233.632 484.389 232.234C483.493 232.334 482.896 232.334 482.299 232.434Z" fill="black"/>
<path d="M478.219 83.2331C478.418 87.5245 478.617 90.8179 478.717 94.2111C478.219 94.4107 477.722 94.5105 477.224 94.7101C476.03 92.4147 474.239 90.2191 473.642 87.7241C468.767 69.7601 471.354 52.3949 479.314 35.928C483.891 26.5468 491.354 26.3472 496.329 35.5288C505.882 53.0935 509.165 71.7561 502.499 91.2171C500.807 96.2071 499.016 101.995 492.449 102.095C485.881 102.195 483.294 96.9057 481.105 91.8159C480.11 89.4207 479.414 86.8259 478.219 83.2331ZM482.996 47.5047C483.394 47.7043 483.792 48.0037 484.289 48.2033C484.389 48.5027 484.488 48.8021 484.488 49.1015C484.09 50.8979 483.593 52.6943 483.294 54.4907C481.105 67.3649 481.603 80.0395 487.175 92.0155C488.07 94.0115 490.459 96.1073 492.449 96.4067C493.742 96.6063 496.23 93.7121 496.827 91.8159C498.518 85.9277 500.309 79.9397 500.608 73.9517C501.205 61.2771 498.12 49.2013 491.553 38.3232C490.061 35.928 487.772 33.3332 485.682 37.2254C482.399 43.4129 480.011 50.0995 477.324 56.4867C477.722 56.6863 478.12 56.7861 478.518 56.9857C480.011 53.7921 481.503 50.5985 482.996 47.5047Z" fill="black"/>
<path d="M504.091 102.794C512.25 90.8178 525.385 84.3308 536.43 75.249C531.753 73.752 527.275 72.8538 523.096 70.9576C510.857 65.5684 505.484 55.3889 508.171 42.3151C510.061 32.9339 514.041 24.2513 520.708 17.2653C522.499 15.3691 524.788 13.0737 527.076 12.8741C529.763 12.5747 533.445 13.5727 535.236 15.4689C537.624 18.0637 537.226 21.7563 534.141 24.5507C533.644 24.2513 533.246 24.1515 533.047 23.8521C532.052 21.8561 531.057 19.9599 530.161 17.9639C528.071 19.2613 525.285 19.9599 524.191 21.8561C520.41 28.0437 516.33 34.3311 514.24 41.1175C510.459 53.2931 516.927 63.6722 529.166 67.1652C536.032 69.1612 542.798 68.9616 549.763 66.8658C551.256 66.3668 553.246 67.5644 555.037 67.9636C554.241 69.5604 553.943 71.8558 552.649 72.754C540.012 81.8358 527.275 90.718 514.439 99.6002C511.653 101.596 508.469 102.993 505.384 104.69C504.887 104.091 504.489 103.492 504.091 102.794Z" fill="black"/>
<path d="M442 241.815C440.607 242.713 439.214 243.412 437.92 244.41C425.78 253.592 424.387 266.466 426.178 280.238C426.775 284.529 429.661 285.527 432.945 282.434C441.801 273.751 447.174 263.372 446.676 250.598C446.477 246.306 445.98 241.915 446.278 237.723C446.477 235.927 448.567 234.33 449.761 232.634C450.856 234.23 452.647 235.827 452.945 237.524C453.443 240.917 453.244 244.51 453.045 247.903C452.647 255.787 454.239 263.272 458.318 269.859C460.408 273.352 464.09 275.847 467.174 278.941C463.692 284.629 458.915 281.436 449.861 266.765C446.975 271.555 444.189 276.645 441.005 281.436C439.313 283.831 437.124 286.026 434.636 287.623C429.064 291.416 422.895 289.22 421.601 282.533C418.517 266.965 422.198 253.192 434.039 242.214C435.631 240.717 438.318 240.318 440.507 239.42C440.905 240.318 441.502 241.017 442 241.815Z" fill="black"/>
</svg>
