<svg width="32" height="32" viewBox="0 0 32 32" fill="none" xmlns="http://www.w3.org/2000/svg">
<g clip-path="url(#clip0)">
<path d="M2.96988 6.4375H29.0171C30.6656 6.4375 32 7.77188 32 9.42038V19.363C32 21.0115 30.6656 22.3459 29.0171 22.3459H19.6763L20.9584 25.4856L15.3198 22.3459H2.98288C1.3345 22.3459 0.000126527 21.0115 0.000126527 19.363V9.42038C-0.0129985 7.785 1.32125 6.4375 2.96988 6.4375Z" fill="#9B5C8F"/>
<path d="M1.82226 9.15625C2.00439 8.909 2.27751 8.779 2.64176 8.753C3.30526 8.70088 3.68251 9.013 3.77351 9.6895C4.17676 12.4082 4.61901 14.7107 5.08726 16.5969L7.93601 11.1725C8.19626 10.6781 8.52151 10.418 8.91177 10.392C9.48414 10.353 9.83527 10.7171 9.97839 11.4846C10.3036 13.2146 10.7199 14.6846 11.2141 15.9334C11.5524 12.6294 12.1248 10.2489 12.9313 8.779C13.1263 8.41475 13.4125 8.23263 13.7898 8.2065C14.089 8.18063 14.3621 8.27163 14.6093 8.46675C14.8564 8.66188 14.9865 8.909 15.0125 9.20825C15.0255 9.44237 14.9865 9.6375 14.8825 9.83262C14.3751 10.7692 13.9588 12.3432 13.6206 14.5285C13.2955 16.6489 13.1784 18.301 13.2564 19.4847C13.2825 19.8097 13.2304 20.096 13.1004 20.3432C12.9441 20.6294 12.7101 20.7855 12.4109 20.8115C12.0726 20.8375 11.7215 20.6815 11.3833 20.3302C10.1735 19.0944 9.21089 17.2472 8.50852 14.7887C7.66289 16.4537 7.03852 17.7025 6.63526 18.535C5.86776 20.005 5.21739 20.7595 4.67101 20.7985C4.31976 20.8245 4.02064 20.5252 3.76051 19.901C3.09714 18.1969 2.38164 14.9057 1.61426 10.0277C1.56214 9.6895 1.64014 9.39025 1.82226 9.15625V9.15625ZM29.7768 11.1985C29.3085 10.379 28.619 9.88475 27.6955 9.6895C27.4483 9.6375 27.2143 9.6115 26.993 9.6115C25.7443 9.6115 24.7296 10.2619 23.9361 11.5627C23.2596 12.6684 22.9215 13.8911 22.9215 15.231C22.9215 16.2326 23.1296 17.0911 23.5459 17.8066C24.0141 18.6261 24.7036 19.1204 25.6271 19.3155C25.8743 19.3676 26.1084 19.3936 26.3296 19.3936C27.5914 19.3936 28.606 18.7432 29.3865 17.4424C30.0629 16.3236 30.4011 15.1009 30.4011 13.7611C30.4141 12.7465 30.193 11.9009 29.7768 11.1985V11.1985ZM28.1378 14.8017C27.9556 15.6602 27.6304 16.2976 27.149 16.7269C26.7719 17.0651 26.4206 17.2081 26.0955 17.1431C25.7833 17.0781 25.523 16.805 25.328 16.2976C25.1718 15.8944 25.0939 15.4911 25.0939 15.1139C25.0939 14.7887 25.1199 14.4635 25.1849 14.1644C25.302 13.631 25.5231 13.1106 25.8743 12.6164C26.3036 11.9789 26.7589 11.7189 27.2271 11.8099C27.5394 11.8749 27.7996 12.1481 27.9946 12.6554C28.1508 13.0586 28.2288 13.4619 28.2288 13.8391C28.2288 14.1774 28.2028 14.5025 28.1378 14.8016V14.8017ZM21.6336 11.1985C21.1654 10.379 20.4629 9.88475 19.5524 9.6895C19.3053 9.6375 19.0711 9.6115 18.8499 9.6115C17.6011 9.6115 16.5865 10.2619 15.793 11.5627C15.1166 12.6684 14.7784 13.8911 14.7784 15.231C14.7784 16.2326 14.9865 17.0911 15.4028 17.8066C15.871 18.6261 16.5605 19.1204 17.484 19.3155C17.7313 19.3676 17.9653 19.3936 18.1865 19.3936C19.4483 19.3936 20.4629 18.7432 21.2434 17.4424C21.9199 16.3236 22.258 15.1009 22.258 13.7611C22.258 12.7465 22.0499 11.9009 21.6336 11.1985V11.1985ZM19.9816 14.8017C19.7995 15.6602 19.4743 16.2976 18.993 16.7269C18.6158 17.0651 18.2645 17.2081 17.9393 17.1431C17.6271 17.0781 17.367 16.805 17.1718 16.2976C17.0158 15.8944 16.9378 15.4911 16.9378 15.1139C16.9378 14.7887 16.9638 14.4635 17.0288 14.1644C17.1459 13.631 17.367 13.1106 17.7183 12.6164C18.1475 11.9789 18.6028 11.7189 19.071 11.8099C19.3833 11.8749 19.6435 12.1481 19.8385 12.6554C19.9948 13.0586 20.0726 13.4619 20.0726 13.8391C20.0858 14.1774 20.0466 14.5025 19.9816 14.8016V14.8017Z" fill="white"/>
</g>
<defs>
<clipPath id="clip0">
<rect width="32" height="32" fill="white"/>
</clipPath>
</defs>
</svg>
