<svg width="32" height="32" viewBox="0 0 32 32" fill="none" xmlns="http://www.w3.org/2000/svg">
<path d="M2.70423 16C2.70423 8.65695 8.65695 2.70422 16 2.70422V0C7.16344 0 0 7.16344 0 16C0 24.8366 7.16344 32 16 32C24.8366 32 32 24.8366 32 16H29.2958C29.2958 23.3431 23.3431 29.2958 16 29.2958C8.65695 29.2958 2.70423 23.3431 2.70423 16Z" fill="black"/>
<path fill-rule="evenodd" clip-rule="evenodd" d="M25.1451 4.00846L24.5347 3.65606C24.5429 3.5367 24.5429 3.41707 24.5347 3.2977L25.1451 2.94531C25.3431 2.83101 25.4109 2.57786 25.2966 2.3799L24.556 1.09709C24.4418 0.89926 24.1885 0.831311 23.9906 0.945581L23.3802 1.29798C23.2808 1.231 23.1773 1.17114 23.0698 1.1185V0.413926C23.0698 0.185334 22.8845 0 22.6559 0H21.1746C20.9461 0 20.7607 0.185334 20.7607 0.413926V1.11845C20.6533 1.17108 20.5497 1.23098 20.4504 1.29792L19.84 0.945528C19.6422 0.831338 19.3888 0.899049 19.2746 1.09701L18.534 2.37982C18.4197 2.57778 18.4875 2.83093 18.6855 2.94523L19.2958 3.29762C19.2877 3.41699 19.2877 3.53662 19.2958 3.65599L18.6855 4.00841C18.4875 4.1227 18.4197 4.37585 18.534 4.57381L19.2746 5.85663C19.3888 6.05448 19.642 6.12238 19.84 6.00813L20.4504 5.65574C20.5497 5.72268 20.6533 5.7826 20.7607 5.83521V6.53976C20.7607 6.76835 20.9461 6.95366 21.1746 6.95366H22.6559C22.8845 6.95366 23.0698 6.76833 23.0698 6.53976V5.83521C23.1772 5.78258 23.2808 5.72271 23.3801 5.65574L23.9905 6.00813C24.1883 6.12238 24.4417 6.05466 24.5559 5.85671L25.2965 4.57389C25.4109 4.37591 25.3431 4.12275 25.1451 4.00846ZM21.9153 4.91474C21.1224 4.91474 20.4774 4.26969 20.4774 3.47683C20.4774 2.68397 21.1224 2.03892 21.9153 2.03892C22.7081 2.03892 23.3532 2.68397 23.3532 3.47683C23.3532 4.26969 22.7081 4.91474 21.9153 4.91474Z" fill="black"/>
<path fill-rule="evenodd" clip-rule="evenodd" d="M30.964 9.52953L31.793 10.0082C31.9909 10.1224 32.0587 10.3758 31.9444 10.5735L31.0103 12.1915C30.896 12.3895 30.6429 12.4574 30.4449 12.343L29.6158 11.8644C29.4596 11.9745 29.2944 12.07 29.1214 12.1503V13.1072C29.1214 13.3357 28.936 13.5211 28.7075 13.5211H26.8392C26.6106 13.5211 26.4253 13.3358 26.4253 13.1072V12.1502C26.2522 12.07 26.087 11.9744 25.9308 11.8643L25.1018 12.343C24.9038 12.4573 24.6506 12.3894 24.5364 12.1915L23.6022 10.5735C23.4879 10.3756 23.5559 10.1223 23.7537 10.0081L24.5827 9.52945C24.5657 9.33934 24.5657 9.14854 24.5827 8.95843L23.7537 8.4798C23.5558 8.3655 23.4879 8.11235 23.6022 7.91439L24.5364 6.2964C24.6507 6.09847 24.9039 6.03071 25.1018 6.14492L25.9308 6.6236C26.0871 6.5135 26.2523 6.41796 26.4253 6.33768V5.38082C26.4253 5.15225 26.6107 4.96692 26.8392 4.96692H28.7075C28.9361 4.96692 29.1214 5.15223 29.1214 5.38082V6.33773C29.2945 6.41798 29.4597 6.51353 29.6159 6.62365L30.4449 6.14497C30.6429 6.03068 30.8962 6.09865 31.0103 6.29648L31.9445 7.91447C32.0588 8.11243 31.9909 8.36558 31.793 8.47988L30.964 8.9585C30.981 9.14862 30.981 9.33942 30.964 9.52953ZM26.068 9.24403C26.068 10.1844 26.833 10.9495 27.7734 10.9495C28.7138 10.9495 29.4788 10.1844 29.4788 9.24403C29.4788 8.30365 28.7138 7.5386 27.7734 7.5386C26.833 7.5386 26.068 8.30365 26.068 9.24403Z" fill="black"/>
<path d="M24.7887 22.5352L15.7746 4.50704L6.76056 22.5352H14.8732V27.0422H16.6761V22.5352H24.7887Z" fill="black"/>
</svg>
