<svg width="51" height="40" viewBox="0 0 51 40" fill="none" xmlns="http://www.w3.org/2000/svg">
<path d="M16.4342 35.0507C16.1581 35.4728 16.4342 37.7242 18.7809 38.7092C21.1275 39.6942 23.1981 38.0057 27.8914 38.0057C32.5848 38.0057 35.6216 40.2571 36.1738 39.9757C36.7259 39.6942 38.7965 31.1108 38.7965 31.1108C38.7965 31.1108 50.1157 30.8293 50.944 20.5572C51.7722 10.2852 43.2138 7.47092 38.7965 7.47092C34.3793 7.47092 33.8271 8.59662 33.8271 8.59662C33.8271 8.59662 34.5173 9.86304 40.0389 10.0038C34.7934 11.5516 30.7903 9.58165 27.6154 6.20453L27.5917 6.17939C24.4285 2.81468 22.0274 0.26065 16.2962 0.013153C7.07693 -0.384966 -0.268543 8.3152 0.00753485 17.8837C0.283613 27.4522 9.3942 32.5179 14.0875 32.94C18.7809 33.3621 21.5416 32.5179 24.4405 30.5479C23.1981 32.94 16.7103 34.6286 16.4342 35.0507Z" fill="#0373AA"/>
</svg>
