<?xml version="1.0" encoding="UTF-8"?> <svg xmlns="http://www.w3.org/2000/svg" xmlns:xlink="http://www.w3.org/1999/xlink" version="1.1" id="svg-8319" x="0px" y="0px" viewBox="0 0 512.001 512.001" style="enable-background:new 0 0 512.001 512.001; fill:#696969;" xml:space="preserve"><g><g><path d="M290.293,256.534h-0.086c-4.427,0-7.974,3.589-7.974,8.017s3.632,8.017,8.06,8.017s8.017-3.589,8.017-8.017&#10;&#9;&#9;&#9;S294.72,256.534,290.293,256.534z"></path></g></g><g><g><path d="M290.378,376.251h-0.086c-4.427,0-7.974,3.589-7.974,8.017c0,4.427,3.632,8.017,8.06,8.017&#10;&#9;&#9;&#9;c4.427,0,8.017-3.589,8.017-8.017C298.395,379.84,294.806,376.251,290.378,376.251z"></path></g></g><g><g><path d="M290.293,196.676h-0.086c-4.427,0-7.974,3.589-7.974,8.017s3.632,8.017,8.06,8.017s8.017-3.589,8.017-8.017&#10;&#9;&#9;&#9;S294.72,196.676,290.293,196.676z"></path></g></g><g><g><path d="M290.293,316.393h-0.086c-4.427,0-7.974,3.589-7.974,8.017s3.632,8.017,8.059,8.017s8.017-3.589,8.017-8.017&#10;&#9;&#9;&#9;S294.72,316.393,290.293,316.393z"></path></g></g><g><g><path d="M477.626,386.505l-7.437-275.179c-0.656-24.286-16.47-46.094-39.349-54.266L346.71,27.014L331.082,3.57&#10;&#9;&#9;&#9;c-1.281-1.921-3.326-3.196-5.615-3.5c-0.352-0.047-0.703-0.062-1.055-0.062V0H187.593v0.008c-0.351,0-0.702,0.015-1.055,0.062&#10;&#9;&#9;&#9;c-2.289,0.304-4.335,1.58-5.615,3.5l-15.628,23.443L81.161,57.061c-22.879,8.172-38.692,29.979-39.348,54.265l-7.437,275.179&#10;&#9;&#9;&#9;c-0.186,6.894,3.927,13.158,10.275,15.764l-1.52,26.598c-0.415,7.243,3.862,13.844,10.641,16.428l48.875,18.625&#10;&#9;&#9;&#9;c0.309,7.195,5.258,13.429,12.269,15.298l121.92,32.513c0.681,0.181,1.375,0.27,2.065,0.27c1.57,0,3.122-0.462,4.453-1.35&#10;&#9;&#9;&#9;c1.917-1.281,3.19-3.323,3.494-5.607l9.156-68.669l9.155,68.669c0.305,2.284,1.578,4.327,3.494,5.607&#10;&#9;&#9;&#9;c1.917,1.279,4.291,1.673,6.518,1.08l121.926-32.514c7.01-1.869,11.96-8.104,12.269-15.3l48.866-18.621&#10;&#9;&#9;&#9;c6.779-2.583,11.056-9.185,10.641-16.427l-1.52-26.598C473.699,399.664,477.813,393.4,477.626,386.505z M331.972,33.81&#10;&#9;&#9;&#9;L297.05,89.683c-0.034,0.056-0.127,0.203-0.362,0.244c-0.237,0.042-0.372-0.068-0.423-0.109l-27.773-22.219l54.32-47.53&#10;&#9;&#9;&#9;L331.972,33.81z M189.194,20.068l54.32,47.53l-27.773,22.219c-0.051,0.041-0.186,0.151-0.423,0.109&#10;&#9;&#9;&#9;c-0.236-0.041-0.328-0.187-0.363-0.244L180.033,33.81L189.194,20.068z M102.616,446.75l-43.135-16.437&#10;&#9;&#9;&#9;c-0.219-0.083-0.357-0.296-0.343-0.53l1.233-21.594l42.245,15.846V446.75z M247.987,375.192h-0.001l-15.827,118.696&#10;&#9;&#9;&#9;l-113.111-30.163c-0.234-0.062-0.398-0.275-0.398-0.516V153.386c0-4.427-3.589-8.017-8.017-8.017&#10;&#9;&#9;&#9;c-4.427,0-8.017,3.589-8.017,8.017v253.524l-51.867-19.457c-0.214-0.08-0.353-0.286-0.346-0.515l7.437-275.179&#10;&#9;&#9;&#9;c0.479-17.722,12.019-33.636,28.714-39.599l80.558-28.771l34.245,54.793c2.503,4.006,6.61,6.759,11.267,7.552&#10;&#9;&#9;&#9;c0.924,0.157,1.852,0.235,2.778,0.235c3.736,0,7.398-1.265,10.354-3.63l22.23-17.784V375.192z M256.003,57.222L208.93,16.033&#10;&#9;&#9;&#9;h94.146L256.003,57.222z M452.521,430.312l-43.11,16.428l0.022-22.724l42.197-15.829l1.234,21.595&#10;&#9;&#9;&#9;C452.878,430.016,452.739,430.229,452.521,430.312z M461.253,387.454l-51.803,19.432l0.248-253.492&#10;&#9;&#9;&#9;c0.004-4.427-3.582-8.02-8.009-8.024c-0.002,0-0.005,0-0.007,0c-4.424,0-8.012,3.584-8.017,8.009l-0.302,309.829&#10;&#9;&#9;&#9;c0,0.242-0.164,0.454-0.397,0.515l-113.119,30.165l-15.827-118.711V84.554l22.23,17.784c2.957,2.365,6.619,3.63,10.354,3.63&#10;&#9;&#9;&#9;c0.925,0,1.853-0.078,2.778-0.235c4.657-0.793,8.764-3.545,11.267-7.551l34.245-54.793l80.555,28.77&#10;&#9;&#9;&#9;c16.696,5.963,28.235,21.877,28.714,39.599l7.437,275.179C461.605,387.167,461.466,387.373,461.253,387.454z"></path></g></g><g><g><path d="M213.247,145.37h-68.409c-4.427,0-8.017,3.589-8.017,8.017v59.858c0,13.851,11.268,25.119,25.119,25.119h34.205&#10;&#9;&#9;&#9;c13.851,0,25.119-11.268,25.119-25.119v-59.858C221.264,148.959,217.674,145.37,213.247,145.37z M205.23,213.244&#10;&#9;&#9;&#9;c0,5.01-4.076,9.086-9.086,9.086H161.94c-5.01,0-9.086-4.076-9.086-9.086v-19.345c2.82,1.099,5.882,1.708,9.086,1.708h34.205&#10;&#9;&#9;&#9;c3.203,0,6.266-0.609,9.086-1.708V213.244z M205.23,170.489c0,5.01-4.076,9.086-9.086,9.086H161.94&#10;&#9;&#9;&#9;c-5.01,0-9.086-4.076-9.086-9.086v-9.086h52.376V170.489z"></path></g></g><g><g><circle cx="290.205" cy="144.835" r="8.017"></circle></g></g><g></g><g></g><g></g><g></g><g></g><g></g><g></g><g></g><g></g><g></g><g></g><g></g><g></g><g></g><g></g></svg> 