<?xml version="1.0" encoding="UTF-8"?> <svg xmlns="http://www.w3.org/2000/svg" xmlns:xlink="http://www.w3.org/1999/xlink" version="1.1" id="svg-2132" x="0px" y="0px" viewBox="0 0 512 512" style="enable-background:new 0 0 512 512; fill:#696969;" xml:space="preserve"><g><g><path d="M444.69,96.284c-0.796-20.716-13.9-38.68-33.384-45.765l-64.583-23.485L331.08,3.57c-1.281-1.921-3.326-3.196-5.615-3.5&#10;&#9;&#9;&#9;c-0.352-0.047-0.703-0.062-1.055-0.062V0H187.591v0.008c-0.351,0-0.703,0.016-1.055,0.063c-2.289,0.304-4.335,1.58-5.615,3.5&#10;&#9;&#9;&#9;l-15.643,23.464l-64.584,23.485c-19.484,7.086-32.587,25.05-33.384,45.765l-6.913,179.732&#10;&#9;&#9;&#9;c-0.454,11.813,7.54,22.468,19.008,25.334l54.771,13.694l2.584,18.087l-16.065,160.654c-0.465,4.649,1.067,9.302,4.202,12.765&#10;&#9;&#9;&#9;c3.135,3.464,7.613,5.451,12.284,5.451h237.636c4.672,0,9.15-1.986,12.284-5.451c3.135-3.463,4.667-8.117,4.202-12.765&#10;&#9;&#9;&#9;L375.238,333.13l2.583-18.087l54.771-13.694c11.468-2.867,19.462-13.52,19.009-25.334L444.69,96.284z M331.971,33.81&#10;&#9;&#9;&#9;L297.05,89.683c-0.035,0.057-0.127,0.203-0.363,0.245c-0.236,0.034-0.372-0.068-0.423-0.11l-27.773-22.219l54.32-47.53&#10;&#9;&#9;&#9;L331.971,33.81z M189.191,20.068l54.32,47.53l-27.773,22.219c-0.051,0.041-0.186,0.143-0.423,0.11&#10;&#9;&#9;&#9;c-0.236-0.041-0.328-0.188-0.363-0.244L180.031,33.81L189.191,20.068z M83.294,285.795c-4.147-1.037-7.039-4.89-6.874-9.163&#10;&#9;&#9;&#9;l0.715-18.605l50.708,12.678l3.885,27.199L83.294,285.795z M247.984,495.967H137.182c-0.065,0-0.237,0-0.397-0.176&#10;&#9;&#9;&#9;c-0.159-0.175-0.142-0.346-0.136-0.411l16.163-161.621c0.064-0.643,0.05-1.291-0.041-1.931l-25.653-179.574&#10;&#9;&#9;&#9;c-0.626-4.383-4.692-7.422-9.07-6.802c-4.383,0.626-7.429,4.687-6.802,9.07l14.15,99.046l-47.63-11.909l5.568-144.757&#10;&#9;&#9;&#9;c0.545-14.174,9.51-26.465,22.841-31.312l60.956-22.166l34.225,54.76c2.503,4.005,6.61,6.756,11.267,7.55&#10;&#9;&#9;&#9;c0.925,0.157,1.852,0.235,2.778,0.235c3.736,0,7.398-1.265,10.354-3.63l22.228-17.782V495.967z M208.928,16.033h94.145&#10;&#9;&#9;&#9;l-47.072,41.189L208.928,16.033z M359.229,331.826c-0.091,0.64-0.105,1.288-0.041,1.932l16.163,161.621&#10;&#9;&#9;&#9;c0.006,0.065,0.024,0.236-0.136,0.412c-0.159,0.176-0.331,0.176-0.397,0.176H264.017V84.555l22.23,17.784&#10;&#9;&#9;&#9;c2.958,2.365,6.619,3.63,10.354,3.63c0.925,0,1.853-0.077,2.778-0.235c4.656-0.793,8.763-3.544,11.267-7.551l34.225-54.759&#10;&#9;&#9;&#9;l60.957,22.166c13.331,4.847,22.296,17.139,22.841,31.312l5.568,144.757l-47.63,11.909l14.15-99.046&#10;&#9;&#9;&#9;c0.625-4.384-2.42-8.443-6.802-9.07c-4.384-0.616-8.443,2.42-9.07,6.802L359.229,331.826z M428.706,285.795l-48.435,12.109&#10;&#9;&#9;&#9;l3.885-27.199l50.708-12.678l0.715,18.605C435.746,280.905,432.854,284.759,428.706,285.795z"></path></g></g><g><g><path d="M290.205,256.534h-0.086c-4.427,0-7.974,3.588-7.974,8.017c0,4.428,3.632,8.017,8.059,8.017s8.017-3.588,8.017-8.017&#10;&#9;&#9;&#9;C298.222,260.123,294.633,256.534,290.205,256.534z"></path></g></g><g><g><path d="M290.291,376.251h-0.086c-4.427,0-7.974,3.588-7.974,8.017c0,4.428,3.632,8.017,8.059,8.017&#10;&#9;&#9;&#9;c4.427,0,8.017-3.588,8.017-8.017C298.307,379.839,294.718,376.251,290.291,376.251z"></path></g></g><g><g><path d="M290.291,436.109h-0.086c-4.427,0-7.974,3.588-7.974,8.017c0,4.428,3.632,8.017,8.059,8.017&#10;&#9;&#9;&#9;c4.427,0,8.017-3.588,8.017-8.017C298.307,439.697,294.718,436.109,290.291,436.109z"></path></g></g><g><g><path d="M290.205,196.676h-0.086c-4.427,0-7.974,3.588-7.974,8.017s3.632,8.017,8.059,8.017s8.017-3.588,8.017-8.017&#10;&#9;&#9;&#9;S294.633,196.676,290.205,196.676z"></path></g></g><g><g><path d="M290.205,316.393h-0.086c-4.427,0-7.974,3.588-7.974,8.017c0,4.428,3.632,8.017,8.059,8.017s8.017-3.588,8.017-8.017&#10;&#9;&#9;&#9;C298.222,319.981,294.633,316.393,290.205,316.393z"></path></g></g><g><g><circle cx="290.205" cy="144.835" r="8.017"></circle></g></g><g></g><g></g><g></g><g></g><g></g><g></g><g></g><g></g><g></g><g></g><g></g><g></g><g></g><g></g><g></g></svg> 