<?xml version="1.0" encoding="UTF-8"?> <svg xmlns="http://www.w3.org/2000/svg" xmlns:xlink="http://www.w3.org/1999/xlink" version="1.1" id="svg-2378" x="0px" y="0px" viewBox="0 0 512 512" style="enable-background:new 0 0 512 512; fill:#696969;" xml:space="preserve"><g><g><path d="M470.935,395.182l-9.128-268.983c-0.785-23.138-15.101-43.844-36.473-52.748L390.149,58.79l-28.237-46.673&#10;&#9;&#9;&#9;C357.391,4.643,349.157,0,340.421,0H171.58c-8.735,0-16.971,4.643-21.492,12.117L121.851,58.79L86.666,73.451&#10;&#9;&#9;&#9;c-21.371,8.905-35.687,29.609-36.473,52.748l-9.128,268.982c-0.232,6.807,3.811,13.135,10.067,15.8l-1.433,30.098&#10;&#9;&#9;&#9;c-0.323,6.793,3.641,13.202,9.864,15.947l60.154,26.53v11.877c0,9.136,7.432,16.568,16.568,16.568h239.432&#10;&#9;&#9;&#9;c9.136,0,16.568-7.432,16.568-16.568v-11.877l60.153-26.53c6.223-2.745,10.187-9.153,9.864-15.947l-1.433-30.098&#10;&#9;&#9;&#9;C467.124,408.315,471.167,401.987,470.935,395.182z M347.81,19.864c0.13,0.183,0.268,0.358,0.386,0.553l16.899,27.934&#10;&#9;&#9;&#9;l-3.714-1.548c-7.573-3.155-16.226-2.409-23.147,1.996L265.47,95.103c-5.095,3.243-11.509,3.608-16.906,1.104L347.81,19.864z&#10;&#9;&#9;&#9; M326.494,16.033l-67.991,52.3l-71.912-52.3H326.494z M163.806,20.416c0.158-0.262,0.34-0.506,0.523-0.748l80.927,58.856&#10;&#9;&#9;&#9;l-11.217,8.628l-60.271-38.354c-6.921-4.405-15.574-5.151-23.147-1.996l-3.714,1.548L163.806,20.416z M66.031,442.355&#10;&#9;&#9;&#9;c-0.199-0.088-0.326-0.295-0.316-0.514l1.158-24.315l36.763,15.272l-0.571,19.234c-0.062,2.402,0.218,4.754,0.805,7.012&#10;&#9;&#9;&#9;L66.031,442.355z M376.251,478.423c0,0.017,0,0.033,0,0.05v16.959c0,0.294-0.239,0.534-0.534,0.534H136.284&#10;&#9;&#9;&#9;c-0.295,0-0.534-0.241-0.534-0.534v-16.959c0-0.017,0-0.033,0-0.05v-0.627h240.501V478.423z M445.967,442.356l-37.841,16.69&#10;&#9;&#9;&#9;c0.589-2.265,0.869-4.629,0.807-7.045l-0.57-19.202l36.764-15.272l1.158,24.315C446.296,442.06,446.168,442.268,445.967,442.356z&#10;&#9;&#9;&#9; M454.582,396.237l-46.727,19.411l-7.024-236.846c-0.131-4.425-3.859-7.919-8.251-7.775c-4.426,0.131-7.907,3.826-7.775,8.251&#10;&#9;&#9;&#9;l8.1,273.166c0.064,2.47-0.851,4.805-2.576,6.574c-1.724,1.77-4.035,2.744-6.506,2.744H128.178c-2.471,0-4.782-0.975-6.506-2.744&#10;&#9;&#9;&#9;c-1.725-1.769-2.64-4.105-2.577-6.542l8.101-273.198c0.131-4.426-3.35-8.12-7.775-8.251c-4.408-0.143-8.119,3.349-8.251,7.775&#10;&#9;&#9;&#9;l-7.024,236.846l-46.727-19.411c-0.204-0.084-0.336-0.29-0.329-0.512l9.128-268.982c0.573-16.884,11.02-31.994,26.615-38.492&#10;&#9;&#9;&#9;l63.954-26.648c2.738-1.141,5.868-0.871,8.373,0.721l65.721,41.824v117.647c0,4.427,3.589,8.017,8.017,8.017&#10;&#9;&#9;&#9;s8.017-3.589,8.017-8.017V112.623c5.936,1.652,12.236,1.652,18.171,0v109.172c0,4.427,3.589,8.017,8.017,8.017&#10;&#9;&#9;&#9;s8.017-3.589,8.017-8.017V104.149l65.722-41.824c2.502-1.593,5.634-1.862,8.372-0.722l63.954,26.648&#10;&#9;&#9;&#9;c15.595,6.498,26.042,21.608,26.615,38.492l9.128,268.983C454.918,395.947,454.786,396.152,454.582,396.237z"></path></g></g><g><g><path d="M356.937,414.347c-0.248-0.415-24.916-42.034-33.142-99.623c-0.564-3.95-3.946-6.883-7.937-6.883H196.143&#10;&#9;&#9;&#9;c-3.989,0-7.372,2.933-7.937,6.883c-8.201,57.406-32.897,99.213-33.142,99.623c-1.486,2.476-1.525,5.56-0.102,8.074&#10;&#9;&#9;&#9;c1.423,2.514,4.087,4.067,6.976,4.067h188.125c2.888,0,5.553-1.553,6.976-4.067C358.462,419.907,358.423,416.824,356.937,414.347z&#10;&#9;&#9;&#9; M175.276,410.455c7.958-16.172,21.184-47.305,27.737-86.58h105.977c6.552,39.275,19.779,70.408,27.737,86.58H175.276z"></path></g></g><g></g><g></g><g></g><g></g><g></g><g></g><g></g><g></g><g></g><g></g><g></g><g></g><g></g><g></g><g></g></svg> 