<?xml version="1.0" encoding="UTF-8"?> <svg xmlns="http://www.w3.org/2000/svg" xmlns:xlink="http://www.w3.org/1999/xlink" version="1.1" id="svg-3811" x="0px" y="0px" viewBox="0 0 512 512" style="enable-background:new 0 0 512 512; fill:#696969;" xml:space="preserve"><g><g><path d="M470.734,389.274l-8.957-271.582c-0.764-23.164-15.081-43.892-36.475-52.804l-70.138-29.224L330.823,3.207&#10;&#9;&#9;&#9;C329.309,1.188,326.932,0,324.409,0H187.591c-2.523,0-4.9,1.188-6.413,3.207l-24.342,32.456L86.698,64.886&#10;&#9;&#9;&#9;C65.304,73.8,50.987,94.527,50.223,117.69l-8.957,271.574c-0.279,8.211,3.554,15.955,9.91,20.82l-1.226,25.744&#10;&#9;&#9;&#9;c-0.471,9.913,4.955,19.195,13.827,23.647l55.939,28.063v7.894c0,9.136,7.432,16.568,16.568,16.568h239.432&#10;&#9;&#9;&#9;c9.136,0,16.568-7.432,16.568-16.568v-7.894l55.939-28.063c8.872-4.451,14.299-13.733,13.827-23.646l-1.226-25.744&#10;&#9;&#9;&#9;C467.179,405.223,471.012,397.48,470.734,389.274z M325.994,23.492l14.448,19.265c-23.601,38.865-58.312,66.209-76.426,78.781&#10;&#9;&#9;&#9;V97.214C274.145,88.365,307.844,57.495,325.994,23.492z M70.967,445.146c-3.209-1.611-5.172-4.967-5.002-8.554l0.909-19.073&#10;&#9;&#9;&#9;l44.292,18.368v25.341c0,1.521,0.223,2.989,0.609,4.389L70.967,445.146z M247.983,495.967H136.284&#10;&#9;&#9;&#9;c-0.294,0-0.534-0.241-0.534-0.534v-17.637h112.234V495.967z M247.983,461.762h-120.25c-0.294,0-0.534-0.241-0.534-0.534V179.04&#10;&#9;&#9;&#9;c0-4.428-3.588-8.017-8.017-8.017s-8.017,3.588-8.017,8.017v239.489l-48.279-20.02c-3.475-1.444-5.723-4.939-5.595-8.707&#10;&#9;&#9;&#9;l8.957-271.581c0.557-16.903,11.004-32.028,26.617-38.534l65.734-27.389c30.245,49.143,75.601,79.902,89.384,88.509V461.762z&#10;&#9;&#9;&#9; M247.983,121.552c-18.099-12.542-52.779-39.843-76.427-78.796l14.449-19.265c18.151,34.003,51.85,64.873,61.978,73.722V121.552z&#10;&#9;&#9;&#9; M200.197,16.033h111.604c-15.425,28.833-44.134,56.319-55.804,66.835C244.327,72.36,215.63,44.899,200.197,16.033z&#10;&#9;&#9;&#9; M376.251,495.432c0,0.294-0.241,0.534-0.534,0.534H264.017v-18.171h112.234V495.432z M441.033,445.145l-40.807,20.47&#10;&#9;&#9;&#9;c0.386-1.4,0.608-2.867,0.608-4.388v-25.341l44.292-18.367l0.909,19.073C446.205,440.179,444.242,443.535,441.033,445.145z&#10;&#9;&#9;&#9; M449.119,398.507l-48.284,20.021V179.04c0-4.428-3.588-8.017-8.017-8.017c-4.428,0-8.017,3.588-8.017,8.017v282.188&#10;&#9;&#9;&#9;c0,0.294-0.241,0.534-0.534,0.534h-120.25V140.805c13.783-8.607,59.139-39.365,89.384-88.509l65.734,27.389&#10;&#9;&#9;&#9;c15.612,6.505,26.06,21.63,26.617,38.534l8.957,271.591C454.837,393.57,452.589,397.065,449.119,398.507z"></path></g></g><g><g><path d="M181.575,342.457c-4.203-1.399-8.741,0.869-10.141,5.07l-25.653,76.96c-1.4,4.201,0.869,8.741,5.07,10.141&#10;&#9;&#9;&#9;c0.841,0.28,1.696,0.414,2.536,0.414c3.356,0,6.484-2.124,7.604-5.483l25.653-76.96&#10;&#9;&#9;&#9;C188.045,348.397,185.776,343.857,181.575,342.457z"></path></g></g><g><g><path d="M366.219,424.488l-25.653-76.96c-1.401-4.2-5.94-6.468-10.141-5.07c-4.201,1.4-6.47,5.941-5.07,10.141l25.653,76.96&#10;&#9;&#9;&#9;c1.12,3.36,4.248,5.483,7.604,5.483c0.84,0,1.695-0.134,2.536-0.414C365.35,433.228,367.619,428.687,366.219,424.488z"></path></g></g><g><g><path d="M290.205,153.963c-4.428,0-8.017,3.631-8.017,8.059s3.588,8.017,8.017,8.017c4.428,0,8.017-3.588,8.017-8.017v-0.086&#10;&#9;&#9;&#9;C298.221,157.509,294.633,153.963,290.205,153.963z"></path></g></g><g><g><path d="M290.205,256.577c-4.428,0-8.017,3.631-8.017,8.059s3.588,8.017,8.017,8.017c4.428,0,8.017-3.588,8.017-8.017v-0.086&#10;&#9;&#9;&#9;C298.221,260.123,294.633,256.577,290.205,256.577z"></path></g></g><g><g><path d="M290.205,359.191c-4.428,0-8.017,3.631-8.017,8.06c0,4.428,3.588,8.017,8.017,8.017c4.428,0,8.017-3.588,8.017-8.017&#10;&#9;&#9;&#9;v-0.086C298.221,362.737,294.633,359.191,290.205,359.191z"></path></g></g><g><g><path d="M290.205,205.185c-4.428,0-8.017,3.631-8.017,8.059s3.588,8.017,8.017,8.017c4.428,0,8.017-3.588,8.017-8.017v-0.086&#10;&#9;&#9;&#9;C298.221,208.73,294.633,205.185,290.205,205.185z"></path></g></g><g><g><path d="M290.205,307.799c-4.428,0-8.017,3.631-8.017,8.059c0,4.428,3.588,8.017,8.017,8.017c4.428,0,8.017-3.588,8.017-8.017&#10;&#9;&#9;&#9;v-0.086C298.221,311.344,294.633,307.799,290.205,307.799z"></path></g></g><g><g><path d="M290.205,410.412c-4.428,0-8.017,3.631-8.017,8.059c0,4.428,3.588,8.017,8.017,8.017c4.428,0,8.017-3.588,8.017-8.017&#10;&#9;&#9;&#9;v-0.085C298.221,413.958,294.633,410.412,290.205,410.412z"></path></g></g><g></g><g></g><g></g><g></g><g></g><g></g><g></g><g></g><g></g><g></g><g></g><g></g><g></g><g></g><g></g></svg> 