<?xml version="1.0" encoding="UTF-8"?> <!-- Generator: Adobe Illustrator 18.0.0, SVG Export Plug-In . SVG Version: 6.00 Build 0) --> <svg xmlns="http://www.w3.org/2000/svg" xmlns:xlink="http://www.w3.org/1999/xlink" version="1.1" id="Capa_1" x="0px" y="0px" viewBox="0 0 452.922 452.922" style="enable-background:new 0 0 452.922 452.922;" xml:space="preserve"> <g> <path d="M27.747,0v452.922h397.428V0H27.747z M164.89,178.49L288.032,55.347v24.298L164.89,202.788V178.49z M164.89,212.688 L288.032,89.545v169.026L164.89,381.713V212.688z M164.89,391.614l123.143-123.143v158.313H164.89V391.614z M288.032,7v38.448 L164.89,168.59V7H288.032z M34.747,7H157.89v419.783H34.747V7z M418.175,445.922H34.747v-12.139h383.428V445.922z M295.032,426.783 V7h123.143v419.783H295.032z"></path> <rect x="42.583" y="200.6" width="7" height="32.583"></rect> <rect x="403.339" y="200.6" width="7" height="32.583"></rect> </g> <g> </g> <g> </g> <g> </g> <g> </g> <g> </g> <g> </g> <g> </g> <g> </g> <g> </g> <g> </g> <g> </g> <g> </g> <g> </g> <g> </g> <g> </g> </svg> 