<?xml version="1.0" encoding="UTF-8"?> <!-- Generator: Adobe Illustrator 18.0.0, SVG Export Plug-In . SVG Version: 6.00 Build 0) --> <svg xmlns="http://www.w3.org/2000/svg" xmlns:xlink="http://www.w3.org/1999/xlink" version="1.1" id="Capa_1" x="0px" y="0px" viewBox="0 0 410.229 410.229" style="enable-background:new 0 0 410.229 410.229;" xml:space="preserve"> <g> <path d="M316.216,77.871H94.014v144.363h222.203V77.871z M309.216,84.871v5.348H101.014v-5.348H309.216z M309.216,97.219v105.667 H101.014V97.219H309.216z M101.014,215.234v-5.349h208.203v5.349H101.014z"></path> <path d="M72.887,321.859h11.609v10.499h7v-10.499h227.237v10.499h7v-10.499h11.609v-61.688H72.887V321.859z M330.342,314.859 H208.615v-47.688h121.728V314.859z M79.887,267.172h121.728v47.688H79.887V267.172z"></path> <path d="M49.998,77.871H11.5v247.487H0v7h11.5h38.499h11.499v-7H49.998V77.871z M42.998,84.871v108.494H18.5V84.871H42.998z M18.5,325.358V200.365h24.499v124.993H18.5z"></path> <path d="M398.73,325.358V77.871h-38.499v247.487h-11.499v7h61.497v-7H398.73z M391.73,84.871v108.494h-24.499V84.871H391.73z M367.232,325.358V200.365h24.499v124.993H367.232z"></path> <rect x="190.615" y="284.016" width="7" height="14"></rect> <rect x="212.615" y="284.016" width="7" height="14"></rect> </g> <g> </g> <g> </g> <g> </g> <g> </g> <g> </g> <g> </g> <g> </g> <g> </g> <g> </g> <g> </g> <g> </g> <g> </g> <g> </g> <g> </g> <g> </g> </svg> 