<?xml version="1.0" encoding="UTF-8"?> <!-- Generator: Adobe Illustrator 18.0.0, SVG Export Plug-In . SVG Version: 6.00 Build 0) --> <svg xmlns="http://www.w3.org/2000/svg" xmlns:xlink="http://www.w3.org/1999/xlink" version="1.1" id="Capa_1" x="0px" y="0px" viewBox="0 0 433.784 433.784" style="enable-background:new 0 0 433.784 433.784;" xml:space="preserve"> <g> <path d="M247.667,0v341H48.975v92.784h198.692h7H384.81V0H247.667z M247.667,426.784H55.975V348h191.692V426.784z M377.81,426.784 H254.667V7H377.81V426.784z"></path> <rect x="265.315" y="191.602" width="7" height="50.581"></rect> <rect x="126.53" y="358" width="50.581" height="7"></rect> <path d="M68.825,93.098h7V74.661h40.498v18.437h7V74.661h40.497v15.023l-0.242,0.596c-0.808,1.987-19.757,49.363-18.256,109.399 c1.479,59.147,0.018,90.927,0.003,91.241l-0.174,3.666h50.668v-92.575c0-10.851-0.707-21.733-2.101-32.345 c-3.515-26.769-10.319-61.691-22.898-78.632V74.661h40.498v18.437h7V74.661h20.173V48.445H48.975v26.216h19.851V93.098z M188.819,202.012v85.575h-36.363c0.334-9.971,1.064-40.077-0.136-88.083c-1.155-46.191,10.451-85.583,15.484-100.358 c10.628,17.982,16.381,51.688,18.975,71.434C188.133,180.889,188.819,191.465,188.819,202.012z M55.975,55.445h175.517v12.216 H55.975V55.445z"></path> </g> <g> </g> <g> </g> <g> </g> <g> </g> <g> </g> <g> </g> <g> </g> <g> </g> <g> </g> <g> </g> <g> </g> <g> </g> <g> </g> <g> </g> <g> </g> </svg> 