<?xml version="1.0" encoding="UTF-8"?> <!-- Generator: Adobe Illustrator 19.0.0, SVG Export Plug-In . SVG Version: 6.00 Build 0) --> <svg xmlns="http://www.w3.org/2000/svg" xmlns:xlink="http://www.w3.org/1999/xlink" version="1.1" id="Capa_1" x="0px" y="0px" viewBox="0 0 512 512" style="enable-background:new 0 0 512 512;" xml:space="preserve" fill="#b7b7b7"> <g> <g> <path d="M511.999,396.977V128.32c0-1.164-0.27-2.263-0.737-3.249l0.006-0.003L454.15,4.352c-1.257-2.657-3.934-4.351-6.873-4.351 H286.126c-0.007,0-0.013-0.001-0.02-0.001h-60.214c-0.007,0-0.013,0.001-0.02,0.001H64.723c-2.939,0-5.616,1.694-6.873,4.351 L0.732,125.069l0.006,0.003c-0.467,0.985-0.737,2.084-0.737,3.248v376.076c0,4.199,3.404,7.604,7.604,7.604h496.791 c4.2,0,7.604-3.405,7.604-7.604v-87.14h-15.208v79.536h-194.09v-96.794c0-4.199-3.404-7.604-7.604-7.604h-78.199 c-4.2,0-7.604,3.405-7.604,7.604v96.794H15.208V135.924h60.399v-15.208H19.615L69.537,15.209h148.162l-7.859,105.507H95.887 v15.208h113.407v96.797c0,4.199,3.404,7.604,7.604,7.604h78.199c4.2,0,7.604-3.405,7.604-7.604v-96.797h194.09v261.053H511.999z M224.502,407.602L224.502,407.602h62.991v89.189h-62.991V407.602z M232.95,15.209h46.097l7.858,105.507H225.09L232.95,15.209z M287.493,225.117h-62.991v-89.193h62.991V225.117z M302.156,120.716l-7.859-105.507h148.165l49.924,105.507H302.156z"></path> </g> </g> <g> <g> <path d="M103.657,372.119l-25.582-25.583c-1.427-1.427-3.36-2.227-5.378-2.227s-3.95,0.801-5.378,2.227l-25.583,25.583 c-2.97,2.97-2.97,7.784,0,10.753c2.971,2.97,7.784,2.971,10.754,0l12.602-12.602v60.18c-0.001,4.2,3.402,7.605,7.603,7.605 s7.604-3.405,7.604-7.604v-60.18l12.601,12.601c1.485,1.485,3.431,2.227,5.378,2.227c1.946,0,3.892-0.742,5.378-2.227 C106.626,379.902,106.626,375.087,103.657,372.119z"></path> </g> </g> <g> <g> <path d="M179.691,372.119l-25.582-25.583c-1.427-1.427-3.36-2.227-5.378-2.227s-3.95,0.801-5.378,2.227l-25.582,25.583 c-2.97,2.97-2.97,7.784,0,10.753c2.971,2.97,7.784,2.97,10.754,0l12.601-12.601v60.18c0,4.199,3.404,7.604,7.604,7.604 s7.604-3.405,7.604-7.604v-60.18l12.601,12.601c1.485,1.485,3.431,2.227,5.378,2.227c1.946,0,3.892-0.742,5.378-2.227 C182.66,379.902,182.66,375.087,179.691,372.119z"></path> </g> </g> <g> <g> <path d="M173.823,449.206H47.604c-4.2,0-7.604,3.405-7.604,7.604s3.404,7.604,7.604,7.604h126.218c4.2,0,7.604-3.405,7.604-7.604 S178.023,449.206,173.823,449.206z"></path> </g> </g> <g> <g> <path d="M466.433,172.421H331.089c-4.2,0-7.604,3.405-7.604,7.604v104.929c0,4.199,3.404,7.604,7.604,7.604h135.343 c4.2,0,7.604-3.405,7.604-7.604V180.025C474.037,175.826,470.633,172.421,466.433,172.421z M458.829,277.35H338.693v-89.721 h120.135V277.35z"></path> </g> </g> <g> <g> <path d="M438.047,206.667H360.49c-4.2,0-7.604,3.405-7.604,7.604s3.404,7.604,7.604,7.604h77.556c4.2,0,7.604-3.405,7.604-7.604 S442.247,206.667,438.047,206.667z"></path> </g> </g> <g> <g> <path d="M438.047,243.104H360.49c-4.2,0-7.604,3.405-7.604,7.604s3.404,7.604,7.604,7.604h77.556c4.2,0,7.604-3.405,7.604-7.604 S442.247,243.104,438.047,243.104z"></path> </g> </g> <g> </g> <g> </g> <g> </g> <g> </g> <g> </g> <g> </g> <g> </g> <g> </g> <g> </g> <g> </g> <g> </g> <g> </g> <g> </g> <g> </g> <g> </g> </svg> 