<svg width="33" height="32" viewBox="0 0 33 32" fill="none" xmlns="http://www.w3.org/2000/svg">
<g clip-path="url(#clip0_1710:3898)">
<path d="M4.80006 -1.62572e-05H28.2998C28.8578 0.00649097 29.4092 0.122532 29.9224 0.341483C30.4355 0.560432 30.9003 0.878001 31.2904 1.27605C31.6804 1.67411 31.9879 2.14485 32.1954 2.6614C32.4029 3.17794 32.5063 3.73018 32.4997 4.28656V27.7132C32.5037 28.2772 32.3952 28.8365 32.1805 29.3583C31.9658 29.8802 31.6492 30.3543 31.2492 30.7532C30.8491 31.152 30.3735 31.4675 29.85 31.6816C29.3265 31.8956 28.7655 32.0038 28.1998 31.9998H4.80006C3.65218 31.9687 2.5615 31.4936 1.75892 30.6748C0.956346 29.8562 0.504879 28.7582 0.500106 27.6135V4.28656C0.496117 3.72253 0.604615 3.16333 0.819294 2.64147C1.03397 2.1196 1.35056 1.64547 1.75063 1.24663C2.15072 0.847788 2.62633 0.532192 3.14983 0.31818C3.67332 0.104167 4.23426 -0.00399313 4.80006 -1.62572e-05Z" fill="#1D1D1D"/>
<path opacity="0.05" fill-rule="evenodd" clip-rule="evenodd" d="M9.10865 16.0873C9.07879 16.0577 9.04809 16.0252 9.01655 15.9893C8.27551 15.148 2.53238 7.57615 5.21868 4.86522C7.0673 2.99966 11.5918 4.85273 16.3168 8.53561C18.6134 6.45388 25.2544 2.27563 27.7278 4.77176C29.9202 6.98424 27.0589 12.2136 23.9484 15.9893C27.059 19.765 29.9204 24.9945 27.728 27.207C25.2769 29.6805 18.7333 25.5999 16.3803 23.5001C11.6323 27.2564 7.07546 29.1098 5.21854 27.3005C2.53224 24.683 8.18273 17.0177 9.01641 16.1763C9.04851 16.1439 9.07924 16.1143 9.10865 16.0873ZM8.64567 8.32406C8.60488 9.92974 9.64216 11.8618 11.1007 13.7928C11.0776 13.7461 11.0543 13.6991 11.0543 13.6524C11.7746 12.9254 12.8683 11.8719 13.8967 10.8825C11.9341 9.35004 10.0107 8.12741 8.65541 7.9033C8.65264 8.03813 8.64938 8.17833 8.64567 8.32406ZM11.0426 18.2207C11.509 18.6908 12.8384 20.0289 14.0626 21.2463C11.9416 22.9192 9.84897 24.2536 8.45036 24.3825C8.23484 23.9097 8.78569 21.1248 11.0426 18.2207ZM24.7163 24.1436C24.9237 22.5141 23.3941 20.3007 21.8385 18.3803C20.8032 19.5181 19.7268 20.5917 18.6396 21.5802C21.4652 23.7559 24.1765 24.3298 24.7163 24.1436ZM21.9723 13.7641C23.5655 11.9006 25.1511 9.84835 24.7988 8.14848C24.6405 8.14534 24.4745 8.14149 24.3006 8.13699C22.6969 8.09549 20.7645 9.15938 18.8277 10.6498C19.8977 11.6183 20.9556 12.6637 21.9723 13.7641ZM16.2567 12.8436C17.5774 13.9997 18.8146 15.1711 19.7931 16.1295C18.8135 17.0891 17.5745 18.2621 16.2521 19.4195C15.2138 18.4122 14.0703 17.2666 12.9924 16.0677C13.9737 15.0547 15.0879 13.9252 16.2567 12.8436Z" fill="white"/>
<path d="M6.5 6C5.39543 6 4.5 6.89543 4.5 8V11C4.5 12.1046 5.39543 13 6.5 13H26.5C27.6046 13 28.5 12.1046 28.5 11V8C28.5 6.89543 27.6046 6 26.5 6H6.5Z" fill="white"/>
<path d="M10.75 17.25V18.75H11.9922L13.8036 23.2785C13.9175 23.5633 14.1933 23.75 14.5 23.75H19.5C19.7841 23.75 20.0438 23.5895 20.1708 23.3354L22.1708 19.3354C22.2871 19.1029 22.2746 18.8268 22.138 18.6057C22.0013 18.3846 21.7599 18.25 21.5 18.25H15.75V19.75H20.2865L19.0365 22.25H15.0078L13.1964 17.7215C13.0825 17.4367 12.8067 17.25 12.5 17.25H10.75Z" fill="white"/>
<path d="M14.5 25C13.9477 25 13.5 25.4477 13.5 26C13.5 26.5523 13.9477 27 14.5 27C15.0523 27 15.5 26.5523 15.5 26C15.5 25.4477 15.0523 25 14.5 25Z" fill="white"/>
<path d="M18.5 26C18.5 25.4477 18.9477 25 19.5 25C20.0523 25 20.5 25.4477 20.5 26C20.5 26.5523 20.0523 27 19.5 27C18.9477 27 18.5 26.5523 18.5 26Z" fill="white"/>
</g>
<defs>
<clipPath id="clip0_1710:3898">
<rect width="32" height="32" fill="white" transform="translate(0.5)"/>
</clipPath>
</defs>
</svg>
