<svg width="33" height="32" viewBox="0 0 33 32" fill="none" xmlns="http://www.w3.org/2000/svg">
<g clip-path="url(#clip0_1710:3887)">
<path d="M4.80006 -1.62572e-05H28.2998C28.8578 0.00649097 29.4092 0.122532 29.9224 0.341483C30.4355 0.560432 30.9003 0.878001 31.2904 1.27605C31.6804 1.67411 31.9879 2.14485 32.1954 2.6614C32.4029 3.17794 32.5063 3.73018 32.4997 4.28656V27.7132C32.5037 28.2772 32.3952 28.8365 32.1805 29.3583C31.9658 29.8802 31.6492 30.3543 31.2492 30.7532C30.8491 31.152 30.3735 31.4675 29.85 31.6816C29.3265 31.8956 28.7655 32.0038 28.1998 31.9998H4.80006C3.65218 31.9687 2.5615 31.4936 1.75892 30.6748C0.956346 29.8562 0.504879 28.7582 0.500106 27.6135V4.28656C0.496117 3.72253 0.604615 3.16333 0.819294 2.64147C1.03397 2.1196 1.35056 1.64547 1.75063 1.24663C2.15072 0.847788 2.62633 0.532192 3.14983 0.31818C3.67332 0.104167 4.23426 -0.00399313 4.80006 -1.62572e-05Z" fill="#1D1D1D"/>
<path opacity="0.05" fill-rule="evenodd" clip-rule="evenodd" d="M9.10865 16.0873C9.07879 16.0577 9.04809 16.0252 9.01655 15.9893C8.27551 15.148 2.53238 7.57615 5.21868 4.86522C7.0673 2.99966 11.5918 4.85273 16.3168 8.53561C18.6134 6.45388 25.2544 2.27563 27.7278 4.77176C29.9202 6.98424 27.0589 12.2136 23.9484 15.9893C27.059 19.765 29.9204 24.9945 27.728 27.207C25.2769 29.6805 18.7333 25.5999 16.3803 23.5001C11.6323 27.2564 7.07546 29.1098 5.21854 27.3005C2.53224 24.683 8.18273 17.0177 9.01641 16.1763C9.04851 16.1439 9.07924 16.1143 9.10865 16.0873ZM8.64567 8.32406C8.60488 9.92974 9.64216 11.8618 11.1007 13.7928C11.0776 13.7461 11.0543 13.6991 11.0543 13.6524C11.7746 12.9254 12.8683 11.8719 13.8967 10.8825C11.9341 9.35004 10.0107 8.12741 8.65541 7.9033C8.65264 8.03813 8.64938 8.17833 8.64567 8.32406ZM11.0426 18.2207C11.509 18.6908 12.8384 20.0289 14.0626 21.2463C11.9416 22.9192 9.84897 24.2536 8.45036 24.3825C8.23484 23.9097 8.78569 21.1248 11.0426 18.2207ZM24.7163 24.1436C24.9237 22.5141 23.3941 20.3007 21.8385 18.3803C20.8032 19.5181 19.7268 20.5917 18.6396 21.5802C21.4652 23.7559 24.1765 24.3298 24.7163 24.1436ZM21.9723 13.7641C23.5655 11.9006 25.1511 9.84835 24.7988 8.14848C24.6405 8.14534 24.4745 8.14149 24.3006 8.13699C22.6969 8.09549 20.7645 9.15938 18.8277 10.6498C19.8977 11.6183 20.9556 12.6637 21.9723 13.7641ZM16.2567 12.8436C17.5774 13.9997 18.8146 15.1711 19.7931 16.1295C18.8135 17.0891 17.5745 18.2621 16.2521 19.4195C15.2138 18.4122 14.0703 17.2666 12.9924 16.0677C13.9737 15.0547 15.0879 13.9252 16.2567 12.8436Z" fill="white"/>
<path d="M15.75 4V10.1893L14.0303 8.46967L12.9697 9.53033L15.9697 12.5303C16.2626 12.8232 16.7374 12.8232 17.0303 12.5303L20.0303 9.53033L18.9697 8.46967L17.25 10.1893V4H15.75Z" fill="white"/>
<path d="M8.75 14.25V15.75H10.3922L13.0036 22.2785C13.1175 22.5633 13.3933 22.75 13.7 22.75H20.7C20.9841 22.75 21.2438 22.5895 21.3708 22.3354L24.1708 16.7354C24.2871 16.5029 24.2746 16.2268 24.138 16.0057C24.0013 15.7846 23.7599 15.65 23.5 15.65H15.75V17.15H22.2865L20.2365 21.25H14.2078L11.5964 14.7215C11.4825 14.4367 11.2067 14.25 10.9 14.25H8.75Z" fill="white"/>
<path d="M14 25C13.1716 25 12.5 25.6716 12.5 26.5C12.5 27.3284 13.1716 28 14 28C14.8284 28 15.5 27.3284 15.5 26.5C15.5 25.6716 14.8284 25 14 25Z" fill="white"/>
<path d="M19.5 26.5C19.5 25.6716 20.1716 25 21 25C21.8284 25 22.5 25.6716 22.5 26.5C22.5 27.3284 21.8284 28 21 28C20.1716 28 19.5 27.3284 19.5 26.5Z" fill="white"/>
</g>
<defs>
<clipPath id="clip0_1710:3887">
<rect width="32" height="32" fill="white" transform="translate(0.5)"/>
</clipPath>
</defs>
</svg>
