<svg width="32" height="32" viewBox="0 0 32 32" fill="none" xmlns="http://www.w3.org/2000/svg">
<g clip-path="url(#clip0_1710:3990)">
<path d="M4.30006 -1.62572e-05H27.7998C28.3578 0.00649097 28.9092 0.122532 29.4224 0.341483C29.9355 0.560432 30.4003 0.878001 30.7904 1.27605C31.1804 1.67411 31.4879 2.14485 31.6954 2.6614C31.9029 3.17794 32.0063 3.73018 31.9997 4.28656V27.7132C32.0037 28.2772 31.8952 28.8365 31.6805 29.3583C31.4658 29.8802 31.1492 30.3543 30.7492 30.7532C30.3491 31.152 29.8735 31.4675 29.35 31.6816C28.8265 31.8956 28.2655 32.0038 27.6998 31.9998H4.30006C3.15218 31.9687 2.0615 31.4936 1.25892 30.6748C0.456346 29.8562 0.00487903 28.7582 0.000106142 27.6135V4.28656C-0.00388312 3.72253 0.104615 3.16333 0.319294 2.64147C0.533974 2.1196 0.850555 1.64547 1.25063 1.24663C1.65072 0.847788 2.12633 0.532192 2.64983 0.31818C3.17332 0.104167 3.73426 -0.00399313 4.30006 -1.62572e-05Z" fill="#1D1D1D"/>
<path opacity="0.05" fill-rule="evenodd" clip-rule="evenodd" d="M8.60865 16.0873C8.57879 16.0577 8.54809 16.0252 8.51655 15.9893C7.77551 15.148 2.03238 7.57615 4.71868 4.86522C6.5673 2.99966 11.0918 4.85273 15.8168 8.53561C18.1134 6.45388 24.7544 2.27563 27.2278 4.77176C29.4202 6.98424 26.5589 12.2136 23.4484 15.9893C26.559 19.765 29.4204 24.9945 27.228 27.207C24.7769 29.6805 18.2333 25.5999 15.8803 23.5001C11.1323 27.2564 6.57546 29.1098 4.71854 27.3005C2.03224 24.683 7.68273 17.0177 8.51641 16.1763C8.54851 16.1439 8.57924 16.1143 8.60865 16.0873ZM8.14567 8.32406C8.10488 9.92974 9.14216 11.8618 10.6007 13.7928C10.5776 13.7461 10.5543 13.6991 10.5543 13.6524C11.2746 12.9254 12.3683 11.8719 13.3967 10.8825C11.4341 9.35004 9.51071 8.12741 8.15541 7.9033C8.15264 8.03813 8.14938 8.17833 8.14567 8.32406ZM10.5426 18.2207C11.009 18.6908 12.3384 20.0289 13.5626 21.2463C11.4416 22.9192 9.34897 24.2536 7.95036 24.3825C7.73484 23.9097 8.28569 21.1248 10.5426 18.2207ZM24.2163 24.1436C24.4237 22.5141 22.8941 20.3007 21.3385 18.3803C20.3032 19.5181 19.2268 20.5917 18.1396 21.5802C20.9652 23.7559 23.6765 24.3298 24.2163 24.1436ZM21.4723 13.7641C23.0655 11.9006 24.6511 9.84835 24.2988 8.14848C24.1405 8.14534 23.9745 8.14149 23.8006 8.13699C22.1969 8.09549 20.2645 9.15938 18.3277 10.6498C19.3977 11.6183 20.4556 12.6637 21.4723 13.7641ZM15.7567 12.8436C17.0774 13.9997 18.3146 15.1711 19.2931 16.1295C18.3135 17.0891 17.0745 18.2621 15.7521 19.4195C14.7138 18.4122 13.5703 17.2666 12.4924 16.0677C13.4737 15.0547 14.5879 13.9252 15.7567 12.8436Z" fill="white"/>
<path d="M20.1565 10.1895L9.53133 13.0365L9.0137 11.1046L19.6389 8.25762L20.1565 10.1895Z" fill="white"/>
<path d="M24.0202 9.1542C24.5537 9.01125 24.8703 8.46292 24.7273 7.92945C24.5844 7.39599 24.0361 7.0794 23.5026 7.22234C22.9691 7.36529 22.6526 7.91362 22.7955 8.44709C22.9384 8.98056 23.4868 9.29714 24.0202 9.1542Z" fill="white"/>
<path fill-rule="evenodd" clip-rule="evenodd" d="M5.49892 7.64649C4.56535 7.89664 4.01133 8.85623 4.26148 9.7898L6.07321 16.5513C6.32336 17.4848 7.28295 18.0389 8.21652 17.7887L24.2666 13.4881C24.6842 13.3762 25.0456 13.1137 25.2811 12.7512L28.1316 8.36393C28.6978 7.49252 28.3843 6.32261 27.4583 5.85104L22.7961 3.47682C22.4108 3.28063 21.9666 3.23399 21.549 3.34589L5.49892 7.64649ZM5.71037 9.40157C5.67463 9.2682 5.75378 9.13112 5.88715 9.09538L21.9372 4.79478C21.9969 4.77879 22.0603 4.78545 22.1154 4.81348L26.7776 7.1877C26.9099 7.25507 26.9547 7.4222 26.8738 7.54669L24.0233 11.9339C23.9897 11.9857 23.938 12.0232 23.8784 12.0392L7.82829 16.3398C7.69492 16.3756 7.55784 16.2964 7.5221 16.163L5.71037 9.40157Z" fill="white"/>
<path d="M10.2499 19.25V20.75H11.4922L13.3036 25.2785C13.4175 25.5633 13.6933 25.75 13.9999 25.75H18.9999C19.284 25.75 19.5437 25.5895 19.6708 25.3354L21.6708 21.3354C21.787 21.1029 21.7746 20.8268 21.6379 20.6057C21.5013 20.3846 21.2599 20.25 20.9999 20.25H15.2499V21.75H19.7864L18.5364 24.25H14.5077L12.6963 19.7215C12.5824 19.4367 12.3066 19.25 11.9999 19.25H10.2499Z" fill="white"/>
<path d="M13.9999 27C13.4476 27 12.9999 27.4477 12.9999 28C12.9999 28.5523 13.4476 29 13.9999 29C14.5522 29 14.9999 28.5523 14.9999 28C14.9999 27.4477 14.5522 27 13.9999 27Z" fill="white"/>
<path d="M17.9999 28C17.9999 27.4477 18.4476 27 18.9999 27C19.5522 27 19.9999 27.4477 19.9999 28C19.9999 28.5523 19.5522 29 18.9999 29C18.4476 29 17.9999 28.5523 17.9999 28Z" fill="white"/>
</g>
<defs>
<clipPath id="clip0_1710:3990">
<rect width="32" height="32" fill="white"/>
</clipPath>
</defs>
</svg>
