<svg width="32" height="32" viewBox="0 0 32 32" fill="none" xmlns="http://www.w3.org/2000/svg">
<g clip-path="url(#clip0)">
<path d="M4.30006 -1.62572e-05H27.7998C28.3578 0.00649097 28.9092 0.122532 29.4224 0.341483C29.9355 0.560432 30.4003 0.878001 30.7904 1.27605C31.1804 1.67411 31.4879 2.14485 31.6954 2.6614C31.9029 3.17794 32.0063 3.73018 31.9997 4.28656V27.7132C32.0037 28.2772 31.8952 28.8365 31.6805 29.3583C31.4658 29.8802 31.1492 30.3543 30.7492 30.7532C30.3491 31.152 29.8735 31.4675 29.35 31.6816C28.8265 31.8956 28.2655 32.0038 27.6998 31.9998H4.30006C3.15218 31.9687 2.0615 31.4936 1.25892 30.6748C0.456346 29.8562 0.00487903 28.7582 0.000106142 27.6135V4.28656C-0.00388312 3.72253 0.104615 3.16333 0.319294 2.64147C0.533974 2.1196 0.850555 1.64547 1.25063 1.24663C1.65072 0.847788 2.12633 0.532192 2.64983 0.31818C3.17332 0.104167 3.73426 -0.00399313 4.30006 -1.62572e-05Z" fill="#1D1D1D"/>
<path opacity="0.05" fill-rule="evenodd" clip-rule="evenodd" d="M8.60865 16.0873C8.57879 16.0577 8.54809 16.0252 8.51655 15.9893C7.77551 15.148 2.03238 7.57615 4.71868 4.86522C6.5673 2.99966 11.0918 4.85273 15.8168 8.53561C18.1134 6.45388 24.7544 2.27563 27.2278 4.77176C29.4202 6.98424 26.5589 12.2136 23.4484 15.9893C26.559 19.765 29.4204 24.9945 27.228 27.207C24.7769 29.6805 18.2333 25.5999 15.8803 23.5001C11.1323 27.2564 6.57546 29.1098 4.71854 27.3005C2.03224 24.683 7.68273 17.0177 8.51641 16.1763C8.54851 16.1439 8.57924 16.1143 8.60865 16.0873ZM8.14567 8.32406C8.10488 9.92974 9.14216 11.8618 10.6007 13.7928C10.5776 13.7461 10.5543 13.6991 10.5543 13.6524C11.2746 12.9254 12.3683 11.8719 13.3967 10.8825C11.4341 9.35004 9.51071 8.12741 8.15541 7.9033C8.15264 8.03813 8.14938 8.17833 8.14567 8.32406ZM10.5426 18.2207C11.009 18.6908 12.3384 20.0289 13.5626 21.2463C11.4416 22.9192 9.34897 24.2536 7.95036 24.3825C7.73484 23.9097 8.28569 21.1248 10.5426 18.2207ZM24.2163 24.1436C24.4237 22.5141 22.8941 20.3007 21.3385 18.3803C20.3032 19.5181 19.2268 20.5917 18.1396 21.5802C20.9652 23.7559 23.6765 24.3298 24.2163 24.1436ZM21.4723 13.7641C23.0655 11.9006 24.6511 9.84835 24.2988 8.14848C24.1405 8.14534 23.9745 8.14149 23.8006 8.13699C22.1969 8.09549 20.2645 9.15938 18.3277 10.6498C19.3977 11.6183 20.4556 12.6637 21.4723 13.7641ZM15.7567 12.8436C17.0774 13.9997 18.3146 15.1711 19.2931 16.1295C18.3135 17.0891 17.0745 18.2621 15.7521 19.4195C14.7138 18.4122 13.5703 17.2666 12.4924 16.0677C13.4737 15.0547 14.5879 13.9252 15.7567 12.8436Z" fill="white"/>
<path fill-rule="evenodd" clip-rule="evenodd" d="M17 10.95C18.1411 10.7184 19 9.70948 19 8.5C19 7.11929 17.8807 6 16.5 6C15.1193 6 14 7.11929 14 8.5C14 9.70948 14.8589 10.7184 16 10.95V20.0005L15.9999 20.0044L15.9994 20.0303C15.9987 20.0545 15.9972 20.0919 15.9941 20.1407C15.988 20.2384 15.9756 20.3808 15.9505 20.5528C15.9 20.8994 15.7998 21.3529 15.6044 21.7996C15.4091 22.246 15.1266 22.6678 14.7204 22.9773C14.3208 23.2818 13.7726 23.5 13 23.5C12.2584 23.5 11.7243 23.2404 11.3214 22.8567C10.9069 22.4619 10.6132 21.917 10.4094 21.3348C10.2068 20.7558 10.1034 20.1696 10.0513 19.7233C10.0254 19.5015 10.0126 19.3173 10.0062 19.1899C10.003 19.1262 10.0015 19.077 10.0007 19.0445L10.0007 19.0408L11.6877 20.3904L12.3123 19.6096L9 16.9597V19H9.5C9 19 9 18.9998 9 19L9 19.0023L9.00002 19.0064L9.00014 19.02C9.00027 19.0314 9.00051 19.0474 9.00099 19.0678C9.00194 19.1086 9.00381 19.1667 9.00746 19.2398C9.01476 19.3859 9.02925 19.5923 9.05806 19.8392C9.11537 20.3304 9.23074 20.9942 9.46557 21.6652C9.69931 22.333 10.0619 23.0381 10.6317 23.5808C11.2132 24.1346 11.9916 24.5 13 24.5C13.9774 24.5 14.7417 24.2182 15.3265 23.7727C15.8885 23.3445 16.2574 22.7861 16.5 22.2468C16.7426 22.7861 17.1115 23.3445 17.6735 23.7727C18.2583 24.2182 19.0226 24.5 20 24.5C21.0084 24.5 21.7868 24.1346 22.3683 23.5808C22.9381 23.0381 23.3007 22.333 23.5344 21.6652C23.7693 20.9942 23.8846 20.3304 23.9419 19.8392C23.9707 19.5923 23.9852 19.3859 23.9925 19.2398C23.9962 19.1667 23.9981 19.1086 23.999 19.0678C23.9995 19.0474 23.9997 19.0314 23.9999 19.02L24 19.0064L24 19.0023L24 19.0009C24 19.0007 24 19 23.5 19L24 19.0009L24 16.9597L20.6877 19.6096L21.3123 20.3904L22.9993 19.0408L22.9993 19.0445C22.9985 19.077 22.997 19.1262 22.9938 19.1899C22.9874 19.3173 22.9746 19.5015 22.9487 19.7233C22.8966 20.1696 22.7932 20.7558 22.5906 21.3348C22.3868 21.917 22.0931 22.4619 21.6786 22.8567C21.2757 23.2404 20.7416 23.5 20 23.5C19.2274 23.5 18.6792 23.2818 18.2796 22.9773C17.8734 22.6678 17.5909 22.246 17.3956 21.7996C17.2002 21.3529 17.1 20.8994 17.0495 20.5528C17.0244 20.3808 17.012 20.2384 17.0059 20.1407C17.0028 20.0919 17.0013 20.0545 17.0006 20.0303L17.0001 20.0044L17 20.0005L17 19.9994L17 10.95ZM18 8.5C18 9.32843 17.3284 10 16.5 10C15.6716 10 15 9.32843 15 8.5C15 7.67157 15.6716 7 16.5 7C17.3284 7 18 7.67157 18 8.5Z" fill="white"/>
</g>
<defs>
<clipPath id="clip0">
<rect width="32" height="32" fill="white"/>
</clipPath>
</defs>
</svg>
