<svg width="32" height="32" viewBox="0 0 32 32" fill="none" xmlns="http://www.w3.org/2000/svg">
<g clip-path="url(#clip0_1432_171)">
<path d="M4.30006 -1.62572e-05H27.7998C28.3578 0.00649097 28.9092 0.122532 29.4224 0.341483C29.9355 0.560432 30.4003 0.878001 30.7904 1.27605C31.1804 1.67411 31.4879 2.14485 31.6954 2.6614C31.9029 3.17794 32.0063 3.73018 31.9997 4.28656V27.7132C32.0037 28.2772 31.8952 28.8365 31.6805 29.3583C31.4658 29.8802 31.1492 30.3543 30.7492 30.7532C30.3491 31.152 29.8735 31.4675 29.35 31.6816C28.8265 31.8956 28.2655 32.0038 27.6998 31.9998H4.30006C3.15218 31.9687 2.0615 31.4936 1.25892 30.6748C0.456346 29.8562 0.00487903 28.7582 0.000106142 27.6135V4.28656C-0.00388312 3.72253 0.104615 3.16333 0.319294 2.64147C0.533974 2.1196 0.850555 1.64547 1.25063 1.24663C1.65072 0.847788 2.12633 0.532192 2.64983 0.31818C3.17332 0.104167 3.73426 -0.00399313 4.30006 -1.62572e-05Z" fill="#1D1D1D"/>
<path opacity="0.05" fill-rule="evenodd" clip-rule="evenodd" d="M8.60865 16.0873C8.57879 16.0577 8.54809 16.0252 8.51655 15.9893C7.77551 15.148 2.03238 7.57615 4.71868 4.86522C6.5673 2.99966 11.0918 4.85273 15.8168 8.53561C18.1134 6.45388 24.7544 2.27563 27.2278 4.77176C29.4202 6.98424 26.5589 12.2136 23.4484 15.9893C26.559 19.765 29.4204 24.9945 27.228 27.207C24.7769 29.6805 18.2333 25.5999 15.8803 23.5001C11.1323 27.2564 6.57546 29.1098 4.71854 27.3005C2.03224 24.683 7.68273 17.0177 8.51641 16.1763C8.54851 16.1439 8.57924 16.1143 8.60865 16.0873ZM8.14567 8.32406C8.10488 9.92974 9.14216 11.8618 10.6007 13.7928C10.5776 13.7461 10.5543 13.6991 10.5543 13.6524C11.2746 12.9254 12.3683 11.8719 13.3967 10.8825C11.4341 9.35004 9.51071 8.12741 8.15541 7.9033C8.15264 8.03813 8.14938 8.17833 8.14567 8.32406ZM10.5426 18.2207C11.009 18.6908 12.3384 20.0289 13.5626 21.2463C11.4416 22.9192 9.34897 24.2536 7.95036 24.3825C7.73484 23.9097 8.28569 21.1248 10.5426 18.2207ZM24.2163 24.1436C24.4237 22.5141 22.8941 20.3007 21.3385 18.3803C20.3032 19.5181 19.2268 20.5917 18.1396 21.5802C20.9652 23.7559 23.6765 24.3298 24.2163 24.1436ZM21.4723 13.7641C23.0655 11.9006 24.6511 9.84835 24.2988 8.14848C24.1405 8.14534 23.9745 8.14149 23.8006 8.13699C22.1969 8.09549 20.2645 9.15938 18.3277 10.6498C19.3977 11.6183 20.4556 12.6637 21.4723 13.7641ZM15.7567 12.8436C17.0774 13.9997 18.3146 15.1711 19.2931 16.1295C18.3135 17.0891 17.0745 18.2621 15.7521 19.4195C14.7138 18.4122 13.5703 17.2666 12.4924 16.0677C13.4737 15.0547 14.5879 13.9252 15.7567 12.8436Z" fill="white"/>
<path d="M4 4H28V23H24V22H27V5H5V22H8.00002V23H4V4Z" fill="white"/>
<path d="M10.25 20.75V19.25H12C12.3067 19.25 12.5825 19.4367 12.6964 19.7215L14.5078 24.25H18.5365L19.7865 21.75H15.25V20.25H21C21.2599 20.25 21.5013 20.3846 21.638 20.6057C21.7746 20.8268 21.7871 21.1029 21.6708 21.3354L19.6708 25.3354C19.5438 25.5895 19.2841 25.75 19 25.75H14C13.6933 25.75 13.4175 25.5633 13.3036 25.2785L11.4922 20.75H10.25Z" fill="white"/>
<path d="M13 28C13 27.4477 13.4477 27 14 27C14.5523 27 15 27.4477 15 28C15 28.5523 14.5523 29 14 29C13.4477 29 13 28.5523 13 28Z" fill="white"/>
<path d="M19 27C18.4477 27 18 27.4477 18 28C18 28.5523 18.4477 29 19 29C19.5523 29 20 28.5523 20 28C20 27.4477 19.5523 27 19 27Z" fill="white"/>
<path d="M10.3415 16C9.91028 16 9.50912 15.9502 9.13798 15.8506C8.76684 15.7455 8.46393 15.5989 8.22923 15.4108C8.14736 15.3499 8.08733 15.2863 8.04912 15.2199C8.01637 15.148 8 15.0595 8 14.9544C8 14.816 8.04093 14.6943 8.1228 14.5892C8.21013 14.4841 8.30837 14.4315 8.41753 14.4315C8.47757 14.4315 8.53488 14.4426 8.58946 14.4647C8.6495 14.4813 8.72045 14.5145 8.80232 14.5643C9.03701 14.7137 9.27443 14.8243 9.51458 14.8963C9.75473 14.9627 10.0194 14.9959 10.3087 14.9959C10.6689 14.9959 10.9446 14.935 11.1356 14.8133C11.3266 14.6916 11.4221 14.5173 11.4221 14.2905C11.4221 14.1189 11.3321 13.9806 11.152 13.8755C10.9773 13.7704 10.6635 13.6708 10.2105 13.5768C9.70288 13.4716 9.29626 13.3444 8.99062 13.195C8.69043 13.0456 8.46938 12.8603 8.32748 12.639C8.19103 12.4177 8.1228 12.1494 8.1228 11.834C8.1228 11.4855 8.22105 11.1729 8.41753 10.8963C8.61948 10.6141 8.8951 10.3956 9.24441 10.2407C9.59918 10.0802 9.99761 10 10.4397 10C11.2147 10 11.8533 10.1964 12.3554 10.5892C12.4373 10.6556 12.4946 10.7248 12.5274 10.7967C12.5656 10.8631 12.5847 10.9461 12.5847 11.0456C12.5847 11.184 12.541 11.3057 12.4537 11.4108C12.3718 11.5159 12.2763 11.5685 12.1671 11.5685C12.1071 11.5685 12.0498 11.5602 11.9952 11.5436C11.9461 11.527 11.8751 11.491 11.7824 11.4357C11.5586 11.2918 11.3512 11.184 11.1602 11.112C10.9746 11.0401 10.7372 11.0041 10.4479 11.0041C10.115 11.0041 9.85297 11.0705 9.66195 11.2033C9.47092 11.3306 9.3754 11.5076 9.3754 11.7344C9.3754 11.8672 9.41088 11.9779 9.48183 12.0664C9.55824 12.1494 9.68105 12.2241 9.85024 12.2905C10.0249 12.3568 10.2705 12.426 10.5871 12.4979C11.3293 12.6639 11.8615 12.8769 12.1835 13.1369C12.511 13.397 12.6747 13.7538 12.6747 14.2075C12.6747 14.5615 12.5765 14.8741 12.38 15.1452C12.189 15.4163 11.9161 15.6266 11.5613 15.7759C11.212 15.9253 10.8054 16 10.3415 16Z" fill="white"/>
<path d="M18.2694 14.9544C18.3949 15.0816 18.4577 15.2199 18.4577 15.3693C18.4577 15.5242 18.3977 15.6598 18.2776 15.7759C18.163 15.8921 18.0293 15.9502 17.8764 15.9502C17.7018 15.9502 17.5462 15.8783 17.4098 15.7344L14.8718 13.2199V15.3278C14.8718 15.527 14.8145 15.6846 14.6999 15.8008C14.5853 15.917 14.4297 15.9751 14.2333 15.9751C14.0368 15.9751 13.8812 15.917 13.7666 15.8008C13.652 15.6846 13.5947 15.527 13.5947 15.3278V10.6722C13.5947 10.4786 13.652 10.3237 13.7666 10.2075C13.8812 10.0913 14.0368 10.0332 14.2333 10.0332C14.4297 10.0332 14.5853 10.0913 14.6999 10.2075C14.8145 10.3237 14.8718 10.4786 14.8718 10.6722V12.6556L17.3443 10.2241C17.4644 10.1024 17.6008 10.0415 17.7536 10.0415C17.9065 10.0415 18.0402 10.0996 18.1548 10.2158C18.2694 10.3264 18.3267 10.4592 18.3267 10.6141C18.3267 10.7746 18.2612 10.9184 18.1302 11.0456L16.1817 12.8963L18.2694 14.9544Z" fill="white"/>
<path d="M19.6609 15.3693C20.0867 15.7898 20.7034 16 21.5112 16C22.319 16 22.9357 15.787 23.3614 15.361C23.7871 14.935 24 14.3181 24 13.5104V10.6722C24 10.4786 23.9427 10.3237 23.8281 10.2075C23.7135 10.0913 23.5606 10.0332 23.3696 10.0332C23.1786 10.0332 23.0258 10.0913 22.9111 10.2075C22.802 10.3237 22.7474 10.4786 22.7474 10.6722V13.5685C22.7474 14.0277 22.641 14.3817 22.4281 14.6307C22.2153 14.8741 21.9096 14.9959 21.5112 14.9959C21.1127 14.9959 20.8071 14.8741 20.5942 14.6307C20.3868 14.3873 20.2831 14.0332 20.2831 13.5685V10.6722C20.2831 10.4786 20.2258 10.3237 20.1112 10.2075C20.0021 10.0913 19.852 10.0332 19.6609 10.0332C19.4699 10.0332 19.3171 10.0913 19.2025 10.2075C19.0878 10.3237 19.0305 10.4786 19.0305 10.6722V13.5104C19.0305 14.3237 19.2407 14.9433 19.6609 15.3693Z" fill="white"/>
</g>
<defs>
<clipPath id="clip0_1432_171">
<rect width="32" height="32" fill="white"/>
</clipPath>
</defs>
</svg>
