<svg width="32" height="32" viewBox="0 0 32 32" fill="none" xmlns="http://www.w3.org/2000/svg">
<g clip-path="url(#clip0_1968_5276)">
<path d="M4.30006 -1.62572e-05H27.7998C28.3578 0.00649097 28.9092 0.122532 29.4224 0.341483C29.9355 0.560432 30.4003 0.878001 30.7904 1.27605C31.1804 1.67411 31.4879 2.14485 31.6954 2.6614C31.9029 3.17794 32.0063 3.73018 31.9997 4.28656V27.7132C32.0037 28.2772 31.8952 28.8365 31.6805 29.3583C31.4658 29.8802 31.1492 30.3543 30.7492 30.7532C30.3491 31.152 29.8735 31.4675 29.35 31.6816C28.8265 31.8956 28.2655 32.0038 27.6998 31.9998H4.30006C3.15218 31.9687 2.0615 31.4936 1.25892 30.6748C0.456346 29.8562 0.00487903 28.7582 0.000106142 27.6135V4.28656C-0.00388312 3.72253 0.104615 3.16333 0.319294 2.64147C0.533974 2.1196 0.850555 1.64547 1.25063 1.24663C1.65072 0.847788 2.12633 0.532192 2.64983 0.31818C3.17332 0.104167 3.73426 -0.00399313 4.30006 -1.62572e-05Z" fill="#1D1D1D"/>
<path opacity="0.05" fill-rule="evenodd" clip-rule="evenodd" d="M8.60865 16.0873C8.57879 16.0577 8.54809 16.0252 8.51655 15.9893C7.77551 15.148 2.03238 7.57615 4.71868 4.86522C6.5673 2.99966 11.0918 4.85273 15.8168 8.53561C18.1134 6.45388 24.7544 2.27563 27.2278 4.77176C29.4202 6.98424 26.5589 12.2136 23.4484 15.9893C26.559 19.765 29.4204 24.9945 27.228 27.207C24.7769 29.6805 18.2333 25.5999 15.8803 23.5001C11.1323 27.2564 6.57546 29.1098 4.71854 27.3005C2.03224 24.683 7.68273 17.0177 8.51641 16.1763C8.54851 16.1439 8.57924 16.1143 8.60865 16.0873ZM8.14567 8.32406C8.10488 9.92974 9.14216 11.8618 10.6007 13.7928C10.5776 13.7461 10.5543 13.6991 10.5543 13.6524C11.2746 12.9254 12.3683 11.8719 13.3967 10.8825C11.4341 9.35004 9.51071 8.12741 8.15541 7.9033C8.15264 8.03813 8.14938 8.17833 8.14567 8.32406ZM10.5426 18.2207C11.009 18.6908 12.3384 20.0289 13.5626 21.2463C11.4416 22.9192 9.34897 24.2536 7.95036 24.3825C7.73484 23.9097 8.28569 21.1248 10.5426 18.2207ZM24.2163 24.1436C24.4237 22.5141 22.8941 20.3007 21.3385 18.3803C20.3032 19.5181 19.2268 20.5917 18.1396 21.5802C20.9652 23.7559 23.6765 24.3298 24.2163 24.1436ZM21.4723 13.7641C23.0655 11.9006 24.6511 9.84835 24.2988 8.14848C24.1405 8.14534 23.9745 8.14149 23.8006 8.13699C22.1969 8.09549 20.2645 9.15938 18.3277 10.6498C19.3977 11.6183 20.4556 12.6637 21.4723 13.7641ZM15.7567 12.8436C17.0774 13.9997 18.3146 15.1711 19.2931 16.1295C18.3135 17.0891 17.0745 18.2621 15.7521 19.4195C14.7138 18.4122 13.5703 17.2666 12.4924 16.0677C13.4737 15.0547 14.5879 13.9252 15.7567 12.8436Z" fill="white"/>
<mask id="path-3-inside-1_1968_5276" fill="white">
<path fill-rule="evenodd" clip-rule="evenodd" d="M14.9869 6C14.4419 6 14 6.44187 14 6.98695C14 7.43727 13.6927 7.82443 13.2694 7.97813C13.0457 8.05935 12.8267 8.15026 12.6128 8.25037C12.2047 8.44134 11.7134 8.38491 11.3949 8.06634C11.0093 7.68082 10.3843 7.68082 9.99875 8.06634L8.56642 9.49867C8.1809 9.88419 8.1809 10.5092 8.56642 10.8948C8.88498 11.2133 8.94141 11.7046 8.75043 12.1126C8.6503 12.3266 8.55937 12.5456 8.47813 12.7694C8.32443 13.1927 7.93727 13.5 7.48695 13.5C6.94187 13.5 6.5 13.9419 6.5 14.4869V16.5131C6.5 17.0581 6.94187 17.5 7.48695 17.5C7.93727 17.5 8.32443 17.8073 8.47813 18.2306C8.55936 18.4543 8.65029 18.6734 8.75041 18.8873C8.9414 19.2954 8.88497 19.7867 8.5664 20.1052C8.18088 20.4908 8.18088 21.1158 8.5664 21.5013L9.99871 22.9337C10.3842 23.3192 11.0093 23.3192 11.3948 22.9337C11.7134 22.6151 12.2047 22.5586 12.6128 22.7496C12.8266 22.8497 13.0457 22.9406 13.2694 23.0219C13.6927 23.1756 14 23.5627 14 24.0131C14 24.5581 14.4419 25 14.9869 25H17.0131C17.5581 25 18 24.5581 18 24.0131C18 23.5627 18.3073 23.1756 18.7306 23.0219C18.9543 22.9406 19.1734 22.8497 19.3873 22.7496C19.7954 22.5586 20.2867 22.615 20.6053 22.9336C20.9909 23.3192 21.616 23.3192 22.0015 22.9336L23.4337 21.5014C23.8193 21.1159 23.8193 20.4908 23.4337 20.1052C23.1151 19.7866 23.0587 19.2952 23.2497 18.8872C23.3498 18.6733 23.4407 18.4543 23.5219 18.2306C23.6756 17.8073 24.0627 17.5 24.5131 17.5C25.0581 17.5 25.5 17.0581 25.5 16.5131V14.4869C25.5 13.9419 25.0581 13.5 24.5131 13.5C24.0627 13.5 23.6756 13.1927 23.5219 12.7694C23.4407 12.5457 23.3497 12.3267 23.2497 12.1128C23.0587 11.7047 23.1151 11.2134 23.4337 10.8948C23.8192 10.5092 23.8192 9.88413 23.4337 9.49857L22.0015 8.06636C21.6159 7.68081 20.9908 7.68081 20.6053 8.06636C20.2867 8.38495 19.7953 8.44138 19.3873 8.25039C19.1734 8.15028 18.9543 8.05936 18.7306 7.97813C18.3073 7.82443 18 7.43727 18 6.98695C18 6.44187 17.5581 6 17.0131 6H14.9869ZM16 18.5C17.6569 18.5 19 17.1569 19 15.5C19 13.8431 17.6569 12.5 16 12.5C14.3431 12.5 13 13.8431 13 15.5C13 17.1569 14.3431 18.5 16 18.5Z"/>
</mask>
<path d="M13.2694 7.97813L12.9281 7.03817L12.9281 7.03817L13.2694 7.97813ZM12.6128 8.25037L13.0367 9.15608L13.0367 9.15608L12.6128 8.25037ZM11.3949 8.06634L12.102 7.35924L12.102 7.35924L11.3949 8.06634ZM9.99875 8.06634L9.29164 7.35924L9.29164 7.35924L9.99875 8.06634ZM8.56642 9.49867L7.85931 8.79157L7.85931 8.79157L8.56642 9.49867ZM8.56642 10.8948L7.85931 11.6019L7.85931 11.6019L8.56642 10.8948ZM8.75043 12.1126L9.65613 12.5366L9.65613 12.5366L8.75043 12.1126ZM8.47813 12.7694L9.41808 13.1107L9.41808 13.1107L8.47813 12.7694ZM8.47813 18.2306L9.41808 17.8893L9.41808 17.8893L8.47813 18.2306ZM8.75041 18.8873L7.84471 19.3112L7.84471 19.3112L8.75041 18.8873ZM8.5664 20.1052L9.27351 20.8123L9.27351 20.8123L8.5664 20.1052ZM8.5664 21.5013L7.85929 22.2084L7.85929 22.2084L8.5664 21.5013ZM9.99871 22.9337L9.29161 23.6408L9.29161 23.6408L9.99871 22.9337ZM11.3948 22.9337L12.1019 23.6408L12.1019 23.6408L11.3948 22.9337ZM12.6128 22.7496L12.1889 23.6553L12.1889 23.6553L12.6128 22.7496ZM13.2694 23.0219L12.9281 23.9618L12.9281 23.9618L13.2694 23.0219ZM18.7306 23.0219L19.0719 23.9618L19.0719 23.9618L18.7306 23.0219ZM19.3873 22.7496L18.9634 21.8439L18.9634 21.8439L19.3873 22.7496ZM20.6053 22.9336L21.3124 22.2265L21.3124 22.2265L20.6053 22.9336ZM22.0015 22.9336L21.2944 22.2265L21.2944 22.2265L22.0015 22.9336ZM23.4337 21.5014L22.7266 20.7943L22.7266 20.7943L23.4337 21.5014ZM23.4337 20.1052L24.1408 19.3981L24.1408 19.3981L23.4337 20.1052ZM23.2497 18.8872L24.1554 19.311L24.1554 19.311L23.2497 18.8872ZM23.5219 18.2306L24.4618 18.5719L24.4618 18.5719L23.5219 18.2306ZM23.5219 12.7694L24.4618 12.4281L24.4618 12.4281L23.5219 12.7694ZM23.2497 12.1128L22.3439 12.5367L22.3439 12.5367L23.2497 12.1128ZM23.4337 10.8948L24.1408 11.6019L24.1408 11.6019L23.4337 10.8948ZM23.4337 9.49857L22.7266 10.2057L22.7266 10.2057L23.4337 9.49857ZM22.0015 8.06636L22.7086 7.35925L22.7086 7.35925L22.0015 8.06636ZM20.6053 8.06636L21.3124 8.77347L21.3124 8.77347L20.6053 8.06636ZM19.3873 8.25039L18.9634 9.1561L18.9634 9.1561L19.3873 8.25039ZM18.7306 7.97813L19.0719 7.03817L19.0719 7.03817L18.7306 7.97813ZM15 6.98695C15 6.98653 15 6.98717 14.9997 6.98852C14.9995 6.9898 14.9991 6.99113 14.9986 6.99233C14.9976 6.99462 14.9966 6.99572 14.9962 6.99618C14.9957 6.99663 14.9946 6.9976 14.9923 6.99856C14.9911 6.99907 14.9898 6.99949 14.9885 6.99975C14.9872 7.00003 14.9865 7 14.9869 7V5C13.8896 5 13 5.88959 13 6.98695H15ZM13.6107 8.91808C14.3758 8.64027 15 7.91226 15 6.98695H13C13 6.97921 13.0037 6.98018 12.9946 6.99222C12.9837 7.00662 12.9614 7.02607 12.9281 7.03817L13.6107 8.91808ZM13.0367 9.15608C13.2237 9.06855 13.4152 8.98907 13.6107 8.91808L12.9281 7.03817C12.6762 7.12963 12.4296 7.23198 12.1889 7.34466L13.0367 9.15608ZM10.6878 8.77345C11.3422 9.42791 12.2989 9.5014 13.0367 9.15608L12.1889 7.34466C12.1568 7.35965 12.1274 7.36169 12.1096 7.35919C12.0947 7.35709 12.0966 7.35382 12.102 7.35924L10.6878 8.77345ZM10.7059 8.77345C10.7062 8.77315 10.7057 8.7736 10.7046 8.77435C10.7035 8.77507 10.7023 8.7757 10.7011 8.77619C10.6988 8.77711 10.6974 8.7772 10.6968 8.7772C10.6962 8.7772 10.6948 8.77711 10.6925 8.77619C10.6913 8.7757 10.6901 8.77507 10.689 8.77435C10.6879 8.7736 10.6875 8.77315 10.6878 8.77345L12.102 7.35924C11.3259 6.58319 10.0677 6.58319 9.29164 7.35924L10.7059 8.77345ZM9.27353 10.2058L10.7059 8.77345L9.29164 7.35924L7.85931 8.79157L9.27353 10.2058ZM9.27353 10.1876C9.27322 10.1873 9.27368 10.1878 9.27443 10.1889C9.27515 10.19 9.27578 10.1912 9.27627 10.1924C9.27719 10.1947 9.27728 10.1961 9.27728 10.1967C9.27728 10.1973 9.27719 10.1988 9.27627 10.201C9.27578 10.2022 9.27515 10.2034 9.27443 10.2045C9.27368 10.2057 9.27322 10.2061 9.27353 10.2058L7.85931 8.79157C7.08327 9.56761 7.08327 10.8258 7.85931 11.6019L9.27353 10.1876ZM9.65613 12.5366C10.0015 11.7987 9.92799 10.8421 9.27353 10.1876L7.85931 11.6019C7.85389 11.5964 7.85716 11.5946 7.85925 11.6094C7.86176 11.6273 7.85972 11.6567 7.84473 11.6887L9.65613 12.5366ZM9.41808 13.1107C9.48909 12.9151 9.56858 12.7236 9.65613 12.5366L7.84473 11.6887C7.73202 11.9295 7.62964 12.1762 7.53817 12.4281L9.41808 13.1107ZM7.48695 14.5C8.41226 14.5 9.14027 13.8758 9.41808 13.1107L7.53817 12.4281C7.52607 12.4614 7.50662 12.4837 7.49222 12.4946C7.48018 12.5037 7.47921 12.5 7.48695 12.5V14.5ZM7.5 14.4869C7.5 14.4865 7.50003 14.4872 7.49975 14.4885C7.49949 14.4898 7.49907 14.4911 7.49856 14.4923C7.4976 14.4946 7.49663 14.4957 7.49618 14.4962C7.49572 14.4966 7.49462 14.4976 7.49233 14.4986C7.49113 14.4991 7.48981 14.4995 7.48852 14.4997C7.48717 14.5 7.48653 14.5 7.48695 14.5V12.5C6.38959 12.5 5.5 13.3896 5.5 14.4869H7.5ZM7.5 16.5131V14.4869H5.5V16.5131H7.5ZM7.48695 16.5C7.48653 16.5 7.48717 16.5 7.48852 16.5002C7.48981 16.5005 7.49113 16.5009 7.49233 16.5014C7.49462 16.5024 7.49572 16.5034 7.49618 16.5038C7.49663 16.5043 7.4976 16.5054 7.49856 16.5077C7.49907 16.5089 7.49949 16.5102 7.49975 16.5115C7.50003 16.5128 7.5 16.5135 7.5 16.5131H5.5C5.5 17.6104 6.38959 18.5 7.48695 18.5V16.5ZM9.41808 17.8893C9.14027 17.1242 8.41226 16.5 7.48695 16.5V18.5C7.47921 18.5 7.48018 18.4963 7.49222 18.5054C7.50662 18.5163 7.52607 18.5386 7.53817 18.5719L9.41808 17.8893ZM9.65612 18.4634C9.56857 18.2764 9.48908 18.0849 9.41808 17.8893L7.53817 18.5719C7.62964 18.8238 7.73201 19.0705 7.84471 19.3112L9.65612 18.4634ZM9.27351 20.8123C9.92797 20.1579 10.0015 19.2012 9.65612 18.4634L7.84471 19.3112C7.8597 19.3433 7.86174 19.3727 7.85924 19.3905C7.85715 19.4054 7.85387 19.4035 7.85929 19.3981L9.27351 20.8123ZM9.27351 20.7942C9.2732 20.7939 9.27366 20.7943 9.27441 20.7955C9.27513 20.7966 9.27576 20.7978 9.27625 20.799C9.27717 20.8012 9.27726 20.8027 9.27726 20.8033C9.27726 20.8039 9.27717 20.8053 9.27625 20.8076C9.27576 20.8088 9.27513 20.81 9.27441 20.8111C9.27366 20.8122 9.2732 20.8126 9.27351 20.8123L7.85929 19.3981C7.08325 20.1742 7.08325 21.4324 7.85929 22.2084L9.27351 20.7942ZM10.7058 22.2265L9.27351 20.7942L7.85929 22.2084L9.29161 23.6408L10.7058 22.2265ZM10.6877 22.2265C10.6874 22.2268 10.6878 22.2264 10.689 22.2256C10.6901 22.2249 10.6913 22.2243 10.6925 22.2238C10.6947 22.2229 10.6962 22.2228 10.6968 22.2228C10.6974 22.2228 10.6988 22.2229 10.7011 22.2238C10.7023 22.2243 10.7035 22.2249 10.7046 22.2256C10.7057 22.2264 10.7061 22.2268 10.7058 22.2265L9.29161 23.6408C10.0677 24.4168 11.3259 24.4168 12.1019 23.6408L10.6877 22.2265ZM13.0367 21.8439C12.2988 21.4986 11.3422 21.5721 10.6877 22.2265L12.1019 23.6408C12.0965 23.6462 12.0947 23.6429 12.1096 23.6408C12.1274 23.6383 12.1568 23.6403 12.1889 23.6553L13.0367 21.8439ZM13.6107 22.0819C13.4152 22.0109 13.2237 21.9314 13.0367 21.8439L12.1889 23.6553C12.4296 23.768 12.6762 23.8704 12.9281 23.9618L13.6107 22.0819ZM15 24.0131C15 23.0877 14.3758 22.3597 13.6107 22.0819L12.9281 23.9618C12.9614 23.9739 12.9837 23.9934 12.9946 24.0078C13.0037 24.0198 13 24.0208 13 24.0131H15ZM14.9869 24C14.9865 24 14.9872 24 14.9885 24.0002C14.9898 24.0005 14.9911 24.0009 14.9923 24.0014C14.9946 24.0024 14.9957 24.0034 14.9962 24.0038C14.9966 24.0043 14.9976 24.0054 14.9986 24.0077C14.9991 24.0089 14.9995 24.0102 14.9998 24.0115C15 24.0128 15 24.0135 15 24.0131H13C13 25.1104 13.8896 26 14.9869 26V24ZM17.0131 24H14.9869V26H17.0131V24ZM17 24.0131C17 24.0135 17 24.0128 17.0002 24.0115C17.0005 24.0102 17.0009 24.0089 17.0014 24.0077C17.0024 24.0054 17.0034 24.0043 17.0038 24.0038C17.0043 24.0034 17.0054 24.0024 17.0077 24.0014C17.0089 24.0009 17.0102 24.0005 17.0115 24.0002C17.0128 24 17.0135 24 17.0131 24V26C18.1104 26 19 25.1104 19 24.0131H17ZM18.3893 22.0819C17.6242 22.3597 17 23.0877 17 24.0131H19C19 24.0208 18.9963 24.0198 19.0054 24.0078C19.0163 23.9934 19.0386 23.9739 19.0719 23.9618L18.3893 22.0819ZM18.9634 21.8439C18.7763 21.9314 18.5848 22.0109 18.3893 22.0819L19.0719 23.9618C19.3238 23.8704 19.5704 23.768 19.8112 23.6553L18.9634 21.8439ZM21.3124 22.2265C20.6579 21.572 19.7012 21.4986 18.9634 21.8439L19.8112 23.6553C19.8432 23.6403 19.8727 23.6383 19.8905 23.6408C19.9054 23.6429 19.9036 23.6461 19.8982 23.6407L21.3124 22.2265ZM21.2944 22.2265C21.2941 22.2268 21.2945 22.2264 21.2956 22.2256C21.2967 22.2249 21.2979 22.2243 21.2991 22.2238C21.3014 22.2229 21.3028 22.2228 21.3034 22.2228C21.304 22.2228 21.3054 22.2229 21.3077 22.2238C21.3089 22.2243 21.3101 22.2249 21.3112 22.2256C21.3123 22.2264 21.3127 22.2268 21.3124 22.2265L19.8982 23.6407C20.6743 24.4168 21.9325 24.4168 22.7086 23.6407L21.2944 22.2265ZM22.7266 20.7943L21.2944 22.2265L22.7086 23.6407L24.1408 22.2085L22.7266 20.7943ZM22.7266 20.8123C22.7269 20.8126 22.7265 20.8122 22.7257 20.8111C22.725 20.81 22.7244 20.8088 22.7239 20.8076C22.723 20.8053 22.7229 20.8039 22.7229 20.8033C22.7229 20.8027 22.723 20.8013 22.7239 20.799C22.7244 20.7979 22.725 20.7966 22.7257 20.7956C22.7265 20.7944 22.7269 20.794 22.7266 20.7943L24.1408 22.2085C24.9169 21.4325 24.9169 20.1742 24.1408 19.3981L22.7266 20.8123ZM22.344 18.4633C21.9986 19.2011 22.0721 20.1578 22.7266 20.8123L24.1408 19.3981C24.1462 19.4035 24.1429 19.4053 24.1408 19.3904C24.1383 19.3726 24.1404 19.3431 24.1554 19.311L22.344 18.4633ZM22.5819 17.8893C22.5109 18.0848 22.4315 18.2763 22.344 18.4633L24.1554 19.311C24.268 19.0703 24.3704 18.8238 24.4618 18.5719L22.5819 17.8893ZM24.5131 16.5C23.5877 16.5 22.8597 17.1242 22.5819 17.8893L24.4618 18.5719C24.4739 18.5386 24.4934 18.5163 24.5078 18.5054C24.5198 18.4963 24.5208 18.5 24.5131 18.5V16.5ZM24.5 16.5131C24.5 16.5135 24.5 16.5128 24.5002 16.5115C24.5005 16.5102 24.5009 16.5089 24.5014 16.5077C24.5024 16.5054 24.5034 16.5043 24.5038 16.5038C24.5043 16.5034 24.5054 16.5024 24.5077 16.5014C24.5089 16.5009 24.5102 16.5005 24.5115 16.5002C24.5128 16.5 24.5135 16.5 24.5131 16.5V18.5C25.6104 18.5 26.5 17.6104 26.5 16.5131H24.5ZM24.5 14.4869V16.5131H26.5V14.4869H24.5ZM24.5131 14.5C24.5135 14.5 24.5128 14.5 24.5115 14.4997C24.5102 14.4995 24.5089 14.4991 24.5077 14.4986C24.5054 14.4976 24.5043 14.4966 24.5038 14.4962C24.5034 14.4957 24.5024 14.4946 24.5014 14.4923C24.5009 14.4911 24.5005 14.4898 24.5002 14.4885C24.5 14.4872 24.5 14.4865 24.5 14.4869H26.5C26.5 13.3896 25.6104 12.5 24.5131 12.5V14.5ZM22.5819 13.1107C22.8597 13.8758 23.5877 14.5 24.5131 14.5V12.5C24.5208 12.5 24.5198 12.5037 24.5078 12.4946C24.4934 12.4837 24.4739 12.4614 24.4618 12.4281L22.5819 13.1107ZM22.3439 12.5367C22.4315 12.7237 22.5109 12.9152 22.5819 13.1107L24.4618 12.4281C24.3704 12.1762 24.268 11.9297 24.1554 11.6889L22.3439 12.5367ZM22.7266 10.1877C22.0721 10.8422 21.9986 11.7989 22.3439 12.5367L24.1554 11.6889C24.1404 11.6569 24.1383 11.6274 24.1408 11.6096C24.1429 11.5947 24.1462 11.5965 24.1408 11.6019L22.7266 10.1877ZM22.7266 10.2057C22.7269 10.206 22.7264 10.2056 22.7257 10.2044C22.725 10.2034 22.7243 10.2022 22.7239 10.201C22.7229 10.1987 22.7229 10.1973 22.7229 10.1967C22.7229 10.1961 22.7229 10.1947 22.7239 10.1924C22.7243 10.1912 22.725 10.19 22.7257 10.1889C22.7264 10.1878 22.7269 10.1874 22.7266 10.1877L24.1408 11.6019C24.9169 10.8258 24.9169 9.56754 24.1408 8.79146L22.7266 10.2057ZM21.2944 8.77347L22.7266 10.2057L24.1408 8.79146L22.7086 7.35925L21.2944 8.77347ZM21.3124 8.77347C21.3127 8.77316 21.3123 8.77361 21.3111 8.77436C21.3101 8.77507 21.3089 8.77571 21.3077 8.77619C21.3054 8.77711 21.304 8.7772 21.3034 8.7772C21.3028 8.7772 21.3014 8.77711 21.2991 8.77619C21.2979 8.77571 21.2967 8.77507 21.2956 8.77436C21.2945 8.77361 21.2941 8.77316 21.2944 8.77347L22.7086 7.35925C21.9325 6.58318 20.6742 6.58318 19.8982 7.35925L21.3124 8.77347ZM18.9634 9.1561C19.7012 9.50144 20.6579 9.42796 21.3124 8.77347L19.8982 7.35925C19.9036 7.35385 19.9054 7.35712 19.8905 7.35922C19.8727 7.36173 19.8432 7.35968 19.8112 7.34468L18.9634 9.1561ZM18.3893 8.91808C18.5848 8.98908 18.7763 9.06856 18.9634 9.1561L19.8112 7.34468C19.5704 7.232 19.3238 7.12963 19.0719 7.03817L18.3893 8.91808ZM17 6.98695C17 7.91226 17.6242 8.64027 18.3893 8.91808L19.0719 7.03817C19.0386 7.02607 19.0163 7.00662 19.0054 6.99222C18.9963 6.98018 19 6.97921 19 6.98695H17ZM17.0131 7C17.0135 7 17.0128 7.00003 17.0115 6.99975C17.0102 6.99949 17.0089 6.99907 17.0077 6.99856C17.0054 6.9976 17.0043 6.99663 17.0038 6.99618C17.0034 6.99572 17.0024 6.99462 17.0014 6.99233C17.0009 6.99113 17.0005 6.98981 17.0003 6.98852C17 6.98717 17 6.98653 17 6.98695H19C19 5.88959 18.1104 5 17.0131 5V7ZM14.9869 7H17.0131V5H14.9869V7ZM18 15.5C18 16.6046 17.1046 17.5 16 17.5V19.5C18.2091 19.5 20 17.7091 20 15.5H18ZM16 13.5C17.1046 13.5 18 14.3954 18 15.5H20C20 13.2909 18.2091 11.5 16 11.5V13.5ZM14 15.5C14 14.3954 14.8954 13.5 16 13.5V11.5C13.7909 11.5 12 13.2909 12 15.5H14ZM16 17.5C14.8954 17.5 14 16.6046 14 15.5H12C12 17.7091 13.7909 19.5 16 19.5V17.5Z" fill="white" mask="url(#path-3-inside-1_1968_5276)"/>
</g>
<defs>
<clipPath id="clip0_1968_5276">
<rect width="32" height="32" fill="white"/>
</clipPath>
</defs>
</svg>
