<svg width="32" height="32" viewBox="0 0 32 32" fill="none" xmlns="http://www.w3.org/2000/svg">
<g clip-path="url(#clip0)">
<path d="M4.30006 -1.62572e-05H27.7998C28.3578 0.00649097 28.9092 0.122532 29.4224 0.341483C29.9355 0.560432 30.4003 0.878001 30.7904 1.27605C31.1804 1.67411 31.4879 2.14485 31.6954 2.6614C31.9029 3.17794 32.0063 3.73018 31.9997 4.28656V27.7132C32.0037 28.2772 31.8952 28.8365 31.6805 29.3583C31.4658 29.8802 31.1492 30.3543 30.7492 30.7532C30.3491 31.152 29.8735 31.4675 29.35 31.6816C28.8265 31.8956 28.2655 32.0038 27.6998 31.9998H4.30006C3.15218 31.9687 2.0615 31.4936 1.25892 30.6748C0.456346 29.8562 0.00487903 28.7582 0.000106142 27.6135V4.28656C-0.00388312 3.72253 0.104615 3.16333 0.319294 2.64147C0.533974 2.1196 0.850555 1.64547 1.25063 1.24663C1.65072 0.847788 2.12633 0.532192 2.64983 0.31818C3.17332 0.104167 3.73426 -0.00399313 4.30006 -1.62572e-05Z" fill="#1D1D1D"/>
<path opacity="0.05" fill-rule="evenodd" clip-rule="evenodd" d="M8.60865 16.0873C8.57879 16.0577 8.54809 16.0252 8.51655 15.9893C7.77551 15.148 2.03238 7.57615 4.71868 4.86522C6.5673 2.99966 11.0918 4.85273 15.8168 8.53561C18.1134 6.45388 24.7544 2.27563 27.2278 4.77176C29.4202 6.98424 26.5589 12.2136 23.4484 15.9893C26.559 19.765 29.4204 24.9945 27.228 27.207C24.7769 29.6805 18.2333 25.5999 15.8803 23.5001C11.1323 27.2564 6.57546 29.1098 4.71854 27.3005C2.03224 24.683 7.68273 17.0177 8.51641 16.1763C8.54851 16.1439 8.57924 16.1143 8.60865 16.0873ZM8.14567 8.32406C8.10488 9.92974 9.14216 11.8618 10.6007 13.7928C10.5776 13.7461 10.5543 13.6991 10.5543 13.6524C11.2746 12.9254 12.3683 11.8719 13.3967 10.8825C11.4341 9.35004 9.51071 8.12741 8.15541 7.9033C8.15264 8.03813 8.14938 8.17833 8.14567 8.32406ZM10.5426 18.2207C11.009 18.6908 12.3384 20.0289 13.5626 21.2463C11.4416 22.9192 9.34897 24.2536 7.95036 24.3825C7.73484 23.9097 8.28569 21.1248 10.5426 18.2207ZM24.2163 24.1436C24.4237 22.5141 22.8941 20.3007 21.3385 18.3803C20.3032 19.5181 19.2268 20.5917 18.1396 21.5802C20.9652 23.7559 23.6765 24.3298 24.2163 24.1436ZM21.4723 13.7641C23.0655 11.9006 24.6511 9.84835 24.2988 8.14848C24.1405 8.14534 23.9745 8.14149 23.8006 8.13699C22.1969 8.09549 20.2645 9.15938 18.3277 10.6498C19.3977 11.6183 20.4556 12.6637 21.4723 13.7641ZM15.7567 12.8436C17.0774 13.9997 18.3146 15.1711 19.2931 16.1295C18.3135 17.0891 17.0745 18.2621 15.7521 19.4195C14.7138 18.4122 13.5703 17.2666 12.4924 16.0677C13.4737 15.0547 14.5879 13.9252 15.7567 12.8436Z" fill="white"/>
<path d="M18.4085 12.9577C18.8028 12.5556 19 12.0688 19 11.4974C19 10.9965 18.8768 10.5979 18.6303 10.3016C18.3908 10.0053 18.1021 9.79012 17.7641 9.65609C17.4331 9.52205 17.007 9.39506 16.4859 9.27513C16 9.16226 15.6444 9.04938 15.419 8.93651C15.1937 8.82363 15.081 8.65432 15.081 8.42857C15.081 8.19577 15.1796 8.01235 15.3768 7.87831C15.5739 7.73721 15.831 7.66667 16.1479 7.66667C16.3662 7.66667 16.5704 7.69489 16.7606 7.75132C16.9577 7.80071 17.1408 7.87125 17.3099 7.96296C17.4789 8.04762 17.588 8.10406 17.6373 8.13228C17.7852 8.20988 17.8979 8.26279 17.9754 8.29101C18.0528 8.31922 18.1338 8.33333 18.2183 8.33333C18.3873 8.33333 18.5352 8.25573 18.662 8.10053C18.7887 7.94533 18.8521 7.7619 18.8521 7.55026C18.8521 7.40212 18.8239 7.27866 18.7676 7.17989C18.7183 7.07407 18.6303 6.97884 18.5035 6.89418C17.9472 6.54145 17.3768 6.31922 16.7923 6.22751V5.73016C16.7923 5.51146 16.7218 5.3351 16.581 5.20106C16.4472 5.06702 16.2711 5 16.0528 5C15.8415 5 15.6655 5.07055 15.5246 5.21164C15.3838 5.34568 15.3134 5.51852 15.3134 5.73016V6.25926C14.6655 6.3933 14.1444 6.66843 13.75 7.08466C13.3556 7.50088 13.1585 7.99118 13.1585 8.55556C13.1585 9.04938 13.2817 9.44444 13.5282 9.74074C13.7746 10.03 14.0669 10.2452 14.4049 10.3862C14.743 10.5203 15.1761 10.6543 15.7042 10.7884C16.0352 10.873 16.2852 10.9436 16.4542 11C16.6303 11.0564 16.7746 11.134 16.8873 11.2328C17.007 11.3245 17.0669 11.4444 17.0669 11.5926C17.0669 11.8395 16.9683 12.0265 16.7711 12.1534C16.581 12.2734 16.2993 12.3333 15.9261 12.3333C15.6232 12.3333 15.338 12.2981 15.0704 12.2275C14.8028 12.157 14.5141 12.037 14.2042 11.8677C14.0704 11.7901 13.9613 11.7372 13.8768 11.709C13.7923 11.6808 13.7077 11.6667 13.6232 11.6667C13.4542 11.6667 13.3063 11.7443 13.1796 11.8995C13.0599 12.0547 13 12.2381 13 12.4497C13 12.612 13.0246 12.7425 13.0739 12.8413C13.1303 12.94 13.2218 13.0282 13.3486 13.1058C13.9049 13.4656 14.5739 13.6949 15.3556 13.7937V14.2698C15.3556 14.4885 15.4225 14.6649 15.5563 14.7989C15.6972 14.933 15.8768 15 16.0951 15C16.3134 15 16.4894 14.933 16.6232 14.7989C16.7641 14.6649 16.8345 14.4885 16.8345 14.2698V13.7513C17.4965 13.6243 18.0211 13.3598 18.4085 12.9577Z" fill="white"/>
<path d="M10.25 16.25V17.75H11.4922L13.3036 22.2785C13.4175 22.5633 13.6933 22.75 14 22.75H19C19.2841 22.75 19.5438 22.5895 19.6708 22.3354L21.6708 18.3354C21.7871 18.1029 21.7746 17.8268 21.638 17.6057C21.5013 17.3846 21.2599 17.25 21 17.25H15.25V18.75H19.7865L18.5365 21.25H14.5078L12.6964 16.7215C12.5825 16.4367 12.3067 16.25 12 16.25H10.25Z" fill="white"/>
<path d="M14 24C13.4477 24 13 24.4477 13 25C13 25.5523 13.4477 26 14 26C14.5523 26 15 25.5523 15 25C15 24.4477 14.5523 24 14 24Z" fill="white"/>
<path d="M18 25C18 24.4477 18.4477 24 19 24C19.5523 24 20 24.4477 20 25C20 25.5523 19.5523 26 19 26C18.4477 26 18 25.5523 18 25Z" fill="white"/>
</g>
<defs>
<clipPath id="clip0">
<rect width="32" height="32" fill="white"/>
</clipPath>
</defs>
</svg>
