<svg width="32" height="32" viewBox="0 0 32 32" fill="none" xmlns="http://www.w3.org/2000/svg">
<g clip-path="url(#clip0)">
<path d="M4.30006 -1.62572e-05H27.7998C28.3578 0.00649097 28.9092 0.122532 29.4224 0.341483C29.9355 0.560432 30.4003 0.878001 30.7904 1.27605C31.1804 1.67411 31.4879 2.14485 31.6954 2.6614C31.9029 3.17794 32.0063 3.73018 31.9997 4.28656V27.7132C32.0037 28.2772 31.8952 28.8365 31.6805 29.3583C31.4658 29.8802 31.1492 30.3543 30.7492 30.7532C30.3491 31.152 29.8735 31.4675 29.35 31.6816C28.8265 31.8956 28.2655 32.0038 27.6998 31.9998H4.30006C3.15218 31.9687 2.0615 31.4936 1.25892 30.6748C0.456346 29.8562 0.00487903 28.7582 0.000106142 27.6135V4.28656C-0.00388312 3.72253 0.104615 3.16333 0.319294 2.64147C0.533974 2.1196 0.850555 1.64547 1.25063 1.24663C1.65072 0.847788 2.12633 0.532192 2.64983 0.31818C3.17332 0.104167 3.73426 -0.00399313 4.30006 -1.62572e-05Z" fill="#1D1D1D"/>
<path opacity="0.05" fill-rule="evenodd" clip-rule="evenodd" d="M8.60865 16.0873C8.57879 16.0577 8.54809 16.0252 8.51655 15.9893C7.77551 15.148 2.03238 7.57615 4.71868 4.86522C6.5673 2.99966 11.0918 4.85273 15.8168 8.53561C18.1134 6.45388 24.7544 2.27563 27.2278 4.77176C29.4202 6.98424 26.5589 12.2136 23.4484 15.9893C26.559 19.765 29.4204 24.9945 27.228 27.207C24.7769 29.6805 18.2333 25.5999 15.8803 23.5001C11.1323 27.2564 6.57546 29.1098 4.71854 27.3005C2.03224 24.683 7.68273 17.0177 8.51641 16.1763C8.54851 16.1439 8.57924 16.1143 8.60865 16.0873ZM8.14567 8.32406C8.10488 9.92974 9.14216 11.8618 10.6007 13.7928C10.5776 13.7461 10.5543 13.6991 10.5543 13.6524C11.2746 12.9254 12.3683 11.8719 13.3967 10.8825C11.4341 9.35004 9.51071 8.12741 8.15541 7.9033C8.15264 8.03813 8.14938 8.17833 8.14567 8.32406ZM10.5426 18.2207C11.009 18.6908 12.3384 20.0289 13.5626 21.2463C11.4416 22.9192 9.34897 24.2536 7.95036 24.3825C7.73484 23.9097 8.28569 21.1248 10.5426 18.2207ZM24.2163 24.1436C24.4237 22.5141 22.8941 20.3007 21.3385 18.3803C20.3032 19.5181 19.2268 20.5917 18.1396 21.5802C20.9652 23.7559 23.6765 24.3298 24.2163 24.1436ZM21.4723 13.7641C23.0655 11.9006 24.6511 9.84835 24.2988 8.14848C24.1405 8.14534 23.9745 8.14149 23.8006 8.13699C22.1969 8.09549 20.2645 9.15938 18.3277 10.6498C19.3977 11.6183 20.4556 12.6637 21.4723 13.7641ZM15.7567 12.8436C17.0774 13.9997 18.3146 15.1711 19.2931 16.1295C18.3135 17.0891 17.0745 18.2621 15.7521 19.4195C14.7138 18.4122 13.5703 17.2666 12.4924 16.0677C13.4737 15.0547 14.5879 13.9252 15.7567 12.8436Z" fill="white"/>
<path fill-rule="evenodd" clip-rule="evenodd" d="M12.25 9C12.25 6.92893 13.9289 5.25 16 5.25C18.0711 5.25 19.75 6.92893 19.75 9C19.75 11.0711 18.0711 12.75 16 12.75C13.9289 12.75 12.25 11.0711 12.25 9ZM16 6.75C14.7574 6.75 13.75 7.75736 13.75 9C13.75 10.2426 14.7574 11.25 16 11.25C17.2426 11.25 18.25 10.2426 18.25 9C18.25 7.75736 17.2426 6.75 16 6.75Z" fill="white"/>
<path d="M20 22.7137C20 22.7805 19.958 22.8524 19.874 22.9295L18.1261 24.4868L18.5378 26.6916C18.5434 26.7122 18.5462 26.7405 18.5462 26.7764C18.5462 26.8381 18.5294 26.8921 18.4958 26.9383C18.4622 26.9794 18.4146 27 18.3529 27C18.2913 27 18.2269 26.982 18.1597 26.946L16 25.9053L13.8403 26.946C13.7675 26.982 13.7031 27 13.6471 27C13.5798 27 13.5294 26.9794 13.4958 26.9383C13.4622 26.8921 13.4454 26.8381 13.4454 26.7764C13.4454 26.761 13.4482 26.7327 13.4538 26.6916L13.874 24.4868L12.1176 22.9295C12.0392 22.8473 12 22.7753 12 22.7137C12 22.6057 12.0896 22.5389 12.2689 22.5132L14.6807 22.1894L15.7647 20.185C15.8263 20.0617 15.9048 20 16 20C16.0952 20 16.1737 20.0617 16.2353 20.185L17.3193 22.1894L19.7311 22.5132C19.9104 22.5389 20 22.6057 20 22.7137Z" fill="white"/>
<path d="M27 23.9383C27 23.986 26.9737 24.0374 26.9212 24.0925L25.8288 25.2048L26.0861 26.7797C26.0896 26.7944 26.0914 26.8146 26.0914 26.8403C26.0914 26.8844 26.0809 26.9229 26.0599 26.9559C26.0389 26.9853 26.0091 27 25.9706 27C25.9321 27 25.8918 26.9872 25.8498 26.9615L24.5 26.2181L23.1502 26.9615C23.1047 26.9872 23.0644 27 23.0294 27C22.9874 27 22.9559 26.9853 22.9349 26.9559C22.9139 26.9229 22.9034 26.8844 22.9034 26.8403C22.9034 26.8293 22.9051 26.8091 22.9086 26.7797L23.1712 25.2048L22.0735 24.0925C22.0245 24.0338 22 23.9824 22 23.9383C22 23.8612 22.056 23.8135 22.1681 23.7952L23.6754 23.5639L24.3529 22.1322C24.3915 22.0441 24.4405 22 24.5 22C24.5595 22 24.6085 22.0441 24.6471 22.1322L25.3246 23.5639L26.8319 23.7952C26.944 23.8135 27 23.8612 27 23.9383Z" fill="white"/>
<path d="M9.92122 24.0925C9.97374 24.0374 10 23.986 10 23.9383C10 23.8612 9.94398 23.8135 9.83193 23.7952L8.32458 23.5639L7.64706 22.1322C7.60854 22.0441 7.55952 22 7.5 22C7.44048 22 7.39146 22.0441 7.35294 22.1322L6.67542 23.5639L5.16807 23.7952C5.05602 23.8135 5 23.8612 5 23.9383C5 23.9824 5.02451 24.0338 5.07353 24.0925L6.17122 25.2048L5.90861 26.7797C5.90511 26.8091 5.90336 26.8293 5.90336 26.8403C5.90336 26.8844 5.91387 26.9229 5.93487 26.9559C5.95588 26.9853 5.98739 27 6.02941 27C6.06443 27 6.10469 26.9872 6.15021 26.9615L7.5 26.2181L8.84979 26.9615C8.89181 26.9872 8.93207 27 8.97059 27C9.0091 27 9.03887 26.9853 9.05987 26.9559C9.08088 26.9229 9.09139 26.8844 9.09139 26.8403C9.09139 26.8146 9.08964 26.7944 9.08613 26.7797L8.82878 25.2048L9.92122 24.0925Z" fill="white"/>
<path d="M10 18C10.7087 18.2453 10.7086 18.2457 10.7085 18.246L10.7167 18.2243C10.7248 18.2033 10.7383 18.1691 10.7579 18.1236C10.797 18.0323 10.8596 17.8964 10.9488 17.7306C11.128 17.3978 11.4106 16.9526 11.8203 16.5087C12.6292 15.6324 13.9393 14.75 16 14.75C18.0607 14.75 19.3708 15.6324 20.1797 16.5087C20.5894 16.9526 20.872 17.3978 21.0512 17.7306C21.1404 17.8964 21.203 18.0323 21.2421 18.1236C21.2617 18.1691 21.2752 18.2033 21.2833 18.2243L21.2913 18.2455C21.2912 18.2452 21.2913 18.2453 22 18C22.7087 17.7547 22.7086 17.7543 22.7085 17.7539L22.7075 17.7511L22.7057 17.746L22.7005 17.7315C22.6963 17.72 22.6906 17.7047 22.6833 17.6858C22.6689 17.6482 22.6482 17.5965 22.6208 17.5327C22.5662 17.4052 22.4846 17.2286 22.3719 17.0194C22.1473 16.6022 21.7952 16.0474 21.2819 15.4913C20.2446 14.3676 18.5547 13.25 16 13.25C13.4453 13.25 11.7554 14.3676 10.7181 15.4913C10.2048 16.0474 9.85274 16.6022 9.62811 17.0194C9.51545 17.2286 9.43379 17.4052 9.37915 17.5327C9.3518 17.5965 9.33114 17.6482 9.31667 17.6858C9.30943 17.7047 9.30374 17.72 9.29952 17.7315L9.29431 17.746L9.29251 17.7511L9.29182 17.7531C9.29169 17.7534 9.29126 17.7547 10 18Z" fill="white"/>
</g>
<defs>
<clipPath id="clip0">
<rect width="32" height="32" fill="white"/>
</clipPath>
</defs>
</svg>
