<svg width="32" height="32" viewBox="0 0 32 32" fill="none" xmlns="http://www.w3.org/2000/svg">
<g clip-path="url(#clip0)">
<path d="M4.30006 -1.62572e-05H27.7998C28.3578 0.00649097 28.9092 0.122532 29.4224 0.341483C29.9355 0.560432 30.4003 0.878001 30.7904 1.27605C31.1804 1.67411 31.4879 2.14485 31.6954 2.6614C31.9029 3.17794 32.0063 3.73018 31.9997 4.28656V27.7132C32.0037 28.2772 31.8952 28.8365 31.6805 29.3583C31.4658 29.8802 31.1492 30.3543 30.7492 30.7532C30.3491 31.152 29.8735 31.4675 29.35 31.6816C28.8265 31.8956 28.2655 32.0038 27.6998 31.9998H4.30006C3.15218 31.9687 2.0615 31.4936 1.25892 30.6748C0.456346 29.8562 0.00487903 28.7582 0.000106142 27.6135V4.28656C-0.00388312 3.72253 0.104615 3.16333 0.319294 2.64147C0.533974 2.1196 0.850555 1.64547 1.25063 1.24663C1.65072 0.847788 2.12633 0.532192 2.64983 0.31818C3.17332 0.104167 3.73426 -0.00399313 4.30006 -1.62572e-05Z" fill="#1D1D1D"/>
<path opacity="0.05" fill-rule="evenodd" clip-rule="evenodd" d="M8.60865 16.0873C8.57879 16.0577 8.54809 16.0252 8.51655 15.9893C7.77551 15.148 2.03238 7.57615 4.71868 4.86522C6.5673 2.99966 11.0918 4.85273 15.8168 8.53561C18.1134 6.45388 24.7544 2.27563 27.2278 4.77176C29.4202 6.98424 26.5589 12.2136 23.4484 15.9893C26.559 19.765 29.4204 24.9945 27.228 27.207C24.7769 29.6805 18.2333 25.5999 15.8803 23.5001C11.1323 27.2564 6.57546 29.1098 4.71854 27.3005C2.03224 24.683 7.68273 17.0177 8.51641 16.1763C8.54851 16.1439 8.57924 16.1143 8.60865 16.0873ZM8.14567 8.32406C8.10488 9.92974 9.14216 11.8618 10.6007 13.7928C10.5776 13.7461 10.5543 13.6991 10.5543 13.6524C11.2746 12.9254 12.3683 11.8719 13.3967 10.8825C11.4341 9.35004 9.51071 8.12741 8.15541 7.9033C8.15264 8.03813 8.14938 8.17833 8.14567 8.32406ZM10.5426 18.2207C11.009 18.6908 12.3384 20.0289 13.5626 21.2463C11.4416 22.9192 9.34897 24.2536 7.95036 24.3825C7.73484 23.9097 8.28569 21.1248 10.5426 18.2207ZM24.2163 24.1436C24.4237 22.5141 22.8941 20.3007 21.3385 18.3803C20.3032 19.5181 19.2268 20.5917 18.1396 21.5802C20.9652 23.7559 23.6765 24.3298 24.2163 24.1436ZM21.4723 13.7641C23.0655 11.9006 24.6511 9.84835 24.2988 8.14848C24.1405 8.14534 23.9745 8.14149 23.8006 8.13699C22.1969 8.09549 20.2645 9.15938 18.3277 10.6498C19.3977 11.6183 20.4556 12.6637 21.4723 13.7641ZM15.7567 12.8436C17.0774 13.9997 18.3146 15.1711 19.2931 16.1295C18.3135 17.0891 17.0745 18.2621 15.7521 19.4195C14.7138 18.4122 13.5703 17.2666 12.4924 16.0677C13.4737 15.0547 14.5879 13.9252 15.7567 12.8436Z" fill="white"/>
<path d="M19.874 8.92952C19.958 8.85242 20 8.78047 20 8.71366C20 8.60573 19.9104 8.53891 19.7311 8.51322L17.3193 8.18943L16.2353 6.18502C16.1737 6.06167 16.0952 6 16 6C15.9048 6 15.8263 6.06167 15.7647 6.18502L14.6807 8.18943L12.2689 8.51322C12.0896 8.53891 12 8.60573 12 8.71366C12 8.77533 12.0392 8.84728 12.1176 8.92952L13.874 10.4868L13.4538 12.6916C13.4482 12.7327 13.4454 12.761 13.4454 12.7764C13.4454 12.8381 13.4622 12.8921 13.4958 12.9383C13.5294 12.9794 13.5798 13 13.6471 13C13.7031 13 13.7675 12.982 13.8403 12.946L16 11.9053L18.1597 12.946C18.2269 12.982 18.2913 13 18.3529 13C18.4146 13 18.4622 12.9794 18.4958 12.9383C18.5294 12.8921 18.5462 12.8381 18.5462 12.7764C18.5462 12.7405 18.5434 12.7122 18.5378 12.6916L18.1261 10.4868L19.874 8.92952Z" fill="white"/>
<path d="M10.25 16.25V17.75H11.4922L13.3036 22.2785C13.4175 22.5633 13.6933 22.75 14 22.75H19C19.2841 22.75 19.5438 22.5895 19.6708 22.3354L21.6708 18.3354C21.7871 18.1029 21.7746 17.8268 21.638 17.6057C21.5013 17.3846 21.2599 17.25 21 17.25H15.25V18.75H19.7865L18.5365 21.25H14.5078L12.6964 16.7215C12.5825 16.4367 12.3067 16.25 12 16.25H10.25Z" fill="white"/>
<path d="M14 24C13.4477 24 13 24.4477 13 25C13 25.5523 13.4477 26 14 26C14.5523 26 15 25.5523 15 25C15 24.4477 14.5523 24 14 24Z" fill="white"/>
<path d="M18 25C18 24.4477 18.4477 24 19 24C19.5523 24 20 24.4477 20 25C20 25.5523 19.5523 26 19 26C18.4477 26 18 25.5523 18 25Z" fill="white"/>
<path d="M27 9.93833C27 9.98605 26.9737 10.0374 26.9212 10.0925L25.8288 11.2048L26.0861 12.7797C26.0896 12.7944 26.0914 12.8146 26.0914 12.8403C26.0914 12.8844 26.0809 12.9229 26.0599 12.9559C26.0389 12.9853 26.0091 13 25.9706 13C25.9321 13 25.8918 12.9872 25.8498 12.9615L24.5 12.2181L23.1502 12.9615C23.1047 12.9872 23.0644 13 23.0294 13C22.9874 13 22.9559 12.9853 22.9349 12.9559C22.9139 12.9229 22.9034 12.8844 22.9034 12.8403C22.9034 12.8293 22.9051 12.8091 22.9086 12.7797L23.1712 11.2048L22.0735 10.0925C22.0245 10.0338 22 9.98238 22 9.93833C22 9.86123 22.056 9.81351 22.1681 9.79515L23.6754 9.56388L24.3529 8.13216C24.3915 8.04405 24.4405 8 24.5 8C24.5595 8 24.6085 8.04405 24.6471 8.13216L25.3246 9.56388L26.8319 9.79515C26.944 9.81351 27 9.86123 27 9.93833Z" fill="white"/>
<path d="M9.92122 10.0925C9.97374 10.0374 10 9.98605 10 9.93833C10 9.86123 9.94398 9.81351 9.83193 9.79515L8.32458 9.56388L7.64706 8.13216C7.60854 8.04405 7.55952 8 7.5 8C7.44048 8 7.39146 8.04405 7.35294 8.13216L6.67542 9.56388L5.16807 9.79515C5.05602 9.81351 5 9.86123 5 9.93833C5 9.98238 5.02451 10.0338 5.07353 10.0925L6.17122 11.2048L5.90861 12.7797C5.90511 12.8091 5.90336 12.8293 5.90336 12.8403C5.90336 12.8844 5.91387 12.9229 5.93487 12.9559C5.95588 12.9853 5.98739 13 6.02941 13C6.06443 13 6.10469 12.9872 6.15021 12.9615L7.5 12.2181L8.84979 12.9615C8.89181 12.9872 8.93207 13 8.97059 13C9.0091 13 9.03887 12.9853 9.05987 12.9559C9.08088 12.9229 9.09139 12.8844 9.09139 12.8403C9.09139 12.8146 9.08964 12.7944 9.08613 12.7797L8.82878 11.2048L9.92122 10.0925Z" fill="white"/>
</g>
<defs>
<clipPath id="clip0">
<rect width="32" height="32" fill="white"/>
</clipPath>
</defs>
</svg>
