<svg width="32" height="32" viewBox="0 0 32 32" fill="none" xmlns="http://www.w3.org/2000/svg">
<g clip-path="url(#clip0)">
<path d="M4.30006 -1.62572e-05H27.7998C28.3578 0.00649097 28.9092 0.122532 29.4224 0.341483C29.9355 0.560432 30.4003 0.878001 30.7904 1.27605C31.1804 1.67411 31.4879 2.14485 31.6954 2.6614C31.9029 3.17794 32.0063 3.73018 31.9997 4.28656V27.7132C32.0037 28.2772 31.8952 28.8365 31.6805 29.3583C31.4658 29.8802 31.1492 30.3543 30.7492 30.7532C30.3491 31.152 29.8735 31.4675 29.35 31.6816C28.8265 31.8956 28.2655 32.0038 27.6998 31.9998H4.30006C3.15218 31.9687 2.0615 31.4936 1.25892 30.6748C0.456346 29.8562 0.00487903 28.7582 0.000106142 27.6135V4.28656C-0.00388312 3.72253 0.104615 3.16333 0.319294 2.64147C0.533974 2.1196 0.850555 1.64547 1.25063 1.24663C1.65072 0.847788 2.12633 0.532192 2.64983 0.31818C3.17332 0.104167 3.73426 -0.00399313 4.30006 -1.62572e-05Z" fill="#1D1D1D"/>
<path opacity="0.05" fill-rule="evenodd" clip-rule="evenodd" d="M8.60865 16.0873C8.57879 16.0577 8.54809 16.0252 8.51655 15.9893C7.77551 15.148 2.03238 7.57615 4.71868 4.86522C6.5673 2.99966 11.0918 4.85273 15.8168 8.53561C18.1134 6.45388 24.7544 2.27563 27.2278 4.77176C29.4202 6.98424 26.5589 12.2136 23.4484 15.9893C26.559 19.765 29.4204 24.9945 27.228 27.207C24.7769 29.6805 18.2333 25.5999 15.8803 23.5001C11.1323 27.2564 6.57546 29.1098 4.71854 27.3005C2.03224 24.683 7.68273 17.0177 8.51641 16.1763C8.54851 16.1439 8.57924 16.1143 8.60865 16.0873ZM8.14567 8.32406C8.10488 9.92974 9.14216 11.8618 10.6007 13.7928C10.5776 13.7461 10.5543 13.6991 10.5543 13.6524C11.2746 12.9254 12.3683 11.8719 13.3967 10.8825C11.4341 9.35004 9.51071 8.12741 8.15541 7.9033C8.15264 8.03813 8.14938 8.17833 8.14567 8.32406ZM10.5426 18.2207C11.009 18.6908 12.3384 20.0289 13.5626 21.2463C11.4416 22.9192 9.34897 24.2536 7.95036 24.3825C7.73484 23.9097 8.28569 21.1248 10.5426 18.2207ZM24.2163 24.1436C24.4237 22.5141 22.8941 20.3007 21.3385 18.3803C20.3032 19.5181 19.2268 20.5917 18.1396 21.5802C20.9652 23.7559 23.6765 24.3298 24.2163 24.1436ZM21.4723 13.7641C23.0655 11.9006 24.6511 9.84835 24.2988 8.14848C24.1405 8.14534 23.9745 8.14149 23.8006 8.13699C22.1969 8.09549 20.2645 9.15938 18.3277 10.6498C19.3977 11.6183 20.4556 12.6637 21.4723 13.7641ZM15.7567 12.8436C17.0774 13.9997 18.3146 15.1711 19.2931 16.1295C18.3135 17.0891 17.0745 18.2621 15.7521 19.4195C14.7138 18.4122 13.5703 17.2666 12.4924 16.0677C13.4737 15.0547 14.5879 13.9252 15.7567 12.8436Z" fill="white"/>
<path d="M9.44496 11.848C9.58363 11.976 9.76496 12.04 9.98896 12.04C10.213 12.04 10.3916 11.976 10.525 11.848C10.6636 11.7147 10.733 11.5387 10.733 11.32V7.552H11.861C12.0956 7.552 12.269 7.504 12.381 7.408C12.4983 7.30667 12.557 7.15467 12.557 6.952C12.557 6.74933 12.4983 6.6 12.381 6.504C12.269 6.408 12.0956 6.36 11.861 6.36H8.11696C7.88229 6.36 7.70629 6.408 7.58896 6.504C7.47696 6.6 7.42096 6.74933 7.42096 6.952C7.42096 7.15467 7.47696 7.30667 7.58896 7.408C7.70629 7.504 7.88229 7.552 8.11696 7.552H9.24496V11.32C9.24496 11.5387 9.31163 11.7147 9.44496 11.848Z" fill="white"/>
<path d="M13.1316 11.888C13.2703 11.9947 13.441 12.048 13.6436 12.048C13.8463 12.048 14.0143 11.9947 14.1476 11.888C14.2863 11.776 14.3556 11.6107 14.3556 11.392V8.64C14.3556 8.42133 14.2863 8.25867 14.1476 8.152C14.0143 8.04 13.8463 7.984 13.6436 7.984C13.441 7.984 13.2703 8.04 13.1316 8.152C12.9983 8.25867 12.9316 8.42133 12.9316 8.64V11.392C12.9316 11.6107 12.9983 11.776 13.1316 11.888Z" fill="white"/>
<path d="M13.0676 7.24C13.2116 7.36267 13.4036 7.424 13.6436 7.424C13.8836 7.424 14.073 7.36267 14.2116 7.24C14.3556 7.112 14.4276 6.944 14.4276 6.736C14.4276 6.528 14.3556 6.36267 14.2116 6.24C14.0676 6.11733 13.8783 6.056 13.6436 6.056C13.4036 6.056 13.2116 6.11733 13.0676 6.24C12.929 6.36267 12.8596 6.528 12.8596 6.736C12.8596 6.944 12.929 7.112 13.0676 7.24Z" fill="white"/>
<path d="M18.0456 11.512C18.0456 11.2133 17.867 11.0533 17.5096 11.032L17.2776 11.016C17.1816 11.0107 17.1016 10.9733 17.0376 10.904C16.979 10.8347 16.9496 10.7493 16.9496 10.648V9.112H17.3896C17.8163 9.112 18.0296 8.936 18.0296 8.584C18.0296 8.23733 17.8163 8.064 17.3896 8.064H16.9496V7.544C16.9496 7.34133 16.8856 7.18133 16.7576 7.064C16.6296 6.94133 16.4563 6.88 16.2376 6.88C16.019 6.88 15.8456 6.94133 15.7176 7.064C15.5896 7.18133 15.5256 7.34133 15.5256 7.544V8.064H15.2936C14.867 8.064 14.6536 8.23733 14.6536 8.584C14.6536 8.936 14.867 9.112 15.2936 9.112H15.5256V10.528C15.5256 10.9813 15.6483 11.336 15.8936 11.592C16.1443 11.8427 16.5096 11.9867 16.9896 12.024L17.2136 12.04C17.4803 12.056 17.6856 12.0187 17.8296 11.928C17.9736 11.8373 18.0456 11.6987 18.0456 11.512Z" fill="white"/>
<path d="M18.6238 11.888C18.7625 11.9947 18.9332 12.048 19.1358 12.048C19.3385 12.048 19.5065 11.9947 19.6398 11.888C19.7785 11.776 19.8478 11.6107 19.8478 11.392V6.984C19.8478 6.76533 19.7785 6.6 19.6398 6.488C19.5065 6.376 19.3385 6.32 19.1358 6.32C18.9332 6.32 18.7625 6.376 18.6238 6.488C18.4905 6.6 18.4238 6.76533 18.4238 6.984V11.392C18.4238 11.6107 18.4905 11.776 18.6238 11.888Z" fill="white"/>
<path fill-rule="evenodd" clip-rule="evenodd" d="M24.1698 10.88C24.0952 10.784 23.9965 10.736 23.8738 10.736C23.8098 10.736 23.7378 10.7493 23.6578 10.776C23.5832 10.7973 23.5058 10.824 23.4258 10.856C23.2872 10.9093 23.1618 10.952 23.0498 10.984C22.9378 11.0107 22.8152 11.024 22.6818 11.024C22.4312 11.024 22.2418 10.968 22.1138 10.856C21.9858 10.744 21.9032 10.56 21.8658 10.304H23.9778C24.0845 10.304 24.1645 10.272 24.2178 10.208C24.2765 10.1387 24.3058 10.0427 24.3058 9.92C24.3058 9.52533 24.2285 9.18133 24.0738 8.888C23.9245 8.59467 23.7112 8.368 23.4338 8.208C23.1565 8.048 22.8338 7.968 22.4658 7.968C22.0872 7.968 21.7458 8.056 21.4418 8.232C21.1432 8.40267 20.9085 8.64533 20.7378 8.96C20.5725 9.26933 20.4898 9.62133 20.4898 10.016C20.4898 10.432 20.5778 10.7947 20.7538 11.104C20.9298 11.4133 21.1805 11.6507 21.5058 11.816C21.8312 11.9813 22.2125 12.064 22.6498 12.064C22.8578 12.064 23.0845 12.0347 23.3298 11.976C23.5805 11.912 23.7965 11.8347 23.9778 11.744C24.1858 11.632 24.2898 11.4693 24.2898 11.256C24.2898 11.1013 24.2498 10.976 24.1698 10.88ZM22.0578 9.112C22.1698 8.98933 22.3192 8.928 22.5058 8.928C22.8792 8.928 23.0818 9.16267 23.1138 9.632H21.8578C21.8792 9.40267 21.9458 9.22933 22.0578 9.112Z" fill="white"/>
<path d="M10.25 17.25V18.75H11.4922L13.3037 23.2785C13.4176 23.5633 13.6933 23.75 14 23.75H19C19.2841 23.75 19.5438 23.5895 19.6708 23.3354L21.6708 19.3354C21.7871 19.1029 21.7747 18.8268 21.638 18.6057C21.5014 18.3846 21.26 18.25 21 18.25H15.25V19.75H19.7865L18.5365 22.25H14.5078L12.6964 17.7215C12.5825 17.4367 12.3067 17.25 12 17.25H10.25Z" fill="white"/>
<path d="M14 25C13.4477 25 13 25.4477 13 26C13 26.5523 13.4477 27 14 27C14.5523 27 15 26.5523 15 26C15 25.4477 14.5523 25 14 25Z" fill="white"/>
<path d="M18 26C18 25.4477 18.4477 25 19 25C19.5523 25 20 25.4477 20 26C20 26.5523 19.5523 27 19 27C18.4477 27 18 26.5523 18 26Z" fill="white"/>
</g>
<defs>
<clipPath id="clip0">
<rect width="32" height="32" fill="white"/>
</clipPath>
</defs>
</svg>
