<svg width="32" height="32" viewBox="0 0 32 32" fill="none" xmlns="http://www.w3.org/2000/svg">
<g clip-path="url(#clip0_1968_5291)">
<path d="M4.30006 -1.62572e-05H27.7998C28.3578 0.00649097 28.9092 0.122532 29.4224 0.341483C29.9355 0.560432 30.4003 0.878001 30.7904 1.27605C31.1804 1.67411 31.4879 2.14485 31.6954 2.6614C31.9029 3.17794 32.0063 3.73018 31.9997 4.28656V27.7132C32.0037 28.2772 31.8952 28.8365 31.6805 29.3583C31.4658 29.8802 31.1492 30.3543 30.7492 30.7532C30.3491 31.152 29.8735 31.4675 29.35 31.6816C28.8265 31.8956 28.2655 32.0038 27.6998 31.9998H4.30006C3.15218 31.9687 2.0615 31.4936 1.25892 30.6748C0.456346 29.8562 0.00487903 28.7582 0.000106142 27.6135V4.28656C-0.00388312 3.72253 0.104615 3.16333 0.319294 2.64147C0.533974 2.1196 0.850555 1.64547 1.25063 1.24663C1.65072 0.847788 2.12633 0.532192 2.64983 0.31818C3.17332 0.104167 3.73426 -0.00399313 4.30006 -1.62572e-05Z" fill="#1D1D1D"/>
<path opacity="0.05" fill-rule="evenodd" clip-rule="evenodd" d="M8.60865 16.0873C8.57879 16.0577 8.54809 16.0252 8.51655 15.9893C7.77551 15.148 2.03238 7.57615 4.71868 4.86522C6.5673 2.99966 11.0918 4.85273 15.8168 8.53561C18.1134 6.45388 24.7544 2.27563 27.2278 4.77176C29.4202 6.98424 26.5589 12.2136 23.4484 15.9893C26.559 19.765 29.4204 24.9945 27.228 27.207C24.7769 29.6805 18.2333 25.5999 15.8803 23.5001C11.1323 27.2564 6.57546 29.1098 4.71854 27.3005C2.03224 24.683 7.68273 17.0177 8.51641 16.1763C8.54851 16.1439 8.57924 16.1143 8.60865 16.0873ZM8.14567 8.32406C8.10488 9.92974 9.14216 11.8618 10.6007 13.7928C10.5776 13.7461 10.5543 13.6991 10.5543 13.6524C11.2746 12.9254 12.3683 11.8719 13.3967 10.8825C11.4341 9.35004 9.51071 8.12741 8.15541 7.9033C8.15264 8.03813 8.14938 8.17833 8.14567 8.32406ZM10.5426 18.2207C11.009 18.6908 12.3384 20.0289 13.5626 21.2463C11.4416 22.9192 9.34897 24.2536 7.95036 24.3825C7.73484 23.9097 8.28569 21.1248 10.5426 18.2207ZM24.2163 24.1436C24.4237 22.5141 22.8941 20.3007 21.3385 18.3803C20.3032 19.5181 19.2268 20.5917 18.1396 21.5802C20.9652 23.7559 23.6765 24.3298 24.2163 24.1436ZM21.4723 13.7641C23.0655 11.9006 24.6511 9.84835 24.2988 8.14848C24.1405 8.14534 23.9745 8.14149 23.8006 8.13699C22.1969 8.09549 20.2645 9.15938 18.3277 10.6498C19.3977 11.6183 20.4556 12.6637 21.4723 13.7641ZM15.7567 12.8436C17.0774 13.9997 18.3146 15.1711 19.2931 16.1295C18.3135 17.0891 17.0745 18.2621 15.7521 19.4195C14.7138 18.4122 13.5703 17.2666 12.4924 16.0677C13.4737 15.0547 14.5879 13.9252 15.7567 12.8436Z" fill="white"/>
<path d="M14 18.0963C14 18.8963 13.7371 19.5778 13.2113 20.1407C12.6948 20.7037 11.9953 21.0741 11.1127 21.2519V21.9778C11.1127 22.2839 11.0188 22.5309 10.831 22.7185C10.6526 22.9062 10.4178 23 10.1268 23C9.83568 23 9.59624 22.9062 9.40845 22.7185C9.23005 22.5309 9.14085 22.2839 9.14085 21.9778V21.3111C8.09859 21.1728 7.20657 20.8519 6.46479 20.3481C6.29577 20.2395 6.17371 20.116 6.09859 19.9778C6.03286 19.8395 6 19.6568 6 19.4296C6 19.1333 6.07981 18.8765 6.23944 18.6593C6.40845 18.442 6.60563 18.3333 6.83099 18.3333C6.94366 18.3333 7.05634 18.3531 7.16901 18.3926C7.28169 18.4321 7.42723 18.5062 7.60563 18.6148C8.01878 18.8519 8.40376 19.0198 8.76056 19.1185C9.11737 19.2173 9.49765 19.2667 9.90141 19.2667C10.3991 19.2667 10.7746 19.1827 11.0282 19.0148C11.2911 18.837 11.4225 18.5753 11.4225 18.2296C11.4225 18.0222 11.3427 17.8543 11.1831 17.7259C11.0329 17.5877 10.8404 17.479 10.6056 17.4C10.3803 17.321 10.0469 17.2222 9.60563 17.1037C8.90141 16.916 8.32394 16.7284 7.87324 16.5407C7.42254 16.3432 7.03286 16.042 6.70423 15.637C6.37559 15.2222 6.21127 14.6691 6.21127 13.9778C6.21127 13.1877 6.47418 12.5012 7 11.9185C7.52582 11.3358 8.22066 10.9506 9.08451 10.763V10.0222C9.08451 9.72593 9.1784 9.48395 9.3662 9.2963C9.55399 9.09877 9.78873 9 10.0704 9C10.3615 9 10.5962 9.09383 10.7746 9.28148C10.9624 9.46914 11.0563 9.71605 11.0563 10.0222V10.7185C11.8357 10.8469 12.5962 11.158 13.338 11.6519C13.507 11.7704 13.6244 11.9037 13.6901 12.0519C13.7653 12.1901 13.8028 12.363 13.8028 12.5704C13.8028 12.8667 13.7183 13.1235 13.5493 13.3407C13.3803 13.558 13.1831 13.6667 12.9577 13.6667C12.8451 13.6667 12.7371 13.6469 12.6338 13.6074C12.5305 13.5679 12.3803 13.4938 12.1831 13.3852C12.1174 13.3457 11.9718 13.2667 11.7465 13.1481C11.5211 13.0198 11.277 12.921 11.0141 12.8519C10.7606 12.7728 10.4883 12.7333 10.1972 12.7333C9.77465 12.7333 9.43193 12.8321 9.16901 13.0296C8.9061 13.2173 8.77465 13.4741 8.77465 13.8C8.77465 14.116 8.92488 14.3531 9.22535 14.5111C9.52582 14.6691 10 14.8272 10.6479 14.9852C11.3427 15.1531 11.9108 15.3309 12.3521 15.5185C12.8028 15.7062 13.1878 16.0074 13.507 16.4222C13.8357 16.837 14 17.3951 14 18.0963Z" fill="white"/>
<path d="M18 13H26V15H18V13Z" fill="white"/>
<path d="M26 17H18V19H26V17Z" fill="white"/>
</g>
<defs>
<clipPath id="clip0_1968_5291">
<rect width="32" height="32" fill="white"/>
</clipPath>
</defs>
</svg>
